{"glyphs":{"0":{"ha":853,"x_min":64,"x_max":790,"o":"m 790 407 q 763 238 790 315 q 686 105 735 161 q 571 17 638 49 q 426 -14 504 -14 q 283 17 349 -14 q 168 105 217 49 q 92 238 119 161 q 64 407 64 315 q 92 576 64 499 q 168 709 119 653 q 283 797 217 765 q 426 829 349 829 q 571 797 504 829 q 686 709 638 765 q 763 576 735 653 q 790 407 790 499 m 565 407 q 526 565 565 504 q 426 625 488 625 q 325 565 364 625 q 286 407 286 504 q 325 250 286 310 q 426 190 364 190 q 526 250 488 190 q 565 407 565 310 z "},"1":{"ha":719,"x_min":58,"x_max":686,"o":"m 686 200 l 686 0 l 86 0 l 86 200 l 283 200 l 283 554 q 244 520 271 538 q 185 488 217 503 q 119 465 153 474 q 58 456 85 456 l 58 661 q 116 676 81 661 q 186 713 151 692 q 249 757 221 735 q 283 793 276 779 l 510 793 l 510 200 l 686 200 z "},"2":{"ha":811,"x_min":51,"x_max":750,"o":"m 51 0 q 62 117 51 65 q 97 211 72 168 q 163 290 122 254 q 265 360 204 326 q 374 418 331 394 q 444 460 418 442 q 482 493 471 478 q 493 528 493 508 q 465 590 493 567 q 385 614 436 614 q 283 585 326 614 q 200 511 240 557 l 60 675 q 119 724 82 700 q 203 766 156 747 q 306 796 250 785 q 424 807 363 807 q 654 742 574 807 q 735 565 735 676 q 720 483 735 519 q 682 419 706 447 q 628 369 658 390 q 568 329 599 347 q 523 303 547 317 q 475 273 499 289 q 431 239 451 257 q 394 200 410 221 l 750 200 l 750 0 l 51 0 z "},"3":{"ha":789,"x_min":35,"x_max":740,"o":"m 547 329 q 626 299 590 321 q 687 245 661 278 q 726 170 713 213 q 740 79 740 128 q 714 -38 740 14 q 638 -127 688 -90 q 519 -184 589 -164 q 364 -204 450 -204 q 35 -81 154 -204 l 154 78 q 239 19 190 39 q 354 -1 288 -1 q 510 114 510 -1 q 463 208 510 176 q 317 240 417 240 l 276 240 l 276 400 l 322 400 q 442 432 399 400 q 486 517 486 464 q 454 586 486 563 q 369 610 422 610 q 266 583 313 610 q 188 506 219 556 l 47 667 q 106 721 69 696 q 189 763 143 746 q 288 790 235 781 q 394 800 340 800 q 529 783 468 800 q 634 733 590 765 q 701 655 678 700 q 725 554 725 610 q 712 475 725 513 q 675 407 699 438 q 619 356 651 376 q 547 329 586 336 z "},"4":{"ha":797,"x_min":28,"x_max":756,"o":"m 411 -176 l 411 14 l 28 14 l 28 213 l 482 793 l 633 793 l 633 214 l 756 214 l 756 14 l 633 14 l 633 -176 l 411 -176 m 249 214 l 436 214 l 436 460 l 249 214 z "},"5":{"ha":772,"x_min":33,"x_max":732,"o":"m 406 447 q 536 424 476 447 q 640 358 596 400 q 708 258 683 317 q 732 129 732 200 q 704 -8 732 54 q 627 -114 676 -69 q 509 -183 578 -158 q 360 -207 440 -207 q 165 -164 251 -207 q 33 -43 79 -121 l 158 94 q 252 17 199 46 q 361 -12 306 -12 q 465 25 425 -12 q 504 125 504 63 q 467 221 504 185 q 374 257 431 257 q 303 240 336 257 q 253 193 271 224 l 60 193 q 65 222 60 194 q 78 292 71 249 q 97 388 86 335 q 118 497 107 442 q 175 793 143 628 l 665 793 l 665 590 l 336 590 l 307 422 q 341 440 317 432 q 406 447 365 447 z "},"6":{"ha":843,"x_min":60,"x_max":790,"o":"m 790 332 q 763 197 790 260 q 686 87 735 133 q 571 13 638 40 q 426 -14 504 -14 q 272 18 340 -14 q 157 110 204 50 q 85 256 110 169 q 60 454 60 343 q 87 684 60 583 q 164 853 114 785 q 286 958 214 922 q 449 994 358 994 q 619 957 540 994 q 757 849 697 919 l 632 707 q 549 776 597 751 q 446 801 500 801 q 316 743 364 801 q 265 578 268 685 q 339 636 293 615 q 446 657 385 657 q 583 632 519 657 q 692 563 646 607 q 764 460 738 519 q 790 332 790 401 m 426 174 q 485 186 457 174 q 533 220 513 199 q 567 271 554 242 q 579 332 579 300 q 567 390 579 363 q 533 438 554 418 q 485 470 513 458 q 426 482 457 482 q 367 470 394 482 q 318 438 339 458 q 285 390 297 418 q 274 332 274 363 q 286 271 274 300 q 319 220 299 242 q 368 186 340 199 q 426 174 396 174 z "},"7":{"ha":811,"x_min":47,"x_max":811,"o":"m 461 608 l 47 608 l 47 811 l 811 811 l 325 -175 l 74 -175 l 461 608 z "},"8":{"ha":844,"x_min":57,"x_max":788,"o":"m 788 299 q 758 171 788 228 q 679 73 729 114 q 563 10 629 32 q 421 -12 496 -12 q 281 10 347 -12 q 165 75 215 33 q 86 176 115 117 q 57 307 57 235 q 69 380 57 346 q 102 442 82 414 q 147 490 122 469 q 196 526 172 511 q 118 600 150 551 q 86 703 86 649 q 117 824 86 771 q 197 913 149 878 q 306 967 246 949 q 422 986 365 986 q 539 968 479 986 q 647 915 599 950 q 727 826 696 879 q 758 706 758 774 q 750 651 758 678 q 726 601 742 625 q 691 558 711 576 q 649 526 671 539 q 699 489 674 511 q 744 438 724 467 q 776 375 764 410 q 788 299 788 340 m 561 313 q 519 403 561 371 q 422 435 478 435 q 324 401 364 435 q 283 311 283 368 q 295 261 283 283 q 326 223 307 239 q 369 198 344 207 q 422 189 394 189 q 476 198 451 189 q 520 224 501 207 q 550 263 539 240 q 561 313 561 286 m 313 699 q 322 656 313 674 q 347 626 332 638 q 383 608 363 614 q 422 601 403 601 q 462 608 442 601 q 498 626 482 614 q 524 657 514 639 q 533 699 533 675 q 501 765 533 739 q 422 790 468 790 q 344 765 375 790 q 313 699 313 739 z "},"9":{"ha":819,"x_min":42,"x_max":772,"o":"m 42 447 q 69 583 42 519 q 146 692 97 646 q 261 766 194 739 q 406 793 328 793 q 560 761 492 793 q 675 669 628 729 q 747 522 722 610 q 772 325 772 435 q 745 95 772 196 q 668 -74 718 -6 q 546 -179 618 -143 q 383 -215 474 -215 q 213 -178 292 -215 q 75 -69 135 -140 l 200 72 q 283 3 235 28 q 386 -22 332 -22 q 516 36 468 -22 q 567 201 564 94 q 493 143 539 164 q 386 122 447 122 q 249 147 313 122 q 140 216 186 172 q 68 319 94 260 q 42 447 42 378 m 406 606 q 347 593 375 606 q 299 559 319 581 q 265 508 278 538 q 253 447 253 479 q 265 388 253 415 q 297 341 276 361 q 346 309 318 321 q 406 297 374 297 q 464 309 436 297 q 513 341 492 321 q 546 388 533 361 q 558 447 558 415 q 546 508 558 479 q 513 559 533 538 q 464 593 492 581 q 406 606 436 606 z "}," ":{"ha":324,"x_min":0,"x_max":0,"o":""},"Ǽ":{"ha":1357,"x_min":-25,"x_max":1311,"o":"m 904 1051 l 763 1090 l 835 1271 l 1036 1271 l 904 1051 m 582 986 l 1299 986 l 1299 786 l 868 786 l 868 601 l 1224 601 l 1224 403 l 868 403 l 868 200 l 1311 200 l 1311 0 l 642 0 l 642 221 l 343 221 l 217 0 l -25 0 l 582 986 m 625 421 l 625 732 l 440 421 l 625 421 z "},"´":{"ha":374,"x_min":64,"x_max":338,"o":"m 206 794 l 64 833 l 136 1014 l 338 1014 l 206 794 z "},"Á":{"ha":935,"x_min":-3,"x_max":939,"o":"m -3 0 l 376 986 l 561 986 l 939 0 l 697 0 l 621 221 l 314 221 l 239 0 l -3 0 m 468 744 l 350 378 l 582 378 l 468 744 m 532 1051 l 390 1090 l 463 1271 l 664 1271 l 532 1051 z "},"Ă":{"ha":935,"x_min":-3,"x_max":939,"o":"m -3 0 l 376 986 l 561 986 l 939 0 l 697 0 l 621 221 l 314 221 l 239 0 l -3 0 m 468 744 l 350 378 l 582 378 l 468 744 m 468 1164 q 524 1194 500 1164 q 553 1271 549 1224 l 668 1271 q 653 1189 668 1226 q 613 1124 639 1151 q 549 1082 586 1097 q 468 1067 513 1067 q 388 1082 424 1067 q 324 1124 351 1097 q 283 1189 297 1151 q 268 1271 268 1226 l 386 1271 q 410 1195 386 1226 q 468 1164 435 1164 z "},"˘":{"ha":482,"x_min":40,"x_max":440,"o":"m 240 907 q 297 937 272 907 q 325 1014 321 967 l 440 1014 q 426 932 440 969 q 385 867 411 894 q 322 825 358 840 q 240 810 285 810 q 160 825 196 810 q 97 867 124 840 q 55 932 69 894 q 40 1014 40 969 l 158 1014 q 183 938 158 969 q 240 907 207 907 z "},"Â":{"ha":935,"x_min":-3,"x_max":939,"o":"m -3 0 l 376 986 l 561 986 l 939 0 l 697 0 l 621 221 l 314 221 l 239 0 l -3 0 m 468 744 l 350 378 l 582 378 l 468 744 m 236 1121 l 389 1271 l 549 1271 l 700 1121 l 586 1071 l 468 1158 l 350 1071 l 236 1121 z "},"ˆ":{"ha":533,"x_min":35,"x_max":499,"o":"m 35 864 l 188 1014 l 347 1014 l 499 864 l 385 814 l 267 901 l 149 814 l 35 864 z "},"Ä":{"ha":935,"x_min":-3,"x_max":939,"o":"m -3 0 l 376 986 l 561 986 l 939 0 l 697 0 l 621 221 l 314 221 l 239 0 l -3 0 m 468 744 l 350 378 l 582 378 l 468 744 m 231 1082 l 231 1261 l 414 1261 l 414 1082 l 231 1082 m 522 1082 l 522 1261 l 706 1261 l 706 1082 l 522 1082 z "},"¨":{"ha":706,"x_min":115,"x_max":590,"o":"m 115 824 l 115 1003 l 299 1003 l 299 824 l 115 824 m 407 824 l 407 1003 l 590 1003 l 590 824 l 407 824 z "},"À":{"ha":935,"x_min":-3,"x_max":939,"o":"m -3 0 l 376 986 l 561 986 l 939 0 l 697 0 l 621 221 l 314 221 l 239 0 l -3 0 m 468 744 l 350 378 l 582 378 l 468 744 m 272 1272 l 474 1272 l 546 1092 l 406 1053 l 272 1272 z "},"`":{"ha":374,"x_min":64,"x_max":338,"o":"m 64 1014 l 265 1014 l 338 833 l 197 794 l 64 1014 z "},"Ā":{"ha":935,"x_min":-3,"x_max":939,"o":"m -3 0 l 376 986 l 561 986 l 939 0 l 697 0 l 621 221 l 314 221 l 239 0 l -3 0 m 468 744 l 350 378 l 582 378 l 468 744 m 258 1119 l 258 1254 l 681 1254 l 681 1119 l 258 1119 z "},"¯":{"ha":594,"x_min":86,"x_max":508,"o":"m 86 863 l 86 997 l 508 997 l 508 863 l 86 863 z "},"Ą":{"ha":935,"x_min":-3,"x_max":939,"o":"m 872 -285 q 749 -237 789 -274 q 708 -156 708 -201 q 738 -76 708 -115 q 825 0 767 -36 l 697 0 l 621 221 l 314 221 l 239 0 l -3 0 l 376 986 l 561 986 l 939 0 q 825 -124 825 -67 q 847 -162 825 -147 q 915 -178 869 -176 l 872 -285 m 468 744 l 350 378 l 582 378 l 468 744 z "},"˛":{"ha":429,"x_min":96,"x_max":326,"o":"m 260 -283 q 136 -236 176 -272 q 96 -154 96 -200 q 140 -57 96 -106 q 271 32 183 -8 l 326 1 q 213 -122 213 -65 q 235 -160 213 -146 q 303 -176 257 -175 l 260 -283 l 260 -283 z "},"Å":{"ha":935,"x_min":-3,"x_max":939,"o":"m -3 0 l 376 986 l 561 986 l 939 0 l 697 0 l 621 221 l 314 221 l 239 0 l -3 0 m 468 744 l 350 378 l 582 378 l 468 744 m 319 1157 q 360 1242 319 1214 q 468 1271 401 1271 q 575 1242 535 1271 q 615 1157 615 1214 q 575 1073 615 1101 q 468 1044 535 1044 q 360 1073 401 1044 q 319 1157 319 1101 m 468 1206 q 428 1192 444 1206 q 413 1158 413 1179 q 428 1124 413 1138 q 468 1110 444 1110 q 507 1123 490 1110 q 524 1158 524 1136 q 508 1192 524 1179 q 468 1206 492 1206 z "},"˚":{"ha":372,"x_min":38,"x_max":333,"o":"m 38 900 q 78 985 38 957 q 186 1014 119 1014 q 293 985 253 1014 q 333 900 333 957 q 293 816 333 844 q 186 788 253 788 q 78 816 119 788 q 38 900 38 844 m 186 949 q 147 935 163 949 q 131 901 131 922 q 147 867 131 881 q 186 853 163 853 q 225 866 208 853 q 242 901 242 879 q 226 935 242 922 q 186 949 210 949 z "},"Ǻ":{"ha":935,"x_min":-3,"x_max":939,"o":"m 576 1117 q 615 1033 615 1089 q 575 949 615 981 l 939 0 l 697 0 l 621 221 l 314 221 l 239 0 l -3 0 l 361 949 q 319 1033 319 978 q 347 1106 319 1079 q 421 1143 374 1133 l 481 1275 l 682 1275 l 576 1117 m 468 744 l 350 378 l 582 378 l 468 744 m 468 1082 q 428 1069 444 1082 q 413 1035 413 1056 q 428 1000 413 1014 q 468 986 444 986 q 507 999 490 986 q 524 1035 524 1013 q 508 1069 524 1056 q 468 1082 492 1082 z "},"Ã":{"ha":935,"x_min":-3,"x_max":939,"o":"m -3 0 l 376 986 l 561 986 l 939 0 l 697 0 l 621 221 l 314 221 l 239 0 l -3 0 m 468 744 l 350 378 l 582 378 l 468 744 m 557 1074 q 501 1083 525 1074 q 456 1106 476 1093 q 415 1128 435 1118 q 372 1138 396 1138 q 336 1128 349 1138 q 317 1106 324 1118 q 308 1083 310 1093 q 307 1071 307 1072 l 188 1071 q 197 1119 188 1086 q 226 1185 206 1151 q 281 1243 247 1218 q 364 1268 315 1268 q 421 1258 397 1268 q 465 1235 444 1247 q 504 1212 485 1222 q 549 1201 524 1201 q 587 1212 572 1201 q 609 1235 601 1222 q 619 1258 617 1247 q 621 1271 621 1269 l 740 1271 q 731 1228 740 1260 q 699 1161 721 1196 q 643 1100 678 1126 q 557 1074 608 1074 z "},"˜":{"ha":625,"x_min":36,"x_max":589,"o":"m 406 817 q 349 826 374 817 q 304 849 325 836 q 264 871 283 861 q 221 881 244 881 q 185 871 197 881 q 165 849 172 861 q 157 826 158 836 q 156 814 156 815 l 36 814 q 45 862 36 829 q 75 928 54 894 q 130 986 96 961 q 213 1011 164 1011 q 269 1001 246 1011 q 313 978 293 990 q 353 955 333 965 q 397 944 372 944 q 435 955 421 944 q 458 978 450 965 q 467 1001 465 990 q 469 1014 469 1013 l 589 1014 q 579 971 589 1003 q 548 904 569 939 q 492 843 526 869 q 406 817 457 817 z "},"B":{"ha":950,"x_min":94,"x_max":910,"o":"m 910 253 q 883 142 910 189 q 811 63 857 94 q 704 16 765 32 q 575 0 643 0 l 94 0 l 94 986 l 643 986 q 736 964 694 986 q 807 906 778 942 q 852 826 836 871 q 868 733 868 781 q 833 600 868 663 q 726 506 797 538 q 860 417 811 481 q 910 253 910 353 m 678 299 q 651 376 678 344 q 585 408 625 408 l 322 408 l 322 193 l 575 193 q 649 222 619 193 q 678 299 678 251 m 322 792 l 322 588 l 546 588 q 613 613 583 588 q 642 690 642 638 q 616 765 642 739 q 554 792 590 792 l 322 792 z "},"C":{"ha":921,"x_min":38,"x_max":899,"o":"m 38 501 q 69 678 38 590 q 163 836 101 767 q 312 949 224 906 q 513 992 400 992 q 742 932 644 992 q 886 776 839 872 l 711 654 q 672 719 696 693 q 621 760 649 744 q 563 783 593 776 q 507 789 533 789 q 401 763 446 789 q 328 694 357 736 q 284 600 299 653 q 269 493 269 547 q 287 381 269 435 q 335 285 304 326 q 411 219 367 243 q 510 194 456 194 q 567 202 538 194 q 625 226 597 210 q 675 267 653 242 q 711 331 697 293 l 899 221 q 834 124 876 167 q 738 51 792 81 q 623 7 683 22 q 504 -8 563 -8 q 316 35 401 -8 q 169 151 231 79 q 72 315 107 224 q 38 501 38 407 z "},"Ć":{"ha":921,"x_min":38,"x_max":899,"o":"m 575 1051 l 433 1090 l 506 1271 l 707 1271 l 575 1051 m 38 501 q 69 678 38 590 q 163 836 101 767 q 312 949 224 906 q 513 992 400 992 q 742 932 644 992 q 886 776 839 872 l 711 654 q 672 719 696 693 q 621 760 649 744 q 563 783 593 776 q 507 789 533 789 q 401 763 446 789 q 328 694 357 736 q 284 600 299 653 q 269 493 269 547 q 287 381 269 435 q 335 285 304 326 q 411 219 367 243 q 510 194 456 194 q 567 202 538 194 q 625 226 597 210 q 675 267 653 242 q 711 331 697 293 l 899 221 q 834 124 876 167 q 738 51 792 81 q 623 7 683 22 q 504 -8 563 -8 q 316 35 401 -8 q 169 151 231 79 q 72 315 107 224 q 38 501 38 407 z "},"Č":{"ha":921,"x_min":38,"x_max":899,"o":"m 393 1271 l 511 1183 l 629 1271 l 743 1219 l 592 1071 l 432 1071 l 279 1219 l 393 1271 m 38 501 q 69 678 38 590 q 163 836 101 767 q 312 949 224 906 q 513 992 400 992 q 742 932 644 992 q 886 776 839 872 l 711 654 q 672 719 696 693 q 621 760 649 744 q 563 783 593 776 q 507 789 533 789 q 401 763 446 789 q 328 694 357 736 q 284 600 299 653 q 269 493 269 547 q 287 381 269 435 q 335 285 304 326 q 411 219 367 243 q 510 194 456 194 q 567 202 538 194 q 625 226 597 210 q 675 267 653 242 q 711 331 697 293 l 899 221 q 834 124 876 167 q 738 51 792 81 q 623 7 683 22 q 504 -8 563 -8 q 316 35 401 -8 q 169 151 231 79 q 72 315 107 224 q 38 501 38 407 z "},"ˇ":{"ha":533,"x_min":35,"x_max":499,"o":"m 149 1014 l 267 926 l 385 1014 l 499 963 l 347 814 l 188 814 l 35 963 l 149 1014 z "},"Ç":{"ha":922,"x_min":39,"x_max":900,"o":"m 393 -176 q 444 -195 408 -186 q 518 -204 481 -204 q 574 -194 551 -204 q 596 -160 596 -185 q 575 -126 596 -136 q 521 -115 554 -115 q 459 -121 492 -115 q 411 -131 426 -126 l 472 -7 q 297 47 376 0 q 160 164 217 93 q 71 322 103 235 q 39 501 39 410 q 71 678 39 590 q 164 836 103 767 q 313 949 225 906 q 514 992 401 992 q 743 932 646 992 q 888 776 840 872 l 713 654 q 674 719 697 693 q 622 760 650 744 q 565 783 594 776 q 508 789 535 789 q 403 763 447 789 q 329 694 358 736 q 285 600 300 653 q 271 493 271 547 q 288 381 271 435 q 337 285 306 326 q 413 219 368 243 q 511 194 457 194 q 569 202 539 194 q 626 226 599 210 q 676 267 654 242 q 713 331 699 293 l 900 221 q 845 134 881 172 q 765 67 810 96 q 667 19 719 38 q 564 -4 615 1 l 531 -53 q 572 -49 549 -49 q 660 -73 622 -49 q 697 -151 697 -97 q 650 -245 697 -207 q 503 -283 603 -283 q 417 -274 454 -283 q 351 -254 379 -265 l 393 -176 z "},"¸":{"ha":476,"x_min":29,"x_max":375,"o":"m 71 -176 q 122 -195 86 -186 q 196 -204 158 -204 q 251 -194 229 -204 q 274 -160 274 -185 q 253 -126 274 -136 q 199 -115 232 -115 q 137 -121 169 -115 q 89 -131 104 -126 l 175 44 l 258 19 l 208 -53 q 250 -49 226 -49 q 338 -73 300 -49 q 375 -151 375 -97 q 328 -245 375 -207 q 181 -283 281 -283 q 94 -274 132 -283 q 29 -254 57 -265 l 71 -176 z "},"Ĉ":{"ha":921,"x_min":38,"x_max":899,"o":"m 279 1121 l 432 1271 l 592 1271 l 743 1121 l 629 1071 l 511 1158 l 393 1071 l 279 1121 m 38 501 q 69 678 38 590 q 163 836 101 767 q 312 949 224 906 q 513 992 400 992 q 742 932 644 992 q 886 776 839 872 l 711 654 q 672 719 696 693 q 621 760 649 744 q 563 783 593 776 q 507 789 533 789 q 401 763 446 789 q 328 694 357 736 q 284 600 299 653 q 269 493 269 547 q 287 381 269 435 q 335 285 304 326 q 411 219 367 243 q 510 194 456 194 q 567 202 538 194 q 625 226 597 210 q 675 267 653 242 q 711 331 697 293 l 899 221 q 834 124 876 167 q 738 51 792 81 q 623 7 683 22 q 504 -8 563 -8 q 316 35 401 -8 q 169 151 231 79 q 72 315 107 224 q 38 501 38 407 z "},"Ċ":{"ha":921,"x_min":38,"x_max":899,"o":"m 38 501 q 69 678 38 590 q 163 836 101 767 q 312 949 224 906 q 513 992 400 992 q 742 932 644 992 q 886 776 839 872 l 711 654 q 672 719 696 693 q 621 760 649 744 q 563 783 593 776 q 507 789 533 789 q 401 763 446 789 q 328 694 357 736 q 284 600 299 653 q 269 493 269 547 q 287 381 269 435 q 335 285 304 326 q 411 219 367 243 q 510 194 456 194 q 567 202 538 194 q 625 226 597 210 q 675 267 653 242 q 711 331 697 293 l 899 221 q 834 124 876 167 q 738 51 792 81 q 623 7 683 22 q 504 -8 563 -8 q 316 35 401 -8 q 169 151 231 79 q 72 315 107 224 q 38 501 38 407 m 413 1081 l 413 1271 l 613 1271 l 613 1081 l 413 1081 z "},"˙":{"ha":339,"x_min":69,"x_max":269,"o":"m 69 824 l 69 1014 l 269 1014 l 269 824 l 69 824 z "},"D":{"ha":996,"x_min":94,"x_max":954,"o":"m 94 0 l 94 986 l 463 986 q 676 947 585 986 q 830 842 768 908 q 923 685 892 775 q 954 494 954 596 q 919 291 954 382 q 820 135 885 200 q 665 35 756 71 q 463 0 574 0 l 94 0 m 722 494 q 705 613 722 560 q 654 706 688 667 q 572 765 621 744 q 463 786 524 786 l 322 786 l 322 200 l 463 200 q 574 222 525 200 q 655 284 622 244 q 705 377 688 324 q 722 494 722 431 z "},"Ď":{"ha":996,"x_min":94,"x_max":954,"o":"m 332 1271 l 450 1183 l 568 1271 l 682 1219 l 531 1071 l 371 1071 l 218 1219 l 332 1271 m 94 0 l 94 986 l 463 986 q 676 947 585 986 q 830 842 768 908 q 923 685 892 775 q 954 494 954 596 q 919 291 954 382 q 820 135 885 200 q 665 35 756 71 q 463 0 574 0 l 94 0 m 722 494 q 705 613 722 560 q 654 706 688 667 q 572 765 621 744 q 463 786 524 786 l 322 786 l 322 200 l 463 200 q 574 222 525 200 q 655 284 622 244 q 705 377 688 324 q 722 494 722 431 z "},"Đ":{"ha":1003,"x_min":40,"x_max":960,"o":"m 100 0 l 100 414 l 40 414 l 40 578 l 100 578 l 100 986 l 468 986 q 682 947 590 986 q 835 842 774 908 q 928 685 897 775 q 960 494 960 596 q 925 291 960 382 q 826 135 890 200 q 670 35 761 71 q 468 0 579 0 l 100 0 m 728 494 q 710 613 728 560 q 660 706 693 667 q 578 765 626 744 q 468 786 529 786 l 328 786 l 328 578 l 506 578 l 506 414 l 328 414 l 328 200 l 468 200 q 579 222 531 200 q 660 284 628 244 q 710 377 693 324 q 728 494 728 431 z "},"E":{"ha":835,"x_min":94,"x_max":788,"o":"m 788 200 l 788 0 l 94 0 l 94 986 l 775 986 l 775 786 l 322 786 l 322 594 l 711 594 l 711 410 l 322 410 l 322 200 l 788 200 z "},"É":{"ha":835,"x_min":94,"x_max":788,"o":"m 510 1051 l 368 1090 l 440 1271 l 642 1271 l 510 1051 m 788 200 l 788 0 l 94 0 l 94 986 l 775 986 l 775 786 l 322 786 l 322 594 l 711 594 l 711 410 l 322 410 l 322 200 l 788 200 z "},"Ĕ":{"ha":835,"x_min":94,"x_max":788,"o":"m 788 200 l 788 0 l 94 0 l 94 986 l 775 986 l 775 786 l 322 786 l 322 594 l 711 594 l 711 410 l 322 410 l 322 200 l 788 200 m 446 1164 q 502 1194 478 1164 q 531 1271 526 1224 l 646 1271 q 631 1189 646 1226 q 590 1124 617 1151 q 527 1082 564 1097 q 446 1067 490 1067 q 365 1082 401 1067 q 302 1124 329 1097 q 260 1189 275 1151 q 246 1271 246 1226 l 364 1271 q 388 1195 364 1226 q 446 1164 413 1164 z "},"Ě":{"ha":835,"x_min":94,"x_max":788,"o":"m 328 1271 l 446 1183 l 564 1271 l 678 1219 l 526 1071 l 367 1071 l 214 1219 l 328 1271 m 788 200 l 788 0 l 94 0 l 94 986 l 775 986 l 775 786 l 322 786 l 322 594 l 711 594 l 711 410 l 322 410 l 322 200 l 788 200 z "},"Ê":{"ha":835,"x_min":94,"x_max":788,"o":"m 214 1121 l 367 1271 l 526 1271 l 678 1121 l 564 1071 l 446 1158 l 328 1071 l 214 1121 m 788 200 l 788 0 l 94 0 l 94 986 l 775 986 l 775 786 l 322 786 l 322 594 l 711 594 l 711 410 l 322 410 l 322 200 l 788 200 z "},"Ë":{"ha":835,"x_min":94,"x_max":788,"o":"m 208 1082 l 208 1261 l 392 1261 l 392 1082 l 208 1082 m 500 1082 l 500 1261 l 683 1261 l 683 1082 l 500 1082 m 788 200 l 788 0 l 94 0 l 94 986 l 775 986 l 775 786 l 322 786 l 322 594 l 711 594 l 711 410 l 322 410 l 322 200 l 788 200 z "},"Ė":{"ha":835,"x_min":94,"x_max":788,"o":"m 788 200 l 788 0 l 94 0 l 94 986 l 775 986 l 775 786 l 322 786 l 322 594 l 711 594 l 711 410 l 322 410 l 322 200 l 788 200 m 347 1081 l 347 1271 l 547 1271 l 547 1081 l 347 1081 z "},"È":{"ha":835,"x_min":94,"x_max":788,"o":"m 788 200 l 788 0 l 94 0 l 94 986 l 775 986 l 775 786 l 322 786 l 322 594 l 711 594 l 711 410 l 322 410 l 322 200 l 788 200 m 250 1272 l 451 1272 l 524 1092 l 383 1053 l 250 1272 z "},"Ē":{"ha":835,"x_min":94,"x_max":788,"o":"m 788 200 l 788 0 l 94 0 l 94 986 l 775 986 l 775 786 l 322 786 l 322 594 l 711 594 l 711 410 l 322 410 l 322 200 l 788 200 m 236 1119 l 236 1254 l 658 1254 l 658 1119 l 236 1119 z "},"Ŋ":{"ha":1031,"x_min":94,"x_max":936,"o":"m 322 557 l 322 0 l 94 0 l 94 986 l 269 986 l 708 418 l 708 985 l 936 985 l 936 -3 q 915 -117 936 -65 q 858 -205 894 -168 q 772 -261 821 -242 q 668 -281 724 -281 q 564 -263 614 -281 q 474 -211 514 -246 l 567 -60 q 600 -82 581 -75 q 640 -89 619 -89 q 693 -68 672 -89 q 714 -12 714 -47 l 714 49 l 322 557 z "},"Ę":{"ha":835,"x_min":94,"x_max":788,"o":"m 788 200 l 788 0 l 494 0 q 410 -63 438 -32 q 383 -122 383 -94 q 406 -160 383 -146 q 474 -176 428 -175 l 431 -283 q 307 -236 347 -272 q 267 -154 267 -200 q 295 -75 267 -114 q 382 0 324 -36 l 94 0 l 94 986 l 775 986 l 775 786 l 322 786 l 322 594 l 711 594 l 711 410 l 322 410 l 322 200 l 788 200 z "},"Ð":{"ha":1003,"x_min":40,"x_max":960,"o":"m 100 0 l 100 414 l 40 414 l 40 578 l 100 578 l 100 986 l 468 986 q 682 947 590 986 q 835 842 774 908 q 928 685 897 775 q 960 494 960 596 q 925 291 960 382 q 826 135 890 200 q 670 35 761 71 q 468 0 579 0 l 100 0 m 728 494 q 710 613 728 560 q 660 706 693 667 q 578 765 626 744 q 468 786 529 786 l 328 786 l 328 578 l 506 578 l 506 414 l 328 414 l 328 200 l 468 200 q 579 222 531 200 q 660 284 628 244 q 710 377 693 324 q 728 494 728 431 z "},"Ẽ":{"ha":835,"x_min":94,"x_max":788,"o":"m 788 200 l 788 0 l 94 0 l 94 986 l 775 986 l 775 786 l 322 786 l 322 594 l 711 594 l 711 410 l 322 410 l 322 200 l 788 200 m 535 1074 q 478 1083 503 1074 q 433 1106 454 1093 q 393 1128 413 1118 q 350 1138 374 1138 q 314 1128 326 1138 q 294 1106 301 1118 q 286 1083 288 1093 q 285 1071 285 1072 l 165 1071 q 174 1119 165 1086 q 204 1185 183 1151 q 259 1243 225 1218 q 342 1268 293 1268 q 399 1258 375 1268 q 442 1235 422 1247 q 482 1212 463 1222 q 526 1201 501 1201 q 565 1212 550 1201 q 587 1235 579 1222 q 597 1258 594 1247 q 599 1271 599 1269 l 718 1271 q 708 1228 718 1260 q 677 1161 699 1196 q 621 1100 656 1126 q 535 1074 586 1074 z "},"€":{"ha":1071,"x_min":47,"x_max":1014,"o":"m 167 618 q 222 760 183 692 q 320 879 261 828 q 456 961 379 931 q 628 992 533 992 q 857 932 760 992 q 1001 776 954 872 l 826 654 q 788 719 811 693 q 736 760 764 744 q 678 783 708 776 q 622 789 649 789 q 482 739 536 789 q 404 618 428 689 l 719 618 l 671 499 l 385 499 q 389 432 385 461 l 678 432 l 629 313 l 432 313 q 513 227 464 260 q 625 194 561 194 q 683 202 653 194 q 740 226 713 210 q 790 267 768 242 q 826 331 813 293 l 1014 221 q 949 124 992 167 q 853 51 907 81 q 738 7 799 22 q 619 -8 678 -8 q 476 17 543 -8 q 353 85 408 42 q 256 188 297 129 q 189 313 214 246 l 47 313 l 96 432 l 157 432 q 153 499 153 465 l 57 499 l 106 618 l 167 618 z "},"F":{"ha":785,"x_min":94,"x_max":764,"o":"m 94 0 l 94 986 l 764 986 l 764 786 l 322 786 l 322 574 l 686 574 l 686 389 l 322 389 l 322 0 l 94 0 z "},"G":{"ha":979,"x_min":39,"x_max":922,"o":"m 733 96 q 622 18 681 43 q 493 -7 563 -7 q 317 35 400 -7 q 173 146 235 76 q 75 308 111 215 q 39 500 39 400 q 75 692 39 601 q 175 849 111 782 q 325 954 239 915 q 511 993 411 993 q 740 935 642 993 q 888 778 839 878 l 717 650 q 628 753 686 717 q 504 790 571 790 q 409 767 451 790 q 335 703 367 744 q 288 608 304 663 q 271 492 271 554 q 289 374 271 428 q 339 280 307 319 q 415 218 371 240 q 513 196 460 196 q 629 226 574 196 q 733 317 685 256 l 733 350 l 543 350 l 543 515 l 922 515 l 922 0 l 733 0 l 733 96 z "},"Ğ":{"ha":979,"x_min":39,"x_max":922,"o":"m 733 96 q 622 18 681 43 q 493 -7 563 -7 q 317 35 400 -7 q 173 146 235 76 q 75 308 111 215 q 39 500 39 400 q 75 692 39 601 q 175 849 111 782 q 325 954 239 915 q 511 993 411 993 q 740 935 642 993 q 888 778 839 878 l 717 650 q 628 753 686 717 q 504 790 571 790 q 409 767 451 790 q 335 703 367 744 q 288 608 304 663 q 271 492 271 554 q 289 374 271 428 q 339 280 307 319 q 415 218 371 240 q 513 196 460 196 q 629 226 574 196 q 733 317 685 256 l 733 350 l 543 350 l 543 515 l 922 515 l 922 0 l 733 0 l 733 96 m 510 1164 q 566 1194 542 1164 q 594 1271 590 1224 l 710 1271 q 695 1189 710 1226 q 654 1124 681 1151 q 591 1082 628 1097 q 510 1067 554 1067 q 429 1082 465 1067 q 366 1124 393 1097 q 324 1189 339 1151 q 310 1271 310 1226 l 428 1271 q 452 1195 428 1226 q 510 1164 476 1164 z "},"Ĝ":{"ha":979,"x_min":39,"x_max":922,"o":"m 278 1121 l 431 1271 l 590 1271 l 742 1121 l 628 1071 l 510 1158 l 392 1071 l 278 1121 m 733 96 q 622 18 681 43 q 493 -7 563 -7 q 317 35 400 -7 q 173 146 235 76 q 75 308 111 215 q 39 500 39 400 q 75 692 39 601 q 175 849 111 782 q 325 954 239 915 q 511 993 411 993 q 740 935 642 993 q 888 778 839 878 l 717 650 q 628 753 686 717 q 504 790 571 790 q 409 767 451 790 q 335 703 367 744 q 288 608 304 663 q 271 492 271 554 q 289 374 271 428 q 339 280 307 319 q 415 218 371 240 q 513 196 460 196 q 629 226 574 196 q 733 317 685 256 l 733 350 l 543 350 l 543 515 l 922 515 l 922 0 l 733 0 l 733 96 z "},"Ģ":{"ha":979,"x_min":39,"x_max":922,"o":"m 363 -192 q 415 -154 415 -192 l 415 -65 l 596 -65 l 596 -162 q 578 -226 596 -203 q 528 -260 560 -249 q 455 -276 497 -272 q 363 -279 413 -279 l 363 -192 m 733 96 q 622 18 681 43 q 493 -7 563 -7 q 317 35 400 -7 q 173 146 235 76 q 75 308 111 215 q 39 500 39 400 q 75 692 39 601 q 175 849 111 782 q 325 954 239 915 q 511 993 411 993 q 740 935 642 993 q 888 778 839 878 l 717 650 q 628 753 686 717 q 504 790 571 790 q 409 767 451 790 q 335 703 367 744 q 288 608 304 663 q 271 492 271 554 q 289 374 271 428 q 339 280 307 319 q 415 218 371 240 q 513 196 460 196 q 629 226 574 196 q 733 317 685 256 l 733 350 l 543 350 l 543 515 l 922 515 l 922 0 l 733 0 l 733 96 z "},"":{"ha":306,"x_min":39,"x_max":272,"o":"m 39 -192 q 92 -154 92 -192 l 92 -65 l 272 -65 l 272 -162 q 254 -226 272 -203 q 205 -260 236 -249 q 131 -276 174 -272 q 39 -279 89 -279 l 39 -192 z "},"Ġ":{"ha":979,"x_min":39,"x_max":922,"o":"m 733 96 q 622 18 681 43 q 493 -7 563 -7 q 317 35 400 -7 q 173 146 235 76 q 75 308 111 215 q 39 500 39 400 q 75 692 39 601 q 175 849 111 782 q 325 954 239 915 q 511 993 411 993 q 740 935 642 993 q 888 778 839 878 l 717 650 q 628 753 686 717 q 504 790 571 790 q 409 767 451 790 q 335 703 367 744 q 288 608 304 663 q 271 492 271 554 q 289 374 271 428 q 339 280 307 319 q 415 218 371 240 q 513 196 460 196 q 629 226 574 196 q 733 317 685 256 l 733 350 l 543 350 l 543 515 l 922 515 l 922 0 l 733 0 l 733 96 m 411 1081 l 411 1271 l 611 1271 l 611 1081 l 411 1081 z "},"H":{"ha":1038,"x_min":94,"x_max":943,"o":"m 943 986 l 943 0 l 715 0 l 715 404 l 322 404 l 322 0 l 94 0 l 94 986 l 322 986 l 322 604 l 715 604 l 715 986 l 943 986 z "},"Ħ":{"ha":1047,"x_min":29,"x_max":1018,"o":"m 947 986 l 947 857 l 1018 857 l 1018 751 l 947 751 l 947 0 l 719 0 l 719 404 l 326 404 l 326 0 l 99 0 l 99 751 l 29 751 l 29 857 l 99 857 l 99 986 l 326 986 l 326 857 l 719 857 l 719 986 l 947 986 m 719 604 l 719 751 l 326 751 l 326 604 l 719 604 z "},"Ĥ":{"ha":1038,"x_min":94,"x_max":943,"o":"m 290 1119 l 443 1269 l 603 1269 l 754 1119 l 640 1069 l 522 1157 l 404 1069 l 290 1119 m 943 986 l 943 0 l 715 0 l 715 404 l 322 404 l 322 0 l 94 0 l 94 986 l 322 986 l 322 604 l 715 604 l 715 986 l 943 986 z "},"I":{"ha":417,"x_min":94,"x_max":322,"o":"m 94 0 l 94 986 l 322 986 l 322 0 l 94 0 z "},"Ĳ":{"ha":1108,"x_min":94,"x_max":1025,"o":"m 94 0 l 94 986 l 322 986 l 322 0 l 94 0 m 478 232 q 537 204 492 221 q 642 188 582 188 q 724 205 693 188 q 771 258 754 222 q 792 351 788 294 q 797 485 797 407 l 797 986 l 1025 986 l 1025 485 q 1013 280 1025 372 q 962 122 1001 188 q 846 21 922 57 q 642 -15 769 -15 q 428 46 517 -15 l 478 232 z "},"J":{"ha":692,"x_min":11,"x_max":608,"o":"m 61 232 q 120 204 75 221 q 225 188 165 188 q 307 205 276 188 q 354 258 338 222 q 376 351 371 294 q 381 485 381 407 l 381 986 l 608 986 l 608 485 q 597 280 608 372 q 545 122 585 188 q 429 21 506 57 q 225 -15 353 -15 q 11 46 100 -15 l 61 232 z "},"Í":{"ha":417,"x_min":94,"x_max":403,"o":"m 94 0 l 94 986 l 322 986 l 322 0 l 94 0 m 271 1051 l 129 1090 l 201 1271 l 403 1271 l 271 1051 z "},"Ĭ":{"ha":417,"x_min":7,"x_max":407,"o":"m 94 0 l 94 986 l 322 986 l 322 0 l 94 0 m 207 1164 q 263 1194 239 1164 q 292 1271 288 1224 l 407 1271 q 392 1189 407 1226 q 351 1124 378 1151 q 288 1082 325 1097 q 207 1067 251 1067 q 126 1082 163 1067 q 63 1124 90 1097 q 22 1189 36 1151 q 7 1271 7 1226 l 125 1271 q 149 1195 125 1226 q 207 1164 174 1164 z "},"Î":{"ha":417,"x_min":-24,"x_max":440,"o":"m 94 0 l 94 986 l 322 986 l 322 0 l 94 0 m -24 1121 l 129 1271 l 289 1271 l 440 1121 l 326 1071 l 208 1158 l 90 1071 l -24 1121 z "},"Ï":{"ha":417,"x_min":-29,"x_max":446,"o":"m 94 0 l 94 986 l 322 986 l 322 0 l 94 0 m -29 1082 l -29 1261 l 154 1261 l 154 1082 l -29 1082 m 263 1082 l 263 1261 l 446 1261 l 446 1082 l 263 1082 z "},"İ":{"ha":417,"x_min":94,"x_max":322,"o":"m 94 0 l 94 986 l 322 986 l 322 0 l 94 0 m 108 1081 l 108 1271 l 308 1271 l 308 1081 l 108 1081 z "},"Ì":{"ha":417,"x_min":11,"x_max":322,"o":"m 94 0 l 94 986 l 322 986 l 322 0 l 94 0 m 11 1272 l 213 1272 l 285 1092 l 144 1053 l 11 1272 z "},"Ī":{"ha":417,"x_min":-1,"x_max":421,"o":"m 94 0 l 94 986 l 322 986 l 322 0 l 94 0 m -1 1119 l -1 1254 l 421 1254 l 421 1119 l -1 1119 z "},"Į":{"ha":417,"x_min":92,"x_max":322,"o":"m 256 -285 q 132 -237 172 -274 q 92 -156 92 -201 q 121 -76 92 -115 q 208 0 150 -36 l 94 0 l 94 986 l 322 986 l 322 0 q 208 -124 208 -67 q 231 -162 208 -147 q 299 -178 253 -176 l 256 -285 l 256 -285 z "},"Ĩ":{"ha":417,"x_min":-74,"x_max":479,"o":"m 94 0 l 94 986 l 322 986 l 322 0 l 94 0 m 296 1074 q 240 1083 264 1074 q 194 1106 215 1093 q 154 1128 174 1118 q 111 1138 135 1138 q 75 1128 88 1138 q 56 1106 63 1118 q 47 1083 49 1093 q 46 1071 46 1072 l -74 1071 q -65 1119 -74 1086 q -35 1185 -56 1151 q 20 1243 -14 1218 q 103 1268 54 1268 q 160 1258 136 1268 q 203 1235 183 1247 q 243 1212 224 1222 q 288 1201 263 1201 q 326 1212 311 1201 q 348 1235 340 1222 q 358 1258 356 1247 q 360 1271 360 1269 l 479 1271 q 469 1228 479 1260 q 438 1161 460 1196 q 382 1100 417 1126 q 296 1074 347 1074 z "},"Ĵ":{"ha":692,"x_min":11,"x_max":729,"o":"m 265 1121 l 418 1271 l 578 1271 l 729 1121 l 615 1071 l 497 1158 l 379 1071 l 265 1121 m 61 232 q 120 204 75 221 q 225 188 165 188 q 307 205 276 188 q 354 258 338 222 q 376 351 371 294 q 381 485 381 407 l 381 986 l 608 986 l 608 485 q 597 280 608 372 q 545 122 585 188 q 429 21 506 57 q 225 -15 353 -15 q 11 46 100 -15 l 61 232 z "},"K":{"ha":940,"x_min":94,"x_max":964,"o":"m 94 0 l 94 986 l 322 986 l 322 542 l 703 986 l 939 986 l 569 546 l 964 0 l 724 0 l 435 418 l 322 296 l 322 0 l 94 0 z "},"Ķ":{"ha":940,"x_min":94,"x_max":964,"o":"m 356 -192 q 408 -154 408 -192 l 408 -65 l 589 -65 l 589 -162 q 571 -226 589 -203 q 522 -260 553 -249 q 448 -276 490 -272 q 356 -279 406 -279 l 356 -192 m 94 0 l 94 986 l 322 986 l 322 542 l 703 986 l 939 986 l 569 546 l 964 0 l 724 0 l 435 418 l 322 296 l 322 0 l 94 0 z "},"L":{"ha":818,"x_min":94,"x_max":800,"o":"m 94 0 l 94 986 l 322 986 l 322 200 l 800 200 l 800 0 l 94 0 z "},"Ĺ":{"ha":818,"x_min":94,"x_max":800,"o":"m 569 1051 l 428 1090 l 500 1271 l 701 1271 l 569 1051 m 94 0 l 94 986 l 322 986 l 322 200 l 800 200 l 800 0 l 94 0 z "},"Ľ":{"ha":818,"x_min":94,"x_max":800,"o":"m 590 793 l 449 832 l 521 1013 l 722 1013 l 590 793 m 94 0 l 94 986 l 322 986 l 322 200 l 800 200 l 800 0 l 94 0 z "},"Ļ":{"ha":818,"x_min":94,"x_max":800,"o":"m 322 -192 q 375 -154 375 -192 l 375 -65 l 556 -65 l 556 -162 q 538 -226 556 -203 q 488 -260 519 -249 q 415 -276 457 -272 q 322 -279 372 -279 l 322 -192 m 94 0 l 94 986 l 322 986 l 322 200 l 800 200 l 800 0 l 94 0 z "},"Ŀ":{"ha":818,"x_min":94,"x_max":800,"o":"m 94 0 l 94 986 l 322 986 l 322 200 l 800 200 l 800 0 l 94 0 m 507 451 l 507 682 l 688 682 l 688 451 l 507 451 z "},"·":{"ha":331,"x_min":75,"x_max":256,"o":"m 75 333 l 75 564 l 256 564 l 256 333 l 75 333 z "},"Ł":{"ha":832,"x_min":-12,"x_max":815,"o":"m 110 0 l 110 381 l 40 342 l -12 461 l 110 529 l 110 986 l 338 986 l 338 658 l 465 731 l 518 611 l 338 508 l 338 200 l 815 200 l 815 0 l 110 0 z "},"M":{"ha":1194,"x_min":94,"x_max":1100,"o":"m 872 0 l 872 590 l 658 161 l 536 161 l 322 590 l 322 0 l 94 0 l 94 986 l 342 986 l 597 471 l 854 986 l 1100 986 l 1100 0 l 872 0 z "},"N":{"ha":1054,"x_min":94,"x_max":960,"o":"m 322 564 l 322 0 l 94 0 l 94 986 l 272 986 l 732 407 l 732 986 l 960 986 l 960 0 l 776 0 l 322 564 z "},"A":{"ha":935,"x_min":-3,"x_max":939,"o":"m -3 0 l 376 986 l 561 986 l 939 0 l 697 0 l 621 221 l 314 221 l 239 0 l -3 0 m 468 744 l 350 378 l 582 378 l 468 744 z "},"Ń":{"ha":1054,"x_min":94,"x_max":960,"o":"m 589 1050 l 447 1089 l 519 1269 l 721 1269 l 589 1050 m 322 564 l 322 0 l 94 0 l 94 986 l 272 986 l 732 407 l 732 986 l 960 986 l 960 0 l 776 0 l 322 564 z "},"Ň":{"ha":1054,"x_min":94,"x_max":960,"o":"m 407 1269 l 525 1182 l 643 1269 l 757 1218 l 606 1069 l 446 1069 l 293 1218 l 407 1269 m 322 564 l 322 0 l 94 0 l 94 986 l 272 986 l 732 407 l 732 986 l 960 986 l 960 0 l 776 0 l 322 564 z "},"Ņ":{"ha":1054,"x_min":94,"x_max":960,"o":"m 379 -192 q 432 -154 432 -192 l 432 -65 l 613 -65 l 613 -162 q 594 -226 613 -203 q 545 -260 576 -249 q 472 -276 514 -272 q 379 -279 429 -279 l 379 -192 m 322 564 l 322 0 l 94 0 l 94 986 l 272 986 l 732 407 l 732 986 l 960 986 l 960 0 l 776 0 l 322 564 z "},"Ṅ":{"ha":1054,"x_min":94,"x_max":960,"o":"m 425 1079 l 425 1269 l 625 1269 l 625 1079 l 425 1079 m 322 564 l 322 0 l 94 0 l 94 986 l 272 986 l 732 407 l 732 986 l 960 986 l 960 0 l 776 0 l 322 564 z "},"Ñ":{"ha":1054,"x_min":94,"x_max":960,"o":"m 322 564 l 322 0 l 94 0 l 94 986 l 272 986 l 732 407 l 732 986 l 960 986 l 960 0 l 776 0 l 322 564 m 613 1072 q 556 1082 581 1072 q 511 1104 532 1092 q 471 1126 490 1117 q 428 1136 451 1136 q 392 1126 404 1136 q 372 1104 379 1117 q 364 1081 365 1092 q 363 1069 363 1071 l 243 1069 q 252 1117 243 1085 q 282 1183 261 1150 q 337 1242 303 1217 q 419 1267 371 1267 q 476 1256 453 1267 q 520 1233 500 1246 q 560 1210 540 1221 q 604 1200 579 1200 q 642 1210 628 1200 q 665 1233 657 1221 q 674 1257 672 1246 q 676 1269 676 1268 l 796 1269 q 786 1226 796 1258 q 755 1160 776 1194 q 699 1099 733 1125 q 613 1072 664 1072 z "},"O":{"ha":1019,"x_min":39,"x_max":981,"o":"m 508 -8 q 317 35 403 -8 q 169 148 231 78 q 73 308 107 218 q 39 494 39 399 q 74 682 39 592 q 173 841 110 772 q 323 951 236 910 q 513 992 410 992 q 704 949 618 992 q 852 835 790 906 q 947 674 914 764 q 981 490 981 583 q 945 303 981 393 q 847 144 910 213 q 698 33 785 75 q 508 -8 611 -8 m 271 492 q 287 381 271 435 q 333 286 303 328 q 408 219 363 244 q 511 194 453 194 q 615 221 571 194 q 690 290 660 247 q 734 385 719 332 q 749 494 749 439 q 733 605 749 551 q 686 699 717 658 q 611 765 656 740 q 510 789 567 789 q 406 763 450 789 q 331 696 361 738 q 286 601 301 654 q 271 492 271 547 z "},"Œ":{"ha":1475,"x_min":39,"x_max":1429,"o":"m 1429 200 l 1429 0 l 758 0 l 758 104 q 647 24 711 56 q 508 -7 583 -7 q 317 35 403 -7 q 169 148 231 78 q 73 308 107 218 q 39 494 39 399 q 74 682 39 592 q 173 842 110 772 q 323 952 236 911 q 513 993 410 993 q 650 963 588 993 q 758 883 713 932 l 758 986 l 1417 986 l 1417 786 l 988 786 l 988 601 l 1342 601 l 1342 403 l 988 403 l 988 200 l 1429 200 m 511 196 q 615 222 571 196 q 690 290 660 247 q 734 385 719 332 q 749 494 749 439 q 733 605 749 551 q 686 699 717 658 q 611 765 656 740 q 510 790 567 790 q 406 765 450 790 q 331 697 361 739 q 286 601 301 654 q 271 492 271 547 q 287 381 271 435 q 333 287 303 328 q 408 221 363 246 q 511 196 453 196 z "},"Ó":{"ha":1019,"x_min":39,"x_max":981,"o":"m 576 1051 l 435 1090 l 507 1271 l 708 1271 l 576 1051 m 508 -8 q 317 35 403 -8 q 169 148 231 78 q 73 308 107 218 q 39 494 39 399 q 74 682 39 592 q 173 841 110 772 q 323 951 236 910 q 513 992 410 992 q 704 949 618 992 q 852 835 790 906 q 947 674 914 764 q 981 490 981 583 q 945 303 981 393 q 847 144 910 213 q 698 33 785 75 q 508 -8 611 -8 m 271 492 q 287 381 271 435 q 333 286 303 328 q 408 219 363 244 q 511 194 453 194 q 615 221 571 194 q 690 290 660 247 q 734 385 719 332 q 749 494 749 439 q 733 605 749 551 q 686 699 717 658 q 611 765 656 740 q 510 789 567 789 q 406 763 450 789 q 331 696 361 738 q 286 601 301 654 q 271 492 271 547 z "},"Ŏ":{"ha":1019,"x_min":39,"x_max":981,"o":"m 508 -8 q 317 35 403 -8 q 169 148 231 78 q 73 308 107 218 q 39 494 39 399 q 74 682 39 592 q 173 841 110 772 q 323 951 236 910 q 513 992 410 992 q 704 949 618 992 q 852 835 790 906 q 947 674 914 764 q 981 490 981 583 q 945 303 981 393 q 847 144 910 213 q 698 33 785 75 q 508 -8 611 -8 m 271 492 q 287 381 271 435 q 333 286 303 328 q 408 219 363 244 q 511 194 453 194 q 615 221 571 194 q 690 290 660 247 q 734 385 719 332 q 749 494 749 439 q 733 605 749 551 q 686 699 717 658 q 611 765 656 740 q 510 789 567 789 q 406 763 450 789 q 331 696 361 738 q 286 601 301 654 q 271 492 271 547 m 513 1164 q 569 1194 544 1164 q 597 1271 593 1224 l 713 1271 q 698 1189 713 1226 q 657 1124 683 1151 q 594 1082 631 1097 q 513 1067 557 1067 q 432 1082 468 1067 q 369 1124 396 1097 q 327 1189 342 1151 q 313 1271 313 1226 l 431 1271 q 455 1195 431 1226 q 513 1164 479 1164 z "},"Ô":{"ha":1019,"x_min":39,"x_max":981,"o":"m 281 1121 l 433 1271 l 593 1271 l 744 1121 l 631 1071 l 513 1158 l 394 1071 l 281 1121 m 508 -8 q 317 35 403 -8 q 169 148 231 78 q 73 308 107 218 q 39 494 39 399 q 74 682 39 592 q 173 841 110 772 q 323 951 236 910 q 513 992 410 992 q 704 949 618 992 q 852 835 790 906 q 947 674 914 764 q 981 490 981 583 q 945 303 981 393 q 847 144 910 213 q 698 33 785 75 q 508 -8 611 -8 m 271 492 q 287 381 271 435 q 333 286 303 328 q 408 219 363 244 q 511 194 453 194 q 615 221 571 194 q 690 290 660 247 q 734 385 719 332 q 749 494 749 439 q 733 605 749 551 q 686 699 717 658 q 611 765 656 740 q 510 789 567 789 q 406 763 450 789 q 331 696 361 738 q 286 601 301 654 q 271 492 271 547 z "},"Ö":{"ha":1019,"x_min":39,"x_max":981,"o":"m 275 1082 l 275 1261 l 458 1261 l 458 1082 l 275 1082 m 567 1082 l 567 1261 l 750 1261 l 750 1082 l 567 1082 m 508 -8 q 317 35 403 -8 q 169 148 231 78 q 73 308 107 218 q 39 494 39 399 q 74 682 39 592 q 173 841 110 772 q 323 951 236 910 q 513 992 410 992 q 704 949 618 992 q 852 835 790 906 q 947 674 914 764 q 981 490 981 583 q 945 303 981 393 q 847 144 910 213 q 698 33 785 75 q 508 -8 611 -8 m 271 492 q 287 381 271 435 q 333 286 303 328 q 408 219 363 244 q 511 194 453 194 q 615 221 571 194 q 690 290 660 247 q 734 385 719 332 q 749 494 749 439 q 733 605 749 551 q 686 699 717 658 q 611 765 656 740 q 510 789 567 789 q 406 763 450 789 q 331 696 361 738 q 286 601 301 654 q 271 492 271 547 z "},"Ò":{"ha":1019,"x_min":39,"x_max":981,"o":"m 508 -8 q 317 35 403 -8 q 169 148 231 78 q 73 308 107 218 q 39 494 39 399 q 74 682 39 592 q 173 841 110 772 q 323 951 236 910 q 513 992 410 992 q 704 949 618 992 q 852 835 790 906 q 947 674 914 764 q 981 490 981 583 q 945 303 981 393 q 847 144 910 213 q 698 33 785 75 q 508 -8 611 -8 m 271 492 q 287 381 271 435 q 333 286 303 328 q 408 219 363 244 q 511 194 453 194 q 615 221 571 194 q 690 290 660 247 q 734 385 719 332 q 749 494 749 439 q 733 605 749 551 q 686 699 717 658 q 611 765 656 740 q 510 789 567 789 q 406 763 450 789 q 331 696 361 738 q 286 601 301 654 q 271 492 271 547 m 317 1272 l 518 1272 l 590 1092 l 450 1053 l 317 1272 z "},"Ő":{"ha":1019,"x_min":39,"x_max":981,"o":"m 425 1053 l 318 1092 l 381 1272 l 547 1272 l 425 1053 m 668 1053 l 561 1092 l 622 1272 l 789 1272 l 668 1053 m 508 -8 q 317 35 403 -8 q 169 148 231 78 q 73 308 107 218 q 39 494 39 399 q 74 682 39 592 q 173 841 110 772 q 323 951 236 910 q 513 992 410 992 q 704 949 618 992 q 852 835 790 906 q 947 674 914 764 q 981 490 981 583 q 945 303 981 393 q 847 144 910 213 q 698 33 785 75 q 508 -8 611 -8 m 271 492 q 287 381 271 435 q 333 286 303 328 q 408 219 363 244 q 511 194 453 194 q 615 221 571 194 q 690 290 660 247 q 734 385 719 332 q 749 494 749 439 q 733 605 749 551 q 686 699 717 658 q 611 765 656 740 q 510 789 567 789 q 406 763 450 789 q 331 696 361 738 q 286 601 301 654 q 271 492 271 547 z "},"˝":{"ha":529,"x_min":40,"x_max":511,"o":"m 147 794 l 40 833 l 103 1014 l 269 1014 l 147 794 m 390 794 l 283 833 l 344 1014 l 511 1014 l 390 794 z "},"Ō":{"ha":1019,"x_min":39,"x_max":981,"o":"m 303 1119 l 303 1254 l 725 1254 l 725 1119 l 303 1119 m 508 -8 q 317 35 403 -8 q 169 148 231 78 q 73 308 107 218 q 39 494 39 399 q 74 682 39 592 q 173 841 110 772 q 323 951 236 910 q 513 992 410 992 q 704 949 618 992 q 852 835 790 906 q 947 674 914 764 q 981 490 981 583 q 945 303 981 393 q 847 144 910 213 q 698 33 785 75 q 508 -8 611 -8 m 271 492 q 287 381 271 435 q 333 286 303 328 q 408 219 363 244 q 511 194 453 194 q 615 221 571 194 q 690 290 660 247 q 734 385 719 332 q 749 494 749 439 q 733 605 749 551 q 686 699 717 658 q 611 765 656 740 q 510 789 567 789 q 406 763 450 789 q 331 696 361 738 q 286 601 301 654 q 271 492 271 547 z "},"Ǫ":{"ha":1019,"x_min":39,"x_max":981,"o":"m 492 -285 q 368 -237 408 -274 q 328 -156 328 -201 q 356 -78 328 -117 q 439 -3 383 -39 q 274 58 349 11 q 148 172 200 104 q 67 324 96 240 q 39 494 39 407 q 74 682 39 592 q 173 841 110 772 q 323 951 236 910 q 513 992 410 992 q 704 949 618 992 q 852 835 790 906 q 947 674 914 764 q 981 490 981 583 q 949 311 981 397 q 859 158 917 225 q 722 47 801 90 q 547 -6 642 3 q 444 -124 444 -69 q 467 -162 444 -147 q 535 -178 489 -176 l 492 -285 m 271 492 q 287 381 271 435 q 333 286 303 328 q 408 219 363 244 q 511 194 453 194 q 615 221 571 194 q 690 290 660 247 q 734 385 719 332 q 749 494 749 439 q 733 605 749 551 q 686 699 717 658 q 611 765 656 740 q 510 789 567 789 q 406 763 450 789 q 331 696 361 738 q 286 601 301 654 q 271 492 271 547 z "},"Ø":{"ha":1022,"x_min":38,"x_max":983,"o":"m 983 986 l 865 821 q 952 665 922 750 q 982 490 982 579 q 947 303 982 393 q 849 144 911 213 q 699 33 786 75 q 510 -8 613 -8 q 310 39 400 -8 l 282 0 l 38 0 l 154 165 q 70 319 100 235 q 40 494 40 404 q 76 682 40 592 q 174 841 111 772 q 324 951 238 910 q 514 992 411 992 q 617 980 568 992 q 710 946 665 968 l 738 986 l 983 986 m 750 494 q 726 625 750 563 l 431 210 q 513 194 469 194 q 617 221 572 194 q 691 290 661 247 q 735 385 721 332 q 750 494 750 439 m 272 492 q 294 361 272 419 l 588 775 q 551 785 569 782 q 511 789 532 789 q 407 763 451 789 q 333 696 363 738 q 288 601 303 654 q 272 492 272 547 z "},"/":{"ha":1019,"x_min":39,"x_max":985,"o":"m 985 986 l 283 0 l 39 0 l 739 986 l 985 986 z "},"Ǿ":{"ha":1022,"x_min":38,"x_max":983,"o":"m 983 986 l 865 821 q 952 665 922 750 q 982 490 982 579 q 947 303 982 393 q 849 144 911 213 q 699 33 786 75 q 510 -8 613 -8 q 310 39 400 -8 l 282 0 l 38 0 l 154 165 q 70 319 100 235 q 40 494 40 404 q 76 682 40 592 q 174 841 111 772 q 324 951 238 910 q 514 992 411 992 q 617 980 568 992 q 710 946 665 968 l 738 986 l 983 986 m 750 494 q 726 625 750 563 l 431 210 q 513 194 469 194 q 617 221 572 194 q 691 290 661 247 q 735 385 721 332 q 750 494 750 439 m 272 492 q 294 361 272 419 l 588 775 q 551 785 569 782 q 511 789 532 789 q 407 763 451 789 q 333 696 363 738 q 288 601 303 654 q 272 492 272 547 m 578 1051 l 436 1090 l 508 1271 l 710 1271 l 578 1051 z "},"Õ":{"ha":1019,"x_min":39,"x_max":981,"o":"m 508 -8 q 317 35 403 -8 q 169 148 231 78 q 73 308 107 218 q 39 494 39 399 q 74 682 39 592 q 173 841 110 772 q 323 951 236 910 q 513 992 410 992 q 704 949 618 992 q 852 835 790 906 q 947 674 914 764 q 981 490 981 583 q 945 303 981 393 q 847 144 910 213 q 698 33 785 75 q 508 -8 611 -8 m 271 492 q 287 381 271 435 q 333 286 303 328 q 408 219 363 244 q 511 194 453 194 q 615 221 571 194 q 690 290 660 247 q 734 385 719 332 q 749 494 749 439 q 733 605 749 551 q 686 699 717 658 q 611 765 656 740 q 510 789 567 789 q 406 763 450 789 q 331 696 361 738 q 286 601 301 654 q 271 492 271 547 m 601 1074 q 545 1083 569 1074 q 500 1106 521 1093 q 460 1128 479 1118 q 417 1138 440 1138 q 381 1128 393 1138 q 361 1106 368 1118 q 353 1083 354 1093 q 351 1071 351 1072 l 232 1071 q 241 1119 232 1086 q 271 1185 250 1151 q 326 1243 292 1218 q 408 1268 360 1268 q 465 1258 442 1268 q 509 1235 489 1247 q 549 1212 529 1222 q 593 1201 568 1201 q 631 1212 617 1201 q 653 1235 646 1222 q 663 1258 661 1247 q 665 1271 665 1269 l 785 1271 q 775 1228 785 1260 q 744 1161 765 1196 q 688 1100 722 1126 q 601 1074 653 1074 z "},"P":{"ha":861,"x_min":94,"x_max":838,"o":"m 94 0 l 94 986 l 515 986 q 645 957 586 986 q 747 881 704 928 q 813 774 789 833 q 838 653 838 714 q 815 528 838 588 q 751 421 792 468 q 651 346 710 374 q 522 318 593 318 l 322 318 l 322 0 l 94 0 m 322 517 l 508 517 q 578 551 549 517 q 607 653 607 586 q 598 713 607 688 q 574 754 589 738 q 539 778 558 771 q 500 786 519 786 l 322 786 l 322 517 z "},"Q":{"ha":1022,"x_min":39,"x_max":1015,"o":"m 746 60 q 634 10 693 28 q 508 -7 575 -7 q 317 35 403 -7 q 169 148 231 78 q 73 308 107 218 q 39 494 39 399 q 74 682 39 592 q 173 842 110 772 q 323 952 236 911 q 513 993 410 993 q 704 949 618 993 q 852 835 790 906 q 947 674 914 764 q 981 490 981 583 q 950 316 981 399 q 865 165 919 233 l 1015 0 l 800 0 l 746 60 m 511 196 q 604 217 564 196 l 449 389 l 663 389 l 714 332 q 749 494 749 408 q 733 605 749 551 q 686 699 717 658 q 611 765 656 740 q 510 790 567 790 q 406 765 450 790 q 331 697 361 739 q 286 601 301 654 q 271 492 271 547 q 287 381 271 435 q 333 287 303 328 q 408 221 363 246 q 511 196 453 196 z "},"R":{"ha":944,"x_min":94,"x_max":926,"o":"m 94 0 l 94 986 l 539 986 q 667 957 608 986 q 769 881 726 928 q 837 774 813 833 q 861 653 861 714 q 850 565 861 607 q 818 485 839 522 q 767 417 797 447 q 700 367 738 388 l 926 0 l 669 0 l 471 318 l 322 318 l 322 0 l 94 0 m 322 517 l 531 517 q 600 555 571 517 q 629 653 629 593 q 596 750 629 714 q 524 786 563 786 l 322 786 l 322 517 z "},"Ŕ":{"ha":944,"x_min":94,"x_max":926,"o":"m 507 1050 l 365 1089 l 438 1269 l 639 1269 l 507 1050 m 94 0 l 94 986 l 539 986 q 667 957 608 986 q 769 881 726 928 q 837 774 813 833 q 861 653 861 714 q 850 565 861 607 q 818 485 839 522 q 767 417 797 447 q 700 367 738 388 l 926 0 l 669 0 l 471 318 l 322 318 l 322 0 l 94 0 m 322 517 l 531 517 q 600 555 571 517 q 629 653 629 593 q 596 750 629 714 q 524 786 563 786 l 322 786 l 322 517 z "},"Ř":{"ha":944,"x_min":94,"x_max":926,"o":"m 325 1269 l 443 1182 l 561 1269 l 675 1218 l 524 1069 l 364 1069 l 211 1218 l 325 1269 m 94 0 l 94 986 l 539 986 q 667 957 608 986 q 769 881 726 928 q 837 774 813 833 q 861 653 861 714 q 850 565 861 607 q 818 485 839 522 q 767 417 797 447 q 700 367 738 388 l 926 0 l 669 0 l 471 318 l 322 318 l 322 0 l 94 0 m 322 517 l 531 517 q 600 555 571 517 q 629 653 629 593 q 596 750 629 714 q 524 786 563 786 l 322 786 l 322 517 z "},"Ŗ":{"ha":944,"x_min":94,"x_max":926,"o":"m 338 -192 q 390 -154 390 -192 l 390 -65 l 571 -65 l 571 -162 q 553 -226 571 -203 q 503 -260 535 -249 q 430 -276 472 -272 q 338 -279 388 -279 l 338 -192 m 94 0 l 94 986 l 539 986 q 667 957 608 986 q 769 881 726 928 q 837 774 813 833 q 861 653 861 714 q 850 565 861 607 q 818 485 839 522 q 767 417 797 447 q 700 367 738 388 l 926 0 l 669 0 l 471 318 l 322 318 l 322 0 l 94 0 m 322 517 l 531 517 q 600 555 571 517 q 629 653 629 593 q 596 750 629 714 q 524 786 563 786 l 322 786 l 322 517 z "},"S":{"ha":856,"x_min":25,"x_max":817,"o":"m 688 697 q 657 718 682 703 q 594 750 632 733 q 513 779 557 767 q 424 792 468 792 q 334 771 365 792 q 303 710 303 750 q 317 668 303 685 q 356 638 331 651 q 420 614 382 625 q 508 589 458 603 q 636 547 579 569 q 733 490 693 524 q 795 407 774 456 q 817 290 817 358 q 785 149 817 207 q 703 56 754 92 q 584 5 651 21 q 446 -11 517 -11 q 335 -3 392 -11 q 225 22 279 6 q 119 60 171 38 q 25 111 68 82 l 125 310 q 163 283 132 303 q 238 244 193 264 q 338 210 282 225 q 450 194 393 194 q 571 268 571 194 q 553 314 571 296 q 503 347 535 332 q 428 374 471 361 q 333 401 385 386 q 215 447 265 422 q 132 503 165 471 q 83 576 99 535 q 67 674 67 618 q 96 811 67 751 q 175 912 125 871 q 291 974 225 953 q 431 994 357 994 q 533 985 483 994 q 628 960 583 975 q 714 925 674 944 q 786 886 754 906 l 688 697 z "},"Ś":{"ha":856,"x_min":25,"x_max":817,"o":"m 514 1057 l 372 1096 l 444 1276 l 646 1276 l 514 1057 m 688 697 q 657 718 682 703 q 594 750 632 733 q 513 779 557 767 q 424 792 468 792 q 334 771 365 792 q 303 710 303 750 q 317 668 303 685 q 356 638 331 651 q 420 614 382 625 q 508 589 458 603 q 636 547 579 569 q 733 490 693 524 q 795 407 774 456 q 817 290 817 358 q 785 149 817 207 q 703 56 754 92 q 584 5 651 21 q 446 -11 517 -11 q 335 -3 392 -11 q 225 22 279 6 q 119 60 171 38 q 25 111 68 82 l 125 310 q 163 283 132 303 q 238 244 193 264 q 338 210 282 225 q 450 194 393 194 q 571 268 571 194 q 553 314 571 296 q 503 347 535 332 q 428 374 471 361 q 333 401 385 386 q 215 447 265 422 q 132 503 165 471 q 83 576 99 535 q 67 674 67 618 q 96 811 67 751 q 175 912 125 871 q 291 974 225 953 q 431 994 357 994 q 533 985 483 994 q 628 960 583 975 q 714 925 674 944 q 786 886 754 906 l 688 697 z "},"Š":{"ha":856,"x_min":25,"x_max":817,"o":"m 332 1276 l 450 1189 l 568 1276 l 682 1225 l 531 1076 l 371 1076 l 218 1225 l 332 1276 m 688 697 q 657 718 682 703 q 594 750 632 733 q 513 779 557 767 q 424 792 468 792 q 334 771 365 792 q 303 710 303 750 q 317 668 303 685 q 356 638 331 651 q 420 614 382 625 q 508 589 458 603 q 636 547 579 569 q 733 490 693 524 q 795 407 774 456 q 817 290 817 358 q 785 149 817 207 q 703 56 754 92 q 584 5 651 21 q 446 -11 517 -11 q 335 -3 392 -11 q 225 22 279 6 q 119 60 171 38 q 25 111 68 82 l 125 310 q 163 283 132 303 q 238 244 193 264 q 338 210 282 225 q 450 194 393 194 q 571 268 571 194 q 553 314 571 296 q 503 347 535 332 q 428 374 471 361 q 333 401 385 386 q 215 447 265 422 q 132 503 165 471 q 83 576 99 535 q 67 674 67 618 q 96 811 67 751 q 175 912 125 871 q 291 974 225 953 q 431 994 357 994 q 533 985 483 994 q 628 960 583 975 q 714 925 674 944 q 786 886 754 906 l 688 697 z "},"Ŝ":{"ha":856,"x_min":25,"x_max":817,"o":"m 218 1126 l 371 1276 l 531 1276 l 682 1126 l 568 1076 l 450 1164 l 332 1076 l 218 1126 m 688 697 q 657 718 682 703 q 594 750 632 733 q 513 779 557 767 q 424 792 468 792 q 334 771 365 792 q 303 710 303 750 q 317 668 303 685 q 356 638 331 651 q 420 614 382 625 q 508 589 458 603 q 636 547 579 569 q 733 490 693 524 q 795 407 774 456 q 817 290 817 358 q 785 149 817 207 q 703 56 754 92 q 584 5 651 21 q 446 -11 517 -11 q 335 -3 392 -11 q 225 22 279 6 q 119 60 171 38 q 25 111 68 82 l 125 310 q 163 283 132 303 q 238 244 193 264 q 338 210 282 225 q 450 194 393 194 q 571 268 571 194 q 553 314 571 296 q 503 347 535 332 q 428 374 471 361 q 333 401 385 386 q 215 447 265 422 q 132 503 165 471 q 83 576 99 535 q 67 674 67 618 q 96 811 67 751 q 175 912 125 871 q 291 974 225 953 q 431 994 357 994 q 533 985 483 994 q 628 960 583 975 q 714 925 674 944 q 786 886 754 906 l 688 697 z "},"T":{"ha":864,"x_min":17,"x_max":846,"o":"m 846 786 l 546 786 l 546 0 l 318 0 l 318 786 l 17 786 l 17 986 l 846 986 l 846 786 z "},"Ŧ":{"ha":901,"x_min":35,"x_max":864,"o":"m 864 786 l 564 786 l 564 511 l 813 511 l 813 406 l 564 406 l 564 0 l 336 0 l 336 406 l 89 406 l 89 511 l 336 511 l 336 786 l 35 786 l 35 986 l 864 986 l 864 786 z "},"Ť":{"ha":864,"x_min":17,"x_max":846,"o":"m 322 1271 l 440 1183 l 558 1271 l 672 1219 l 521 1071 l 361 1071 l 208 1219 l 322 1271 m 846 786 l 546 786 l 546 0 l 318 0 l 318 786 l 17 786 l 17 986 l 846 986 l 846 786 z "},"Þ":{"ha":840,"x_min":94,"x_max":815,"o":"m 493 814 q 623 785 564 814 q 724 709 682 756 q 791 603 767 663 q 815 482 815 543 q 792 356 815 417 q 728 249 769 296 q 630 175 688 203 q 501 147 572 147 l 322 147 l 322 0 l 94 0 l 94 986 l 322 986 l 322 814 l 493 814 m 489 347 q 559 385 531 347 q 588 482 588 424 q 555 579 588 543 q 482 615 522 615 l 322 615 l 322 347 l 489 347 z "},"U":{"ha":1035,"x_min":79,"x_max":954,"o":"m 517 194 q 615 219 575 194 q 681 283 656 243 q 716 376 706 324 q 726 482 726 428 l 726 986 l 954 986 l 954 482 q 928 290 954 379 q 849 135 903 201 q 713 30 796 68 q 517 -8 631 -8 q 315 32 399 -8 q 180 140 232 72 q 103 296 128 207 q 79 482 79 385 l 79 986 l 307 986 l 307 482 q 318 374 307 425 q 354 282 329 322 q 419 218 379 242 q 517 194 458 194 z "},"Ú":{"ha":1035,"x_min":79,"x_max":954,"o":"m 581 1051 l 439 1090 l 511 1271 l 713 1271 l 581 1051 m 517 194 q 615 219 575 194 q 681 283 656 243 q 716 376 706 324 q 726 482 726 428 l 726 986 l 954 986 l 954 482 q 928 290 954 379 q 849 135 903 201 q 713 30 796 68 q 517 -8 631 -8 q 315 32 399 -8 q 180 140 232 72 q 103 296 128 207 q 79 482 79 385 l 79 986 l 307 986 l 307 482 q 318 374 307 425 q 354 282 329 322 q 419 218 379 242 q 517 194 458 194 z "},"Ŭ":{"ha":1035,"x_min":79,"x_max":954,"o":"m 517 194 q 615 219 575 194 q 681 283 656 243 q 716 376 706 324 q 726 482 726 428 l 726 986 l 954 986 l 954 482 q 928 290 954 379 q 849 135 903 201 q 713 30 796 68 q 517 -8 631 -8 q 315 32 399 -8 q 180 140 232 72 q 103 296 128 207 q 79 482 79 385 l 79 986 l 307 986 l 307 482 q 318 374 307 425 q 354 282 329 322 q 419 218 379 242 q 517 194 458 194 m 517 1164 q 573 1194 549 1164 q 601 1271 597 1224 l 717 1271 q 702 1189 717 1226 q 661 1124 688 1151 q 598 1082 635 1097 q 517 1067 561 1067 q 436 1082 472 1067 q 373 1124 400 1097 q 331 1189 346 1151 q 317 1271 317 1226 l 435 1271 q 459 1195 435 1226 q 517 1164 483 1164 z "},"Û":{"ha":1035,"x_min":79,"x_max":954,"o":"m 285 1121 l 438 1271 l 597 1271 l 749 1121 l 635 1071 l 517 1158 l 399 1071 l 285 1121 m 517 194 q 615 219 575 194 q 681 283 656 243 q 716 376 706 324 q 726 482 726 428 l 726 986 l 954 986 l 954 482 q 928 290 954 379 q 849 135 903 201 q 713 30 796 68 q 517 -8 631 -8 q 315 32 399 -8 q 180 140 232 72 q 103 296 128 207 q 79 482 79 385 l 79 986 l 307 986 l 307 482 q 318 374 307 425 q 354 282 329 322 q 419 218 379 242 q 517 194 458 194 z "},"Ü":{"ha":1035,"x_min":79,"x_max":954,"o":"m 279 1082 l 279 1261 l 463 1261 l 463 1082 l 279 1082 m 571 1082 l 571 1261 l 754 1261 l 754 1082 l 571 1082 m 517 194 q 615 219 575 194 q 681 283 656 243 q 716 376 706 324 q 726 482 726 428 l 726 986 l 954 986 l 954 482 q 928 290 954 379 q 849 135 903 201 q 713 30 796 68 q 517 -8 631 -8 q 315 32 399 -8 q 180 140 232 72 q 103 296 128 207 q 79 482 79 385 l 79 986 l 307 986 l 307 482 q 318 374 307 425 q 354 282 329 322 q 419 218 379 242 q 517 194 458 194 z "},"Ù":{"ha":1035,"x_min":79,"x_max":954,"o":"m 517 194 q 615 219 575 194 q 681 283 656 243 q 716 376 706 324 q 726 482 726 428 l 726 986 l 954 986 l 954 482 q 928 290 954 379 q 849 135 903 201 q 713 30 796 68 q 517 -8 631 -8 q 315 32 399 -8 q 180 140 232 72 q 103 296 128 207 q 79 482 79 385 l 79 986 l 307 986 l 307 482 q 318 374 307 425 q 354 282 329 322 q 419 218 379 242 q 517 194 458 194 m 321 1272 l 522 1272 l 594 1092 l 454 1053 l 321 1272 z "},"Ű":{"ha":1035,"x_min":79,"x_max":954,"o":"m 517 194 q 615 219 575 194 q 681 283 656 243 q 716 376 706 324 q 726 482 726 428 l 726 986 l 954 986 l 954 482 q 928 290 954 379 q 849 135 903 201 q 713 30 796 68 q 517 -8 631 -8 q 315 32 399 -8 q 180 140 232 72 q 103 296 128 207 q 79 482 79 385 l 79 986 l 307 986 l 307 482 q 318 374 307 425 q 354 282 329 322 q 419 218 379 242 q 517 194 458 194 m 428 1053 l 321 1092 l 383 1272 l 550 1272 l 428 1053 m 671 1053 l 564 1092 l 625 1272 l 792 1272 l 671 1053 z "},"Ū":{"ha":1035,"x_min":79,"x_max":954,"o":"m 517 194 q 615 219 575 194 q 681 283 656 243 q 716 376 706 324 q 726 482 726 428 l 726 986 l 954 986 l 954 482 q 928 290 954 379 q 849 135 903 201 q 713 30 796 68 q 517 -8 631 -8 q 315 32 399 -8 q 180 140 232 72 q 103 296 128 207 q 79 482 79 385 l 79 986 l 307 986 l 307 482 q 318 374 307 425 q 354 282 329 322 q 419 218 379 242 q 517 194 458 194 m 307 1119 l 307 1254 l 729 1254 l 729 1119 l 307 1119 z "},"Ų":{"ha":1035,"x_min":79,"x_max":954,"o":"m 517 194 q 615 219 575 194 q 681 283 656 243 q 716 376 706 324 q 726 482 726 428 l 726 986 l 954 986 l 954 482 q 931 297 954 383 q 858 146 907 211 q 734 40 810 81 q 554 -7 658 -1 q 453 -124 453 -69 q 475 -162 453 -147 q 543 -178 497 -176 l 500 -285 q 376 -237 417 -274 q 336 -156 336 -201 q 363 -78 336 -117 q 447 -4 390 -40 q 278 52 349 8 q 164 161 208 96 q 99 309 119 226 q 79 482 79 392 l 79 986 l 307 986 l 307 482 q 318 374 307 425 q 354 282 329 322 q 419 218 379 242 q 517 194 458 194 z "},"Ů":{"ha":1035,"x_min":79,"x_max":954,"o":"m 368 1157 q 409 1242 368 1214 q 517 1271 450 1271 q 624 1242 583 1271 q 664 1157 664 1214 q 624 1073 664 1101 q 517 1044 583 1044 q 409 1073 450 1044 q 368 1157 368 1101 m 517 1206 q 477 1192 493 1206 q 461 1158 461 1179 q 477 1124 461 1138 q 517 1110 493 1110 q 556 1123 539 1110 q 572 1158 572 1136 q 556 1192 572 1179 q 517 1206 540 1206 m 517 194 q 615 219 575 194 q 681 283 656 243 q 716 376 706 324 q 726 482 726 428 l 726 986 l 954 986 l 954 482 q 928 290 954 379 q 849 135 903 201 q 713 30 796 68 q 517 -8 631 -8 q 315 32 399 -8 q 180 140 232 72 q 103 296 128 207 q 79 482 79 385 l 79 986 l 307 986 l 307 482 q 318 374 307 425 q 354 282 329 322 q 419 218 379 242 q 517 194 458 194 z "},"Ũ":{"ha":1035,"x_min":79,"x_max":954,"o":"m 517 194 q 615 219 575 194 q 681 283 656 243 q 716 376 706 324 q 726 482 726 428 l 726 986 l 954 986 l 954 482 q 928 290 954 379 q 849 135 903 201 q 713 30 796 68 q 517 -8 631 -8 q 315 32 399 -8 q 180 140 232 72 q 103 296 128 207 q 79 482 79 385 l 79 986 l 307 986 l 307 482 q 318 374 307 425 q 354 282 329 322 q 419 218 379 242 q 517 194 458 194 m 606 1074 q 549 1083 574 1074 q 504 1106 525 1093 q 464 1128 483 1118 q 421 1138 444 1138 q 385 1128 397 1138 q 365 1106 372 1118 q 357 1083 358 1093 q 356 1071 356 1072 l 236 1071 q 245 1119 236 1086 q 275 1185 254 1151 q 330 1243 296 1218 q 413 1268 364 1268 q 469 1258 446 1268 q 513 1235 493 1247 q 553 1212 533 1222 q 597 1201 572 1201 q 635 1212 621 1201 q 658 1235 650 1222 q 667 1258 665 1247 q 669 1271 669 1269 l 789 1271 q 779 1228 789 1260 q 748 1161 769 1196 q 692 1100 726 1126 q 606 1074 657 1074 z "},"V":{"ha":933,"x_min":-6,"x_max":938,"o":"m 235 986 l 468 286 l 697 986 l 938 986 l 563 0 l 372 0 l -6 986 l 235 986 z "},"W":{"ha":1467,"x_min":-7,"x_max":1474,"o":"m 422 985 l 633 985 l 732 669 l 833 985 l 1043 985 l 878 526 l 978 261 l 1226 986 l 1474 986 l 1081 0 l 889 0 l 733 386 l 576 0 l 386 0 l -7 986 l 239 986 l 489 261 l 586 526 l 422 985 z "},"Ẃ":{"ha":1467,"x_min":-7,"x_max":1474,"o":"m 796 1051 l 654 1090 l 726 1271 l 928 1271 l 796 1051 m 422 985 l 633 985 l 732 669 l 833 985 l 1043 985 l 878 526 l 978 261 l 1226 986 l 1474 986 l 1081 0 l 889 0 l 733 386 l 576 0 l 386 0 l -7 986 l 239 986 l 489 261 l 586 526 l 422 985 z "},"Ŵ":{"ha":1467,"x_min":-7,"x_max":1474,"o":"m 500 1121 l 653 1271 l 813 1271 l 964 1121 l 850 1071 l 732 1158 l 614 1071 l 500 1121 m 422 985 l 633 985 l 732 669 l 833 985 l 1043 985 l 878 526 l 978 261 l 1226 986 l 1474 986 l 1081 0 l 889 0 l 733 386 l 576 0 l 386 0 l -7 986 l 239 986 l 489 261 l 586 526 l 422 985 z "},"Ẅ":{"ha":1467,"x_min":-7,"x_max":1474,"o":"m 494 1082 l 494 1261 l 678 1261 l 678 1082 l 494 1082 m 786 1082 l 786 1261 l 969 1261 l 969 1082 l 786 1082 m 422 985 l 633 985 l 732 669 l 833 985 l 1043 985 l 878 526 l 978 261 l 1226 986 l 1474 986 l 1081 0 l 889 0 l 733 386 l 576 0 l 386 0 l -7 986 l 239 986 l 489 261 l 586 526 l 422 985 z "},"Ẁ":{"ha":1467,"x_min":-7,"x_max":1474,"o":"m 422 985 l 633 985 l 732 669 l 833 985 l 1043 985 l 878 526 l 978 261 l 1226 986 l 1474 986 l 1081 0 l 889 0 l 733 386 l 576 0 l 386 0 l -7 986 l 239 986 l 489 261 l 586 526 l 422 985 m 536 1272 l 738 1272 l 810 1092 l 669 1053 l 536 1272 z "},"X":{"ha":901,"x_min":-11,"x_max":913,"o":"m 236 986 l 451 646 l 667 986 l 913 986 l 571 486 l 901 0 l 656 0 l 451 326 l 247 0 l 0 0 l 331 486 l -11 986 l 236 986 z "},"Y":{"ha":900,"x_min":-11,"x_max":913,"o":"m 236 986 l 449 533 l 665 986 l 913 986 l 563 336 l 563 0 l 335 0 l 335 339 l -11 986 l 236 986 z "},"Ý":{"ha":900,"x_min":-11,"x_max":913,"o":"m 236 986 l 449 533 l 665 986 l 913 986 l 563 336 l 563 0 l 335 0 l 335 339 l -11 986 l 236 986 m 513 1051 l 371 1090 l 443 1271 l 644 1271 l 513 1051 z "},"Ŷ":{"ha":900,"x_min":-11,"x_max":913,"o":"m 236 986 l 449 533 l 665 986 l 913 986 l 563 336 l 563 0 l 335 0 l 335 339 l -11 986 l 236 986 m 217 1121 l 369 1271 l 529 1271 l 681 1121 l 567 1071 l 449 1158 l 331 1071 l 217 1121 z "},"Ÿ":{"ha":900,"x_min":-11,"x_max":913,"o":"m 236 986 l 449 533 l 665 986 l 913 986 l 563 336 l 563 0 l 335 0 l 335 339 l -11 986 l 236 986 m 211 1082 l 211 1261 l 394 1261 l 394 1082 l 211 1082 m 503 1082 l 503 1261 l 686 1261 l 686 1082 l 503 1082 z "},"Ỳ":{"ha":900,"x_min":-11,"x_max":913,"o":"m 236 986 l 449 533 l 665 986 l 913 986 l 563 336 l 563 0 l 335 0 l 335 339 l -11 986 l 236 986 m 253 1272 l 454 1272 l 526 1092 l 386 1053 l 253 1272 z "},"Ỹ":{"ha":900,"x_min":-11,"x_max":913,"o":"m 236 986 l 449 533 l 665 986 l 913 986 l 563 336 l 563 0 l 335 0 l 335 339 l -11 986 l 236 986 m 536 1074 q 480 1083 504 1074 q 435 1106 456 1093 q 394 1128 414 1118 q 351 1138 375 1138 q 315 1128 328 1138 q 296 1106 303 1118 q 288 1083 289 1093 q 286 1071 286 1072 l 167 1071 q 176 1119 167 1086 q 206 1185 185 1151 q 260 1243 226 1218 q 343 1268 294 1268 q 400 1258 376 1268 q 444 1235 424 1247 q 483 1212 464 1222 q 528 1201 503 1201 q 566 1212 551 1201 q 588 1235 581 1222 q 598 1258 596 1247 q 600 1271 600 1269 l 719 1271 q 710 1228 719 1260 q 678 1161 700 1196 q 622 1100 657 1126 q 536 1074 588 1074 z "},"Z":{"ha":865,"x_min":38,"x_max":819,"o":"m 38 171 l 550 786 l 57 786 l 57 986 l 814 986 l 814 815 l 324 200 l 819 200 l 819 0 l 38 0 l 38 171 z "},"Ź":{"ha":865,"x_min":38,"x_max":819,"o":"m 511 1051 l 369 1090 l 442 1271 l 643 1271 l 511 1051 m 38 171 l 550 786 l 57 786 l 57 986 l 814 986 l 814 815 l 324 200 l 819 200 l 819 0 l 38 0 l 38 171 z "},"Ž":{"ha":865,"x_min":38,"x_max":819,"o":"m 329 1271 l 447 1183 l 565 1271 l 679 1219 l 528 1071 l 368 1071 l 215 1219 l 329 1271 m 38 171 l 550 786 l 57 786 l 57 986 l 814 986 l 814 815 l 324 200 l 819 200 l 819 0 l 38 0 l 38 171 z "},"Ż":{"ha":865,"x_min":38,"x_max":819,"o":"m 38 171 l 550 786 l 57 786 l 57 986 l 814 986 l 814 815 l 324 200 l 819 200 l 819 0 l 38 0 l 38 171 m 347 1081 l 347 1271 l 547 1271 l 547 1081 l 347 1081 z "},"a":{"ha":819,"x_min":31,"x_max":786,"o":"m 283 -14 q 183 3 229 -14 q 103 52 136 21 q 50 126 69 83 q 31 218 31 168 q 53 317 31 272 q 118 393 76 361 q 217 443 160 425 q 343 461 274 461 q 432 453 389 461 q 507 431 475 446 l 507 464 q 361 590 507 590 q 247 570 301 590 q 133 510 193 550 l 68 649 q 218 719 140 696 q 383 743 296 743 q 639 665 549 743 q 729 438 729 588 l 729 250 q 742 203 729 217 q 786 188 754 190 l 786 0 q 727 -9 754 -7 q 679 -11 700 -11 q 586 14 618 -10 q 546 82 554 38 l 542 115 q 426 19 493 53 q 283 -14 358 -14 m 349 146 q 419 158 385 146 q 475 192 453 171 q 507 244 507 217 l 507 314 q 444 331 478 325 q 381 338 410 338 q 280 310 319 338 q 240 238 240 282 q 271 172 240 197 q 349 146 301 146 z "},"á":{"ha":819,"x_min":31,"x_max":786,"o":"m 283 -14 q 183 3 229 -14 q 103 52 136 21 q 50 126 69 83 q 31 218 31 168 q 53 317 31 272 q 118 393 76 361 q 217 443 160 425 q 343 461 274 461 q 432 453 389 461 q 507 431 475 446 l 507 464 q 361 590 507 590 q 247 570 301 590 q 133 510 193 550 l 68 649 q 218 719 140 696 q 383 743 296 743 q 639 665 549 743 q 729 438 729 588 l 729 250 q 742 203 729 217 q 786 188 754 190 l 786 0 q 727 -9 754 -7 q 679 -11 700 -11 q 586 14 618 -10 q 546 82 554 38 l 542 115 q 426 19 493 53 q 283 -14 358 -14 m 349 146 q 419 158 385 146 q 475 192 453 171 q 507 244 507 217 l 507 314 q 444 331 478 325 q 381 338 410 338 q 280 310 319 338 q 240 238 240 282 q 271 172 240 197 q 349 146 301 146 m 447 794 l 306 833 l 378 1014 l 579 1014 l 447 794 z "},"ă":{"ha":819,"x_min":31,"x_max":786,"o":"m 283 -14 q 183 3 229 -14 q 103 52 136 21 q 50 126 69 83 q 31 218 31 168 q 53 317 31 272 q 118 393 76 361 q 217 443 160 425 q 343 461 274 461 q 432 453 389 461 q 507 431 475 446 l 507 464 q 361 590 507 590 q 247 570 301 590 q 133 510 193 550 l 68 649 q 218 719 140 696 q 383 743 296 743 q 639 665 549 743 q 729 438 729 588 l 729 250 q 742 203 729 217 q 786 188 754 190 l 786 0 q 727 -9 754 -7 q 679 -11 700 -11 q 586 14 618 -10 q 546 82 554 38 l 542 115 q 426 19 493 53 q 283 -14 358 -14 m 349 146 q 419 158 385 146 q 475 192 453 171 q 507 244 507 217 l 507 314 q 444 331 478 325 q 381 338 410 338 q 280 310 319 338 q 240 238 240 282 q 271 172 240 197 q 349 146 301 146 m 382 907 q 438 937 414 907 q 467 1014 463 967 l 582 1014 q 567 932 582 969 q 526 867 553 894 q 463 825 500 840 q 382 810 426 810 q 301 825 338 810 q 238 867 265 840 q 197 932 211 894 q 182 1014 182 969 l 300 1014 q 324 938 300 969 q 382 907 349 907 z "},"â":{"ha":819,"x_min":31,"x_max":786,"o":"m 283 -14 q 183 3 229 -14 q 103 52 136 21 q 50 126 69 83 q 31 218 31 168 q 53 317 31 272 q 118 393 76 361 q 217 443 160 425 q 343 461 274 461 q 432 453 389 461 q 507 431 475 446 l 507 464 q 361 590 507 590 q 247 570 301 590 q 133 510 193 550 l 68 649 q 218 719 140 696 q 383 743 296 743 q 639 665 549 743 q 729 438 729 588 l 729 250 q 742 203 729 217 q 786 188 754 190 l 786 0 q 727 -9 754 -7 q 679 -11 700 -11 q 586 14 618 -10 q 546 82 554 38 l 542 115 q 426 19 493 53 q 283 -14 358 -14 m 349 146 q 419 158 385 146 q 475 192 453 171 q 507 244 507 217 l 507 314 q 444 331 478 325 q 381 338 410 338 q 280 310 319 338 q 240 238 240 282 q 271 172 240 197 q 349 146 301 146 m 151 864 l 304 1014 l 464 1014 l 615 864 l 501 814 l 383 901 l 265 814 l 151 864 z "},"ä":{"ha":819,"x_min":31,"x_max":786,"o":"m 283 -14 q 183 3 229 -14 q 103 52 136 21 q 50 126 69 83 q 31 218 31 168 q 53 317 31 272 q 118 393 76 361 q 217 443 160 425 q 343 461 274 461 q 432 453 389 461 q 507 431 475 446 l 507 464 q 361 590 507 590 q 247 570 301 590 q 133 510 193 550 l 68 649 q 218 719 140 696 q 383 743 296 743 q 639 665 549 743 q 729 438 729 588 l 729 250 q 742 203 729 217 q 786 188 754 190 l 786 0 q 727 -9 754 -7 q 679 -11 700 -11 q 586 14 618 -10 q 546 82 554 38 l 542 115 q 426 19 493 53 q 283 -14 358 -14 m 349 146 q 419 158 385 146 q 475 192 453 171 q 507 244 507 217 l 507 314 q 444 331 478 325 q 381 338 410 338 q 280 310 319 338 q 240 238 240 282 q 271 172 240 197 q 349 146 301 146 m 146 825 l 146 1004 l 329 1004 l 329 825 l 146 825 m 438 825 l 438 1004 l 621 1004 l 621 825 l 438 825 z "},"æ":{"ha":1306,"x_min":32,"x_max":1281,"o":"m 283 -14 q 183 3 229 -14 q 104 52 138 21 q 51 126 71 83 q 32 218 32 168 q 55 317 32 272 q 119 393 78 361 q 218 443 161 425 q 343 461 275 461 q 428 453 388 461 q 500 433 468 446 q 502 455 501 440 q 506 475 503 469 q 467 562 503 533 q 361 590 432 590 q 247 570 301 590 q 135 510 193 550 l 68 649 q 219 719 142 696 q 383 743 296 743 q 531 720 467 743 q 639 654 596 697 q 749 719 686 694 q 890 743 811 743 q 1056 713 983 743 q 1179 630 1129 682 q 1255 509 1229 578 q 1281 364 1281 440 q 1279 328 1281 347 q 1275 296 1278 310 l 732 296 q 749 231 735 260 q 787 184 764 203 q 838 156 810 165 q 899 146 867 146 q 993 169 949 146 q 1053 233 1038 193 l 1242 181 q 1108 40 1199 94 q 892 -14 1018 -14 q 703 26 783 -14 q 574 132 624 65 q 513 65 549 93 q 439 20 478 38 q 360 -6 400 3 q 283 -14 319 -14 m 349 146 q 419 158 385 146 q 475 192 453 171 q 508 243 507 217 q 505 256 506 246 q 503 279 504 267 q 501 302 501 292 q 500 317 500 313 q 441 332 472 326 q 382 338 410 338 q 281 310 319 338 q 242 238 242 282 q 272 172 242 197 q 349 146 303 146 m 1046 431 q 996 542 1039 500 q 886 583 953 583 q 777 542 819 583 q 728 431 735 500 l 1046 431 z "},"ǽ":{"ha":1306,"x_min":32,"x_max":1281,"o":"m 701 794 l 560 833 l 632 1014 l 833 1014 l 701 794 m 283 -14 q 183 3 229 -14 q 104 52 138 21 q 51 126 71 83 q 32 218 32 168 q 55 317 32 272 q 119 393 78 361 q 218 443 161 425 q 343 461 275 461 q 428 453 388 461 q 500 433 468 446 q 502 455 501 440 q 506 475 503 469 q 467 562 503 533 q 361 590 432 590 q 247 570 301 590 q 135 510 193 550 l 68 649 q 219 719 142 696 q 383 743 296 743 q 531 720 467 743 q 639 654 596 697 q 749 719 686 694 q 890 743 811 743 q 1056 713 983 743 q 1179 630 1129 682 q 1255 509 1229 578 q 1281 364 1281 440 q 1279 328 1281 347 q 1275 296 1278 310 l 732 296 q 749 231 735 260 q 787 184 764 203 q 838 156 810 165 q 899 146 867 146 q 993 169 949 146 q 1053 233 1038 193 l 1242 181 q 1108 40 1199 94 q 892 -14 1018 -14 q 703 26 783 -14 q 574 132 624 65 q 513 65 549 93 q 439 20 478 38 q 360 -6 400 3 q 283 -14 319 -14 m 349 146 q 419 158 385 146 q 475 192 453 171 q 508 243 507 217 q 505 256 506 246 q 503 279 504 267 q 501 302 501 292 q 500 317 500 313 q 441 332 472 326 q 382 338 410 338 q 281 310 319 338 q 242 238 242 282 q 272 172 242 197 q 349 146 303 146 m 1046 431 q 996 542 1039 500 q 886 583 953 583 q 777 542 819 583 q 728 431 735 500 l 1046 431 z "},"à":{"ha":819,"x_min":31,"x_max":786,"o":"m 283 -14 q 183 3 229 -14 q 103 52 136 21 q 50 126 69 83 q 31 218 31 168 q 53 317 31 272 q 118 393 76 361 q 217 443 160 425 q 343 461 274 461 q 432 453 389 461 q 507 431 475 446 l 507 464 q 361 590 507 590 q 247 570 301 590 q 133 510 193 550 l 68 649 q 218 719 140 696 q 383 743 296 743 q 639 665 549 743 q 729 438 729 588 l 729 250 q 742 203 729 217 q 786 188 754 190 l 786 0 q 727 -9 754 -7 q 679 -11 700 -11 q 586 14 618 -10 q 546 82 554 38 l 542 115 q 426 19 493 53 q 283 -14 358 -14 m 349 146 q 419 158 385 146 q 475 192 453 171 q 507 244 507 217 l 507 314 q 444 331 478 325 q 381 338 410 338 q 280 310 319 338 q 240 238 240 282 q 271 172 240 197 q 349 146 301 146 m 188 1015 l 389 1015 l 461 835 l 321 796 l 188 1015 z "},"ā":{"ha":819,"x_min":31,"x_max":786,"o":"m 283 -14 q 183 3 229 -14 q 103 52 136 21 q 50 126 69 83 q 31 218 31 168 q 53 317 31 272 q 118 393 76 361 q 217 443 160 425 q 343 461 274 461 q 432 453 389 461 q 507 431 475 446 l 507 464 q 361 590 507 590 q 247 570 301 590 q 133 510 193 550 l 68 649 q 218 719 140 696 q 383 743 296 743 q 639 665 549 743 q 729 438 729 588 l 729 250 q 742 203 729 217 q 786 188 754 190 l 786 0 q 727 -9 754 -7 q 679 -11 700 -11 q 586 14 618 -10 q 546 82 554 38 l 542 115 q 426 19 493 53 q 283 -14 358 -14 m 349 146 q 419 158 385 146 q 475 192 453 171 q 507 244 507 217 l 507 314 q 444 331 478 325 q 381 338 410 338 q 280 310 319 338 q 240 238 240 282 q 271 172 240 197 q 349 146 301 146 m 174 863 l 174 997 l 596 997 l 596 863 l 174 863 z "},"&":{"ha":1018,"x_min":53,"x_max":1017,"o":"m 725 0 l 660 68 q 531 7 599 28 q 392 -14 463 -14 q 248 12 311 -14 q 142 80 185 38 q 76 176 99 122 q 53 289 53 231 q 65 372 53 333 q 99 442 78 410 q 149 501 121 474 q 208 553 176 529 q 165 608 183 583 q 136 658 147 633 q 120 705 125 682 q 115 754 115 728 q 136 856 115 811 q 194 933 157 901 q 283 982 232 965 q 394 999 335 999 q 496 985 446 999 q 584 944 546 972 q 646 873 622 915 q 669 772 669 831 q 628 633 669 693 q 519 522 586 572 l 674 358 q 702 449 692 400 q 713 557 713 499 l 893 557 q 868 372 892 454 q 804 222 844 289 l 1017 0 l 725 0 m 415 160 q 540 197 479 160 l 344 406 q 288 350 308 378 q 267 288 267 322 q 276 242 267 265 q 305 201 286 219 q 351 172 324 183 q 415 160 379 160 m 317 763 q 331 722 317 740 q 381 667 344 703 q 444 717 424 694 q 465 769 465 739 q 446 818 465 800 q 394 836 426 836 q 338 815 358 836 q 317 763 317 794 z "},"ą":{"ha":819,"x_min":31,"x_max":786,"o":"m 719 -285 q 596 -237 636 -274 q 556 -156 556 -201 q 581 -82 556 -119 q 657 -10 606 -44 q 580 19 607 -4 q 546 82 553 42 l 542 115 q 426 19 493 53 q 283 -14 358 -14 q 183 3 229 -14 q 103 52 136 21 q 50 126 69 83 q 31 218 31 168 q 53 317 31 272 q 118 393 76 361 q 217 443 160 425 q 343 461 274 461 q 432 453 389 461 q 507 431 475 446 l 507 464 q 361 590 507 590 q 247 570 301 590 q 133 510 193 550 l 68 649 q 218 719 140 696 q 383 743 296 743 q 639 665 549 743 q 729 438 729 588 l 729 250 q 742 203 729 217 q 786 188 754 190 l 786 0 q 672 -124 672 -67 q 694 -162 672 -147 q 763 -178 717 -176 l 719 -285 m 349 146 q 419 158 385 146 q 475 192 453 171 q 507 244 507 217 l 507 314 q 444 331 478 325 q 381 338 410 338 q 280 310 319 338 q 240 238 240 282 q 271 172 240 197 q 349 146 301 146 z "},"ʼ":{"ha":528,"x_min":149,"x_max":424,"o":"m 290 794 l 149 833 l 194 944 l 183 1014 l 424 1014 l 290 794 z "},"å":{"ha":819,"x_min":31,"x_max":786,"o":"m 283 -14 q 183 3 229 -14 q 103 52 136 21 q 50 126 69 83 q 31 218 31 168 q 53 317 31 272 q 118 393 76 361 q 217 443 160 425 q 343 461 274 461 q 432 453 389 461 q 507 431 475 446 l 507 464 q 361 590 507 590 q 247 570 301 590 q 133 510 193 550 l 68 649 q 218 719 140 696 q 383 743 296 743 q 639 665 549 743 q 729 438 729 588 l 729 250 q 742 203 729 217 q 786 188 754 190 l 786 0 q 727 -9 754 -7 q 679 -11 700 -11 q 586 14 618 -10 q 546 82 554 38 l 542 115 q 426 19 493 53 q 283 -14 358 -14 m 349 146 q 419 158 385 146 q 475 192 453 171 q 507 244 507 217 l 507 314 q 444 331 478 325 q 381 338 410 338 q 280 310 319 338 q 240 238 240 282 q 271 172 240 197 q 349 146 301 146 m 235 900 q 276 985 235 957 q 383 1014 317 1014 q 490 985 450 1014 q 531 900 531 957 q 490 816 531 844 q 383 788 450 788 q 276 816 317 788 q 235 900 235 844 m 383 949 q 344 935 360 949 q 328 901 328 922 q 344 867 328 881 q 383 853 360 853 q 422 866 406 853 q 439 901 439 879 q 423 935 439 922 q 383 949 407 949 z "},"ǻ":{"ha":819,"x_min":31,"x_max":786,"o":"m 283 -14 q 183 3 229 -14 q 103 52 136 21 q 50 126 69 83 q 31 218 31 168 q 53 317 31 272 q 118 393 76 361 q 217 443 160 425 q 343 461 274 461 q 432 453 389 461 q 507 431 475 446 l 507 464 q 361 590 507 590 q 247 570 301 590 q 133 510 193 550 l 68 649 q 218 719 140 696 q 383 743 296 743 q 639 665 549 743 q 729 438 729 588 l 729 250 q 742 203 729 217 q 786 188 754 190 l 786 0 q 727 -9 754 -7 q 679 -11 700 -11 q 586 14 618 -10 q 546 82 554 38 l 542 115 q 426 19 493 53 q 283 -14 358 -14 m 349 146 q 419 158 385 146 q 475 192 453 171 q 507 244 507 217 l 507 314 q 444 331 478 325 q 381 338 410 338 q 280 310 319 338 q 240 238 240 282 q 271 172 240 197 q 349 146 301 146 m 447 1043 l 306 1082 l 378 1263 l 579 1263 l 447 1043 m 235 900 q 276 985 235 957 q 383 1014 317 1014 q 490 985 450 1014 q 531 900 531 957 q 490 816 531 844 q 383 788 450 788 q 276 816 317 788 q 235 900 235 844 m 383 949 q 344 935 360 949 q 328 901 328 922 q 344 867 328 881 q 383 853 360 853 q 422 866 406 853 q 439 901 439 879 q 423 935 439 922 q 383 949 407 949 z "},"^":{"ha":839,"x_min":53,"x_max":786,"o":"m 53 421 l 328 986 l 513 986 l 786 421 l 606 421 l 421 803 l 231 421 l 53 421 z "},"~":{"ha":811,"x_min":69,"x_max":747,"o":"m 69 308 q 80 356 69 322 q 115 424 90 389 q 179 484 139 458 q 281 510 219 510 q 352 498 319 510 q 414 473 385 486 q 472 448 443 460 q 533 436 501 436 q 581 447 563 436 q 610 469 600 457 q 625 493 621 482 q 629 507 629 504 l 747 507 q 737 466 747 499 q 701 399 726 433 q 635 336 676 364 q 532 308 594 308 q 460 319 493 308 q 398 344 428 331 q 339 368 368 357 q 279 379 310 379 q 231 369 249 379 q 203 345 213 358 q 192 321 194 332 q 190 308 190 310 l 69 308 l 69 308 z "},"*":{"ha":492,"x_min":65,"x_max":426,"o":"m 99 708 l 164 813 l 65 842 l 94 935 l 196 888 l 188 999 l 303 999 l 294 888 l 397 935 l 426 842 l 328 813 l 393 708 l 311 654 l 246 764 l 181 654 l 99 708 z "},"@":{"ha":1167,"x_min":57,"x_max":1114,"o":"m 590 838 q 787 805 692 838 q 954 706 882 772 q 1070 540 1026 640 q 1114 307 1114 440 q 1112 256 1114 288 q 1103 188 1110 224 q 1082 114 1096 151 q 1044 46 1068 76 q 983 -3 1019 15 q 894 -22 946 -22 q 831 -12 857 -22 q 790 14 806 -1 q 767 49 775 29 q 757 86 760 68 q 651 15 713 42 q 515 -12 590 -12 q 419 3 460 -12 q 351 47 378 19 q 310 110 324 74 q 296 190 296 147 q 320 290 296 250 q 383 356 344 331 q 469 392 421 381 q 564 403 517 403 q 660 391 622 403 q 717 371 697 379 q 710 432 717 404 q 685 479 703 460 q 639 510 668 499 q 564 521 610 521 q 460 505 506 521 q 382 461 414 489 l 343 576 q 457 629 396 613 q 585 646 518 646 q 732 617 679 646 q 810 546 785 589 q 842 451 836 503 q 847 353 847 399 l 847 239 q 849 178 847 208 q 857 126 850 149 q 878 88 864 103 q 917 74 892 74 q 973 101 951 74 q 1006 166 994 128 q 1022 245 1018 204 q 1025 313 1025 286 q 994 488 1025 407 q 904 627 963 568 q 765 719 846 686 q 583 753 683 753 q 403 720 483 753 q 265 630 322 688 q 178 492 208 572 q 147 318 147 413 q 176 149 147 228 q 258 10 204 69 q 390 -84 313 -50 q 564 -118 467 -118 q 681 -103 633 -118 q 782 -65 729 -87 l 807 -147 q 686 -189 749 -175 q 561 -203 624 -203 q 365 -165 457 -203 q 205 -60 274 -128 q 97 105 136 8 q 57 321 57 201 q 101 542 57 446 q 218 704 144 639 q 388 803 292 769 q 590 838 485 838 m 647 136 q 701 179 686 156 q 715 232 715 203 l 715 271 q 656 288 696 278 q 568 297 615 297 q 469 274 507 297 q 431 199 431 251 q 435 167 431 183 q 450 138 439 151 q 480 116 461 125 q 528 107 499 107 q 589 115 557 107 q 647 136 621 124 z "},"ã":{"ha":819,"x_min":31,"x_max":786,"o":"m 283 -14 q 183 3 229 -14 q 103 52 136 21 q 50 126 69 83 q 31 218 31 168 q 53 317 31 272 q 118 393 76 361 q 217 443 160 425 q 343 461 274 461 q 432 453 389 461 q 507 431 475 446 l 507 464 q 361 590 507 590 q 247 570 301 590 q 133 510 193 550 l 68 649 q 218 719 140 696 q 383 743 296 743 q 639 665 549 743 q 729 438 729 588 l 729 250 q 742 203 729 217 q 786 188 754 190 l 786 0 q 727 -9 754 -7 q 679 -11 700 -11 q 586 14 618 -10 q 546 82 554 38 l 542 115 q 426 19 493 53 q 283 -14 358 -14 m 349 146 q 419 158 385 146 q 475 192 453 171 q 507 244 507 217 l 507 314 q 444 331 478 325 q 381 338 410 338 q 280 310 319 338 q 240 238 240 282 q 271 172 240 197 q 349 146 301 146 m 471 817 q 415 826 439 817 q 369 849 390 836 q 329 871 349 861 q 286 881 310 881 q 250 871 263 881 q 231 849 238 861 q 222 826 224 836 q 221 814 221 815 l 101 814 q 110 862 101 829 q 140 928 119 894 q 195 986 161 961 q 278 1011 229 1011 q 335 1001 311 1011 q 378 978 358 990 q 418 955 399 965 q 463 944 438 944 q 501 955 486 944 q 523 978 515 965 q 533 1001 531 990 q 535 1014 535 1013 l 654 1014 q 644 971 654 1003 q 613 904 635 939 q 557 843 592 869 q 471 817 522 817 z "},"b":{"ha":888,"x_min":75,"x_max":853,"o":"m 513 -14 q 367 22 429 -14 q 269 121 306 57 l 269 0 l 75 0 l 75 1014 l 297 1014 l 297 610 q 394 708 333 672 q 538 743 454 743 q 665 713 607 743 q 764 632 722 683 q 829 510 806 581 q 853 361 853 440 q 827 213 853 282 q 756 94 801 144 q 647 15 710 43 q 513 -14 585 -14 m 450 174 q 522 188 489 174 q 577 228 554 203 q 613 287 600 253 q 625 361 625 321 q 613 435 625 400 q 579 497 601 471 q 527 539 557 524 q 461 554 497 554 q 365 518 408 554 q 297 428 321 482 l 297 275 q 363 201 321 228 q 450 174 404 174 z "},"\\":{"ha":925,"x_min":36,"x_max":886,"o":"m 282 986 l 886 0 l 642 0 l 36 986 l 282 986 z "},"|":{"ha":367,"x_min":90,"x_max":278,"o":"m 90 -181 l 90 1076 l 278 1076 l 278 -181 l 90 -181 z "},"{":{"ha":456,"x_min":46,"x_max":399,"o":"m 322 851 l 322 600 q 307 544 322 568 q 269 500 292 519 q 306 456 290 481 q 322 400 322 432 l 322 133 l 399 133 l 399 -43 l 154 -43 q 134 -35 146 -43 q 122 -1 122 -26 l 122 325 q 99 392 122 365 q 46 425 75 418 l 46 578 q 74 587 60 578 q 99 610 88 596 q 116 641 110 624 q 122 675 122 658 l 122 986 q 134 1019 122 1011 q 154 1028 146 1028 l 399 1028 l 399 851 l 322 851 z "},"}":{"ha":456,"x_min":57,"x_max":408,"o":"m 57 851 l 57 1028 l 301 1028 q 321 1019 308 1028 q 333 986 333 1011 l 333 675 q 340 641 333 658 q 356 610 346 624 q 380 587 367 596 q 408 578 393 578 l 408 425 q 357 392 381 418 q 333 325 333 365 l 333 -1 q 322 -35 333 -26 q 301 -43 310 -43 l 57 -43 l 57 133 l 133 133 l 133 400 q 149 456 133 432 q 186 500 164 481 q 149 544 164 519 q 133 600 133 568 l 133 851 l 57 851 z "},"[":{"ha":446,"x_min":93,"x_max":390,"o":"m 93 -56 l 93 1028 l 390 1028 l 390 851 l 297 851 l 297 121 l 390 121 l 390 -56 l 93 -56 z "},"]":{"ha":446,"x_min":56,"x_max":354,"o":"m 56 -56 l 56 121 l 149 121 l 149 851 l 56 851 l 56 1028 l 354 1028 l 354 -56 l 56 -56 z "},"¦":{"ha":372,"x_min":93,"x_max":281,"o":"m 281 361 l 281 -181 l 93 -181 l 93 361 l 281 361 m 281 1076 l 281 535 l 93 535 l 93 1076 l 281 1076 z "},"•":{"ha":508,"x_min":101,"x_max":407,"o":"m 407 488 q 395 428 407 456 q 363 379 383 400 q 314 347 342 358 q 254 335 286 335 q 194 347 222 335 q 146 379 167 358 q 113 428 125 400 q 101 488 101 456 q 113 546 101 518 q 146 594 125 574 q 194 628 167 615 q 254 640 222 640 q 314 628 286 640 q 363 594 342 615 q 395 546 383 574 q 407 488 407 518 z "},"c":{"ha":792,"x_min":33,"x_max":768,"o":"m 33 365 q 60 509 33 440 q 136 630 86 578 q 259 713 186 682 q 425 743 332 743 q 638 690 551 743 q 767 550 724 636 l 550 485 q 424 554 507 554 q 308 503 354 554 q 261 365 261 451 q 274 287 261 322 q 308 226 286 251 q 360 188 331 201 q 424 174 390 174 q 500 194 465 174 q 551 246 535 214 l 768 179 q 640 40 728 94 q 425 -14 551 -14 q 260 17 333 -14 q 137 101 188 49 q 60 222 86 153 q 33 365 33 290 z "},"ć":{"ha":792,"x_min":33,"x_max":768,"o":"m 488 794 l 346 833 l 418 1014 l 619 1014 l 488 794 m 33 365 q 60 509 33 440 q 136 630 86 578 q 259 713 186 682 q 425 743 332 743 q 638 690 551 743 q 767 550 724 636 l 550 485 q 424 554 507 554 q 308 503 354 554 q 261 365 261 451 q 274 287 261 322 q 308 226 286 251 q 360 188 331 201 q 424 174 390 174 q 500 194 465 174 q 551 246 535 214 l 768 179 q 640 40 728 94 q 425 -14 551 -14 q 260 17 333 -14 q 137 101 188 49 q 60 222 86 153 q 33 365 33 290 z "},"č":{"ha":792,"x_min":33,"x_max":768,"o":"m 306 1014 l 424 926 l 542 1014 l 656 963 l 504 814 l 344 814 l 192 963 l 306 1014 m 33 365 q 60 509 33 440 q 136 630 86 578 q 259 713 186 682 q 425 743 332 743 q 638 690 551 743 q 767 550 724 636 l 550 485 q 424 554 507 554 q 308 503 354 554 q 261 365 261 451 q 274 287 261 322 q 308 226 286 251 q 360 188 331 201 q 424 174 390 174 q 500 194 465 174 q 551 246 535 214 l 768 179 q 640 40 728 94 q 425 -14 551 -14 q 260 17 333 -14 q 137 101 188 49 q 60 222 86 153 q 33 365 33 290 z "},"ç":{"ha":794,"x_min":35,"x_max":769,"o":"m 314 -176 q 365 -195 329 -186 q 439 -204 401 -204 q 494 -194 472 -204 q 517 -160 517 -185 q 496 -126 517 -136 q 442 -115 475 -115 q 380 -121 413 -115 q 332 -131 347 -126 l 390 -12 q 241 26 307 -7 q 129 111 175 60 q 59 228 83 163 q 35 365 35 293 q 61 509 35 440 q 138 630 88 578 q 260 713 188 682 q 426 743 333 743 q 639 690 553 743 q 768 550 725 636 l 551 485 q 425 554 508 554 q 309 503 356 554 q 263 365 263 451 q 275 287 263 322 q 310 226 288 251 q 362 188 332 201 q 425 174 392 174 q 501 194 467 174 q 553 246 536 214 l 769 179 q 659 52 733 104 q 479 -11 585 0 l 451 -53 q 493 -49 469 -49 q 581 -73 543 -49 q 618 -151 618 -97 q 571 -245 618 -207 q 424 -283 524 -283 q 338 -274 375 -283 q 272 -254 300 -265 l 314 -176 z "},"ĉ":{"ha":792,"x_min":33,"x_max":768,"o":"m 192 864 l 344 1014 l 504 1014 l 656 864 l 542 814 l 424 901 l 306 814 l 192 864 m 33 365 q 60 509 33 440 q 136 630 86 578 q 259 713 186 682 q 425 743 332 743 q 638 690 551 743 q 767 550 724 636 l 550 485 q 424 554 507 554 q 308 503 354 554 q 261 365 261 451 q 274 287 261 322 q 308 226 286 251 q 360 188 331 201 q 424 174 390 174 q 500 194 465 174 q 551 246 535 214 l 768 179 q 640 40 728 94 q 425 -14 551 -14 q 260 17 333 -14 q 137 101 188 49 q 60 222 86 153 q 33 365 33 290 z "},"ċ":{"ha":792,"x_min":33,"x_max":768,"o":"m 33 365 q 60 509 33 440 q 136 630 86 578 q 259 713 186 682 q 425 743 332 743 q 638 690 551 743 q 767 550 724 636 l 550 485 q 424 554 507 554 q 308 503 354 554 q 261 365 261 451 q 274 287 261 322 q 308 226 286 251 q 360 188 331 201 q 424 174 390 174 q 500 194 465 174 q 551 246 535 214 l 768 179 q 640 40 728 94 q 425 -14 551 -14 q 260 17 333 -14 q 137 101 188 49 q 60 222 86 153 q 33 365 33 290 m 325 824 l 325 1014 l 525 1014 l 525 824 l 325 824 z "},"¢":{"ha":842,"x_min":54,"x_max":792,"o":"m 386 -167 l 386 -12 q 252 27 313 -7 q 147 113 192 61 q 78 228 103 164 q 54 358 54 292 q 76 492 54 429 q 139 606 97 556 q 242 692 181 657 q 386 740 304 728 l 386 896 l 482 896 l 482 740 q 659 690 578 738 q 789 550 740 643 l 574 485 q 533 528 558 511 q 482 547 508 544 l 482 179 q 538 205 513 188 q 575 246 564 222 l 792 179 q 731 94 769 131 q 649 34 693 58 q 561 -2 606 10 q 482 -14 517 -14 l 482 -167 l 386 -167 m 283 358 q 310 258 283 304 q 386 190 338 211 l 386 538 q 310 472 338 522 q 283 358 283 422 z "},":":{"ha":363,"x_min":90,"x_max":272,"o":"m 90 494 l 90 721 l 272 721 l 272 494 l 90 494 m 90 0 l 90 226 l 272 226 l 272 0 l 90 0 z "},",":{"ha":346,"x_min":32,"x_max":265,"o":"m 32 -26 q 45 -25 36 -26 q 63 -18 54 -24 q 77 -3 71 -12 q 85 22 83 6 l 85 226 l 265 226 l 265 -19 q 242 -99 265 -68 q 185 -149 219 -131 q 110 -176 151 -168 q 32 -183 69 -183 l 32 -26 z "},"©":{"ha":1174,"x_min":57,"x_max":1117,"o":"m 582 -10 q 373 28 469 -10 q 206 134 276 67 q 97 293 136 201 q 57 493 57 385 q 97 692 57 600 q 206 850 136 783 q 373 955 276 917 q 582 993 469 993 q 795 955 697 993 q 965 850 893 917 q 1076 692 1036 783 q 1117 493 1117 600 q 1076 293 1117 385 q 965 134 1036 201 q 795 28 893 67 q 582 -10 697 -10 m 582 68 q 759 99 676 68 q 902 186 842 131 q 997 319 963 242 q 1032 492 1032 397 q 998 658 1032 581 q 903 792 964 735 q 761 883 843 850 q 582 915 679 915 q 407 883 488 915 q 267 793 326 850 q 175 659 208 736 q 142 493 142 582 q 175 326 142 404 q 267 192 208 249 q 407 101 326 135 q 582 68 488 68 m 594 158 q 444 185 511 158 q 330 256 376 211 q 258 362 283 301 q 233 492 233 422 q 256 617 233 557 q 324 724 279 678 q 437 799 369 771 q 593 826 504 826 q 794 775 711 826 q 917 639 876 724 l 701 572 q 653 624 682 608 q 592 639 624 639 q 497 597 533 639 q 461 492 461 556 q 472 430 461 457 q 502 384 483 403 q 544 356 521 365 q 593 346 568 346 q 656 363 626 346 q 703 413 686 381 l 919 347 q 870 274 900 308 q 799 213 840 239 q 707 173 758 188 q 594 158 656 158 z "},"d":{"ha":917,"x_min":35,"x_max":869,"o":"m 379 -14 q 241 15 304 -14 q 132 94 178 43 q 60 215 86 146 q 35 365 35 283 q 58 514 35 444 q 125 634 82 583 q 227 714 168 685 q 357 743 286 743 q 494 707 432 743 q 590 610 557 671 l 590 1014 l 813 1014 l 813 250 q 825 203 813 217 q 869 188 838 190 l 869 0 q 809 -9 835 -7 q 763 -11 783 -11 q 629 82 646 -8 l 625 121 q 519 19 585 53 q 379 -14 454 -14 m 439 174 q 526 201 485 174 q 592 275 568 228 l 592 428 q 524 519 571 483 q 428 554 478 554 q 362 538 392 554 q 310 496 332 522 q 276 435 288 469 q 264 361 264 400 q 313 226 264 279 q 439 174 361 174 z "},"†":{"ha":675,"x_min":49,"x_max":625,"o":"m 232 -181 l 232 276 l 49 276 l 49 476 l 232 476 l 232 1076 l 443 1076 l 443 476 l 625 476 l 625 276 l 443 276 l 443 -181 l 232 -181 z "},"‡":{"ha":690,"x_min":57,"x_max":633,"o":"m 240 -181 l 240 110 l 57 110 l 57 310 l 240 310 l 240 465 l 57 465 l 57 665 l 240 665 l 240 1076 l 451 1076 l 451 665 l 633 665 l 633 465 l 451 465 l 451 310 l 633 310 l 633 110 l 451 110 l 451 -181 l 240 -181 z "},"ď":{"ha":917,"x_min":35,"x_max":1119,"o":"m 988 794 l 846 833 l 918 1014 l 1119 1014 l 988 794 m 379 -14 q 241 15 304 -14 q 132 94 178 43 q 60 215 86 146 q 35 365 35 283 q 58 514 35 444 q 125 634 82 583 q 227 714 168 685 q 357 743 286 743 q 494 707 432 743 q 590 610 557 671 l 590 1014 l 813 1014 l 813 250 q 825 203 813 217 q 869 188 838 190 l 869 0 q 809 -9 835 -7 q 763 -11 783 -11 q 629 82 646 -8 l 625 121 q 519 19 585 53 q 379 -14 454 -14 m 439 174 q 526 201 485 174 q 592 275 568 228 l 592 428 q 524 519 571 483 q 428 554 478 554 q 362 538 392 554 q 310 496 332 522 q 276 435 288 469 q 264 361 264 400 q 313 226 264 279 q 439 174 361 174 z "},"đ":{"ha":917,"x_min":35,"x_max":897,"o":"m 379 -14 q 241 15 304 -14 q 132 94 178 43 q 60 215 86 146 q 35 365 35 283 q 58 514 35 444 q 125 634 82 583 q 227 714 168 685 q 357 743 286 743 q 494 707 432 743 q 590 610 557 671 l 590 817 l 460 817 l 460 947 l 590 947 l 590 1014 l 813 1014 l 813 947 l 897 947 l 897 817 l 813 817 l 813 250 q 825 203 813 217 q 869 188 838 190 l 869 0 q 809 -9 835 -7 q 763 -11 783 -11 q 629 82 646 -8 l 625 121 q 519 19 585 53 q 379 -14 454 -14 m 439 174 q 526 201 485 174 q 592 275 568 228 l 592 428 q 524 519 571 483 q 428 554 478 554 q 362 538 392 554 q 310 496 332 522 q 276 435 288 469 q 264 361 264 400 q 313 226 264 279 q 439 174 361 174 z "},"°":{"ha":410,"x_min":51,"x_max":357,"o":"m 51 858 q 94 963 51 921 q 204 1006 138 1006 q 315 963 272 1006 q 357 858 357 921 q 315 743 357 786 q 204 700 272 700 q 94 744 138 700 q 51 858 51 788 m 169 886 q 160 872 164 879 q 156 853 156 864 q 160 834 156 843 q 169 819 164 825 q 204 804 185 804 q 239 819 226 804 q 249 835 246 825 q 253 853 253 844 q 239 886 253 872 q 204 900 226 900 q 169 886 183 900 z "},"÷":{"ha":692,"x_min":65,"x_max":626,"o":"m 253 592 l 253 790 l 440 790 l 440 592 l 253 592 m 253 53 l 253 251 l 440 251 l 440 53 l 253 53 m 65 333 l 65 510 l 626 510 l 626 333 l 65 333 z "},"$":{"ha":890,"x_min":46,"x_max":838,"o":"m 708 697 q 683 715 704 703 q 631 742 663 728 q 562 770 600 757 q 485 789 524 783 l 485 600 l 529 589 q 657 547 600 569 q 754 490 714 524 q 816 407 794 456 q 838 290 838 358 q 810 156 838 211 q 735 65 782 100 q 628 11 689 29 q 501 -10 568 -7 l 501 -171 l 404 -171 l 404 -8 q 215 31 308 0 q 46 111 121 63 l 146 310 q 176 287 151 303 q 239 253 201 271 q 324 219 276 235 q 421 197 371 203 l 421 382 l 354 401 q 236 447 286 422 q 153 503 186 471 q 103 576 119 535 q 88 674 88 618 q 113 802 88 746 q 180 899 138 858 q 280 962 222 939 q 404 992 338 985 l 404 1132 l 501 1132 l 501 992 q 671 951 593 983 q 807 886 749 919 l 708 697 m 592 268 q 563 324 592 304 q 485 361 533 344 l 485 194 q 592 268 592 199 m 324 710 q 348 656 324 675 q 421 619 372 636 l 421 790 q 324 710 324 782 z "},"ı":{"ha":372,"x_min":75,"x_max":297,"o":"m 75 0 l 75 729 l 297 729 l 297 0 l 75 0 z "},"ȷ":{"ha":372,"x_min":-165,"x_max":297,"o":"m 29 -281 q -75 -263 -25 -281 q -165 -211 -125 -246 l -72 -60 q -39 -82 -58 -75 q 1 -89 -19 -89 q 54 -68 33 -89 q 75 -12 75 -47 l 75 729 l 297 729 l 297 4 q 277 -111 297 -58 q 221 -201 257 -164 q 136 -260 185 -239 q 29 -281 88 -281 z "},"e":{"ha":839,"x_min":33,"x_max":814,"o":"m 425 -14 q 260 16 333 -14 q 137 97 188 46 q 60 216 86 149 q 33 357 33 283 q 60 506 33 436 q 136 629 86 576 q 259 713 186 682 q 425 743 332 743 q 590 713 518 743 q 713 630 663 682 q 788 510 763 578 q 814 367 814 442 q 813 328 814 347 q 808 296 811 310 l 269 296 q 323 184 275 222 q 432 146 371 146 q 526 169 481 146 q 586 233 571 193 l 775 181 q 642 40 732 94 q 425 -14 551 -14 m 579 433 q 529 543 572 503 q 422 583 486 583 q 315 542 357 583 q 265 433 272 501 l 579 433 z "},"é":{"ha":839,"x_min":33,"x_max":814,"o":"m 486 794 l 344 833 l 417 1014 l 618 1014 l 486 794 m 425 -14 q 260 16 333 -14 q 137 97 188 46 q 60 216 86 149 q 33 357 33 283 q 60 506 33 436 q 136 629 86 576 q 259 713 186 682 q 425 743 332 743 q 590 713 518 743 q 713 630 663 682 q 788 510 763 578 q 814 367 814 442 q 813 328 814 347 q 808 296 811 310 l 269 296 q 323 184 275 222 q 432 146 371 146 q 526 169 481 146 q 586 233 571 193 l 775 181 q 642 40 732 94 q 425 -14 551 -14 m 579 433 q 529 543 572 503 q 422 583 486 583 q 315 542 357 583 q 265 433 272 501 l 579 433 z "},"ĕ":{"ha":839,"x_min":33,"x_max":814,"o":"m 425 -14 q 260 16 333 -14 q 137 97 188 46 q 60 216 86 149 q 33 357 33 283 q 60 506 33 436 q 136 629 86 576 q 259 713 186 682 q 425 743 332 743 q 590 713 518 743 q 713 630 663 682 q 788 510 763 578 q 814 367 814 442 q 813 328 814 347 q 808 296 811 310 l 269 296 q 323 184 275 222 q 432 146 371 146 q 526 169 481 146 q 586 233 571 193 l 775 181 q 642 40 732 94 q 425 -14 551 -14 m 579 433 q 529 543 572 503 q 422 583 486 583 q 315 542 357 583 q 265 433 272 501 l 579 433 m 422 907 q 478 937 454 907 q 507 1014 503 967 l 622 1014 q 608 932 622 969 q 567 867 593 894 q 503 825 540 840 q 422 810 467 810 q 342 825 378 810 q 278 867 306 840 q 237 932 251 894 q 222 1014 222 969 l 340 1014 q 365 938 340 969 q 422 907 389 907 z "},"ě":{"ha":839,"x_min":33,"x_max":814,"o":"m 304 1014 l 422 926 l 540 1014 l 654 963 l 503 814 l 343 814 l 190 963 l 304 1014 m 425 -14 q 260 16 333 -14 q 137 97 188 46 q 60 216 86 149 q 33 357 33 283 q 60 506 33 436 q 136 629 86 576 q 259 713 186 682 q 425 743 332 743 q 590 713 518 743 q 713 630 663 682 q 788 510 763 578 q 814 367 814 442 q 813 328 814 347 q 808 296 811 310 l 269 296 q 323 184 275 222 q 432 146 371 146 q 526 169 481 146 q 586 233 571 193 l 775 181 q 642 40 732 94 q 425 -14 551 -14 m 579 433 q 529 543 572 503 q 422 583 486 583 q 315 542 357 583 q 265 433 272 501 l 579 433 z "},"ê":{"ha":839,"x_min":33,"x_max":814,"o":"m 190 864 l 343 1014 l 503 1014 l 654 864 l 540 814 l 422 901 l 304 814 l 190 864 m 425 -14 q 260 16 333 -14 q 137 97 188 46 q 60 216 86 149 q 33 357 33 283 q 60 506 33 436 q 136 629 86 576 q 259 713 186 682 q 425 743 332 743 q 590 713 518 743 q 713 630 663 682 q 788 510 763 578 q 814 367 814 442 q 813 328 814 347 q 808 296 811 310 l 269 296 q 323 184 275 222 q 432 146 371 146 q 526 169 481 146 q 586 233 571 193 l 775 181 q 642 40 732 94 q 425 -14 551 -14 m 579 433 q 529 543 572 503 q 422 583 486 583 q 315 542 357 583 q 265 433 272 501 l 579 433 z "},"ë":{"ha":839,"x_min":33,"x_max":814,"o":"m 186 825 l 186 1004 l 369 1004 l 369 825 l 186 825 m 478 825 l 478 1004 l 661 1004 l 661 825 l 478 825 m 425 -14 q 260 16 333 -14 q 137 97 188 46 q 60 216 86 149 q 33 357 33 283 q 60 506 33 436 q 136 629 86 576 q 259 713 186 682 q 425 743 332 743 q 590 713 518 743 q 713 630 663 682 q 788 510 763 578 q 814 367 814 442 q 813 328 814 347 q 808 296 811 310 l 269 296 q 323 184 275 222 q 432 146 371 146 q 526 169 481 146 q 586 233 571 193 l 775 181 q 642 40 732 94 q 425 -14 551 -14 m 579 433 q 529 543 572 503 q 422 583 486 583 q 315 542 357 583 q 265 433 272 501 l 579 433 z "},"ė":{"ha":839,"x_min":33,"x_max":814,"o":"m 425 -14 q 260 16 333 -14 q 137 97 188 46 q 60 216 86 149 q 33 357 33 283 q 60 506 33 436 q 136 629 86 576 q 259 713 186 682 q 425 743 332 743 q 590 713 518 743 q 713 630 663 682 q 788 510 763 578 q 814 367 814 442 q 813 328 814 347 q 808 296 811 310 l 269 296 q 323 184 275 222 q 432 146 371 146 q 526 169 481 146 q 586 233 571 193 l 775 181 q 642 40 732 94 q 425 -14 551 -14 m 579 433 q 529 543 572 503 q 422 583 486 583 q 315 542 357 583 q 265 433 272 501 l 579 433 m 324 824 l 324 1014 l 524 1014 l 524 824 l 324 824 z "},"è":{"ha":839,"x_min":33,"x_max":814,"o":"m 425 -14 q 260 16 333 -14 q 137 97 188 46 q 60 216 86 149 q 33 357 33 283 q 60 506 33 436 q 136 629 86 576 q 259 713 186 682 q 425 743 332 743 q 590 713 518 743 q 713 630 663 682 q 788 510 763 578 q 814 367 814 442 q 813 328 814 347 q 808 296 811 310 l 269 296 q 323 184 275 222 q 432 146 371 146 q 526 169 481 146 q 586 233 571 193 l 775 181 q 642 40 732 94 q 425 -14 551 -14 m 579 433 q 529 543 572 503 q 422 583 486 583 q 315 542 357 583 q 265 433 272 501 l 579 433 m 226 1015 l 428 1015 l 500 835 l 360 796 l 226 1015 z "},"₈":{"ha":597,"x_min":42,"x_max":554,"o":"m 554 178 q 533 103 554 138 q 478 44 513 69 q 396 6 443 19 q 297 -8 349 -8 q 198 6 244 -8 q 117 46 151 21 q 62 106 82 71 q 42 181 42 140 q 76 266 42 235 q 156 319 110 297 q 92 362 119 335 q 64 432 64 389 q 85 499 64 468 q 139 551 106 529 q 214 585 172 572 q 297 597 256 597 q 381 585 339 597 q 456 552 422 574 q 511 500 490 531 q 532 433 532 469 q 506 364 532 393 q 440 319 479 335 q 522 263 489 296 q 554 178 554 229 m 424 192 q 413 221 424 208 q 384 242 401 233 q 344 256 367 251 q 297 261 321 261 q 210 242 247 261 q 172 192 172 224 q 183 163 172 175 q 213 140 194 150 q 253 126 231 131 q 299 121 275 121 q 345 126 322 121 q 385 140 368 131 q 413 163 403 150 q 424 192 424 176 m 193 419 q 226 381 193 394 q 297 367 260 367 q 369 381 335 367 q 403 419 403 394 q 371 458 403 443 q 297 472 339 472 q 224 458 256 472 q 193 419 193 443 z "},"⁸":{"ha":597,"x_min":42,"x_max":554,"o":"m 554 594 q 533 520 554 554 q 478 461 513 486 q 396 422 443 436 q 297 408 349 408 q 198 423 244 408 q 117 463 151 438 q 62 522 82 488 q 42 597 42 557 q 76 683 42 651 q 156 736 110 714 q 92 778 119 751 q 64 849 64 806 q 85 915 64 885 q 139 967 106 946 q 214 1001 172 989 q 297 1014 256 1014 q 381 1002 339 1014 q 456 969 422 990 q 511 917 490 947 q 532 850 532 886 q 506 781 532 810 q 440 736 479 751 q 522 679 489 713 q 554 594 554 646 m 424 608 q 413 638 424 625 q 384 659 401 650 q 344 673 367 668 q 297 678 321 678 q 210 659 247 678 q 172 608 172 640 q 183 579 172 592 q 213 557 194 567 q 253 542 231 547 q 299 538 275 538 q 345 542 322 538 q 385 557 368 547 q 413 580 403 567 q 424 608 424 593 m 193 836 q 226 797 193 811 q 297 783 260 783 q 369 797 335 783 q 403 836 403 811 q 371 875 403 861 q 297 889 339 889 q 224 874 256 889 q 193 836 193 860 z "},"…":{"ha":913,"x_min":75,"x_max":838,"o":"m 75 0 l 75 226 l 256 226 l 256 0 l 75 0 m 365 0 l 365 226 l 547 226 l 547 0 l 365 0 m 657 0 l 657 226 l 838 226 l 838 0 l 657 0 z "},"ē":{"ha":839,"x_min":33,"x_max":814,"o":"m 425 -14 q 260 16 333 -14 q 137 97 188 46 q 60 216 86 149 q 33 357 33 283 q 60 506 33 436 q 136 629 86 576 q 259 713 186 682 q 425 743 332 743 q 590 713 518 743 q 713 630 663 682 q 788 510 763 578 q 814 367 814 442 q 813 328 814 347 q 808 296 811 310 l 269 296 q 323 184 275 222 q 432 146 371 146 q 526 169 481 146 q 586 233 571 193 l 775 181 q 642 40 732 94 q 425 -14 551 -14 m 579 433 q 529 543 572 503 q 422 583 486 583 q 315 542 357 583 q 265 433 272 501 l 579 433 m 213 863 l 213 997 l 635 997 l 635 863 l 213 863 z "},"—":{"ha":1301,"x_min":75,"x_max":1226,"o":"m 75 282 l 75 482 l 1226 482 l 1226 282 l 75 282 z "},"–":{"ha":854,"x_min":75,"x_max":779,"o":"m 75 282 l 75 482 l 779 482 l 779 282 l 75 282 z "},"ŋ":{"ha":847,"x_min":75,"x_max":778,"o":"m 510 -281 q 406 -263 456 -281 q 315 -211 356 -246 l 408 -60 q 442 -82 422 -75 q 482 -89 461 -89 q 535 -68 514 -89 q 557 -12 557 -47 l 557 410 q 530 515 557 482 q 458 547 503 547 q 410 538 435 547 q 365 510 386 528 q 325 469 343 493 q 297 418 307 446 l 297 0 l 75 0 l 75 729 l 275 729 l 275 607 q 389 708 315 672 q 558 743 463 743 q 673 717 629 743 q 740 651 717 692 q 770 561 763 610 q 778 467 778 513 l 778 4 q 757 -111 778 -58 q 700 -201 736 -164 q 615 -260 664 -239 q 510 -281 567 -281 z "},"ę":{"ha":842,"x_min":35,"x_max":815,"o":"m 469 -285 q 346 -237 386 -274 q 306 -156 306 -201 q 329 -83 306 -119 q 401 -12 353 -46 q 247 23 315 -8 q 132 105 179 54 q 60 221 85 156 q 35 357 35 286 q 61 506 35 436 q 138 629 88 576 q 260 713 188 682 q 426 743 333 743 q 592 713 519 743 q 714 630 664 682 q 790 510 764 578 q 815 367 815 442 q 814 328 815 347 q 810 296 813 310 l 271 296 q 324 184 276 222 q 433 146 372 146 q 527 169 482 146 q 588 233 572 193 l 776 181 q 681 66 743 114 q 532 -1 618 18 q 422 -124 422 -68 q 444 -162 422 -147 q 513 -178 467 -176 l 469 -285 m 581 433 q 531 543 574 503 q 424 583 488 583 q 316 542 358 583 q 267 433 274 501 l 581 433 z "},"=":{"ha":604,"x_min":82,"x_max":524,"o":"m 82 172 l 82 314 l 524 314 l 524 172 l 82 172 m 82 453 l 82 594 l 524 594 l 524 453 l 82 453 z "},"ð":{"ha":857,"x_min":38,"x_max":817,"o":"m 746 904 l 654 854 q 775 640 733 758 q 817 404 817 522 q 788 228 817 306 q 708 97 760 151 q 585 15 657 43 q 425 -14 513 -14 q 270 12 342 -14 q 147 83 199 38 q 67 190 96 128 q 38 325 38 251 q 63 453 38 393 q 133 559 89 514 q 239 630 178 604 q 369 656 300 656 q 492 631 435 656 q 589 567 550 607 q 485 781 561 683 l 365 717 l 304 801 l 411 858 q 178 1014 318 940 l 454 1014 q 578 932 521 981 l 685 989 l 746 904 m 265 325 q 310 216 265 258 q 426 174 356 174 q 491 185 461 174 q 543 218 521 197 q 577 267 565 239 q 589 328 589 294 q 544 436 589 394 q 428 478 499 478 q 311 435 357 478 q 265 325 265 392 z "},"ẽ":{"ha":839,"x_min":33,"x_max":814,"o":"m 425 -14 q 260 16 333 -14 q 137 97 188 46 q 60 216 86 149 q 33 357 33 283 q 60 506 33 436 q 136 629 86 576 q 259 713 186 682 q 425 743 332 743 q 590 713 518 743 q 713 630 663 682 q 788 510 763 578 q 814 367 814 442 q 813 328 814 347 q 808 296 811 310 l 269 296 q 323 184 275 222 q 432 146 371 146 q 526 169 481 146 q 586 233 571 193 l 775 181 q 642 40 732 94 q 425 -14 551 -14 m 579 433 q 529 543 572 503 q 422 583 486 583 q 315 542 357 583 q 265 433 272 501 l 579 433 m 511 817 q 455 826 479 817 q 410 849 431 836 q 369 871 389 861 q 326 881 350 881 q 290 871 303 881 q 271 849 278 861 q 263 826 264 836 q 261 814 261 815 l 142 814 q 151 862 142 829 q 181 928 160 894 q 235 986 201 961 q 318 1011 269 1011 q 375 1001 351 1011 q 419 978 399 990 q 458 955 439 965 q 503 944 478 944 q 541 955 526 944 q 563 978 556 965 q 573 1001 571 990 q 575 1014 575 1013 l 694 1014 q 685 971 694 1003 q 653 904 675 939 q 597 843 632 869 q 511 817 563 817 z "},"!":{"ha":426,"x_min":103,"x_max":325,"o":"m 103 392 l 103 996 l 325 996 l 325 392 l 103 392 m 103 0 l 103 231 l 325 231 l 325 0 l 103 0 z "},"¡":{"ha":426,"x_min":103,"x_max":325,"o":"m 325 596 l 325 -8 l 103 -8 l 103 596 l 325 596 m 325 988 l 325 757 l 103 757 l 103 988 l 325 988 z "},"f":{"ha":549,"x_min":33,"x_max":571,"o":"m 126 0 l 126 476 l 33 476 l 33 644 l 126 644 l 126 729 q 144 853 126 797 q 196 947 163 908 q 276 1007 229 986 q 382 1028 324 1028 q 571 985 472 1028 l 531 818 q 481 834 508 828 q 431 840 454 840 q 349 738 349 840 l 349 644 l 518 644 l 518 476 l 349 476 l 349 0 l 126 0 z "},"ﬀ":{"ha":938,"x_min":33,"x_max":958,"o":"m 819 840 q 751 811 772 840 q 731 738 731 782 l 731 644 l 907 644 l 907 476 l 731 476 l 731 0 l 508 0 l 508 476 l 349 476 l 349 0 l 126 0 l 126 476 l 33 476 l 33 644 l 126 644 l 126 683 q 144 802 126 747 q 196 896 163 857 q 277 957 229 935 q 386 979 325 979 q 478 969 431 979 q 574 939 525 958 q 656 1003 607 979 q 772 1028 706 1028 q 867 1015 821 1028 q 958 985 913 1003 l 917 818 q 870 833 896 826 q 819 840 844 840 m 508 707 q 508 719 508 710 q 510 741 508 729 q 512 763 511 753 q 515 775 513 772 q 473 788 496 783 q 432 792 450 792 q 368 762 388 792 q 349 692 349 732 l 349 644 l 508 644 l 508 707 z "},"ﬃ":{"ha":1208,"x_min":33,"x_max":1133,"o":"m 126 476 l 33 476 l 33 644 l 126 644 l 126 683 q 144 802 126 747 q 196 896 163 857 q 277 957 229 935 q 386 979 325 979 q 478 969 431 979 q 574 939 525 958 q 676 1003 614 979 q 818 1028 738 1028 q 963 1002 889 1028 q 1114 928 1036 976 l 1028 760 q 937 818 988 796 q 842 840 886 840 q 757 811 783 840 q 731 738 731 782 l 731 644 l 1133 644 l 1133 0 l 910 0 l 910 476 l 731 476 l 731 0 l 508 0 l 508 476 l 349 476 l 349 0 l 126 0 l 126 476 m 508 644 l 508 707 q 508 721 508 711 q 510 742 508 731 q 512 763 511 753 q 515 775 513 772 q 473 788 496 783 q 432 792 450 792 q 368 762 388 792 q 349 692 349 732 l 349 644 l 508 644 z "},"ﬄ":{"ha":1340,"x_min":33,"x_max":1339,"o":"m 1147 -11 q 1061 2 1099 -11 q 998 38 1024 15 q 958 90 972 60 q 944 153 944 119 l 944 679 q 940 733 944 704 q 925 785 936 761 q 892 825 914 810 q 836 840 871 840 q 787 828 807 840 q 754 797 767 817 q 736 751 742 776 q 731 697 731 725 l 731 644 l 840 644 l 840 476 l 731 476 l 731 0 l 508 0 l 508 476 l 349 476 l 349 0 l 126 0 l 126 476 l 33 476 l 33 644 l 126 644 l 126 686 q 144 806 126 751 q 197 898 163 860 q 278 958 231 936 q 385 979 326 979 q 479 969 433 979 q 574 939 525 958 q 683 1006 617 983 q 833 1028 749 1028 q 1086 947 1006 1028 q 1167 733 1167 867 l 1167 267 q 1181 213 1167 240 q 1231 186 1196 186 q 1256 190 1243 186 q 1281 197 1269 193 q 1301 203 1293 200 q 1311 207 1310 207 l 1339 28 q 1320 20 1338 26 q 1276 7 1303 14 q 1215 -6 1249 0 q 1147 -11 1181 -11 m 508 644 l 508 706 q 508 720 508 710 q 509 742 508 731 q 511 763 510 753 q 514 776 513 774 q 473 788 494 785 q 435 792 451 792 q 369 765 390 792 q 349 693 349 738 l 349 644 l 508 644 z "},"ﬁ":{"ha":826,"x_min":33,"x_max":751,"o":"m 126 476 l 33 476 l 33 644 l 126 644 l 126 729 q 149 848 126 793 q 212 943 171 903 q 311 1006 253 983 q 440 1028 369 1028 q 590 1001 519 1028 q 732 928 660 975 l 646 760 q 553 818 604 796 q 454 840 503 840 q 375 811 401 840 q 349 738 349 782 l 349 644 l 751 644 l 751 0 l 529 0 l 529 476 l 349 476 l 349 0 l 126 0 l 126 476 z "},"ﬂ":{"ha":960,"x_min":33,"x_max":957,"o":"m 957 28 q 938 20 956 26 q 894 7 921 14 q 833 -6 867 0 q 765 -11 799 -11 q 681 2 718 -11 q 617 38 643 15 q 576 90 590 60 q 563 153 563 119 l 563 679 q 559 733 563 704 q 544 785 556 761 q 510 825 532 810 q 454 840 489 840 q 405 828 425 840 q 372 797 385 817 q 354 751 360 776 q 349 697 349 725 l 349 644 l 458 644 l 458 476 l 349 476 l 349 0 l 126 0 l 126 476 l 33 476 l 33 644 l 126 644 l 126 750 q 149 872 126 819 q 215 958 172 924 q 318 1010 258 993 q 453 1028 378 1028 q 601 1007 539 1028 q 705 947 664 986 q 765 854 746 908 q 785 733 785 800 l 785 267 q 799 213 785 240 q 849 186 814 186 q 874 190 861 186 q 899 197 888 193 q 919 203 911 200 q 929 207 928 207 l 957 28 z "},"⅝":{"ha":1421,"x_min":47,"x_max":1371,"o":"m 1371 178 q 1350 103 1371 138 q 1294 44 1329 69 q 1213 6 1260 19 q 1114 -8 1165 -8 q 1015 6 1061 -8 q 933 46 968 21 q 878 106 899 71 q 858 181 858 140 q 892 266 858 235 q 972 319 926 297 q 908 362 936 335 q 881 432 881 389 q 901 499 881 468 q 956 551 922 529 q 1031 585 989 572 q 1114 597 1072 597 q 1197 585 1156 597 q 1273 552 1239 574 q 1328 500 1307 531 q 1349 433 1349 469 q 1322 364 1349 393 q 1257 319 1296 335 q 1338 263 1306 296 q 1371 178 1371 229 m 1240 192 q 1229 221 1240 208 q 1201 242 1218 233 q 1160 256 1183 251 q 1114 261 1138 261 q 1026 242 1064 261 q 989 192 989 224 q 1000 163 989 175 q 1029 140 1011 150 q 1069 126 1047 131 q 1115 121 1092 121 q 1162 126 1139 121 q 1202 140 1185 131 q 1230 163 1219 150 q 1240 192 1240 176 m 1010 419 q 1043 381 1010 394 q 1114 367 1076 367 q 1185 381 1151 367 q 1219 419 1219 394 q 1188 458 1219 443 q 1114 472 1156 472 q 1041 458 1072 472 q 1010 419 1010 443 m 307 806 q 399 792 357 806 q 473 752 442 778 q 522 691 504 726 q 540 614 540 656 q 521 531 540 568 q 466 466 501 493 q 383 424 431 439 q 278 408 335 408 q 141 435 203 408 q 47 507 79 461 l 122 594 q 192 550 150 567 q 285 533 233 533 q 372 554 336 533 q 408 619 408 575 q 398 660 408 643 q 372 689 388 678 q 335 705 356 700 q 297 710 315 710 q 228 693 264 710 q 178 649 193 676 l 65 649 q 85 739 74 692 q 108 834 96 786 q 130 928 119 882 q 147 1015 140 975 l 493 1015 l 493 886 l 240 886 l 211 788 q 248 800 225 794 q 307 806 271 806 m 279 78 l 671 528 l 1026 999 l 1126 910 l 747 471 l 378 -12 l 279 78 z "},"⁵":{"ha":560,"x_min":32,"x_max":525,"o":"m 292 806 q 384 792 342 806 q 458 752 426 778 q 507 691 489 726 q 525 614 525 656 q 506 531 525 568 q 451 466 486 493 q 367 424 415 439 q 263 408 319 408 q 126 435 188 408 q 32 507 64 461 l 107 594 q 176 550 135 567 q 269 533 218 533 q 357 554 321 533 q 393 619 393 575 q 383 660 393 643 q 356 689 372 678 q 320 705 340 700 q 282 710 300 710 q 213 693 249 710 q 163 649 178 676 l 50 649 q 69 739 58 692 q 92 834 81 786 q 115 928 104 882 q 132 1015 125 975 l 478 1015 l 478 886 l 225 886 l 196 788 q 233 800 210 794 q 292 806 256 806 z "},"⁄":{"ha":304,"x_min":-271,"x_max":576,"o":"m -271 78 l 121 528 l 476 999 l 576 910 l 197 471 l -172 -12 l -271 78 z "},"₅":{"ha":560,"x_min":31,"x_max":524,"o":"m 290 389 q 383 375 340 389 q 456 335 425 361 q 506 274 488 310 q 524 196 524 239 q 504 114 524 151 q 449 49 485 76 q 366 7 414 22 q 261 -8 318 -8 q 124 18 186 -8 q 31 89 63 44 l 106 178 q 175 133 133 150 q 268 117 217 117 q 356 138 319 117 q 392 203 392 158 q 381 244 392 226 q 355 272 371 261 q 319 288 339 283 q 281 293 299 293 q 212 276 247 293 q 161 232 176 260 l 49 232 q 68 322 57 275 q 91 417 79 369 q 113 512 103 465 q 131 599 124 558 l 476 599 l 476 469 l 224 469 l 194 371 q 231 383 208 378 q 290 389 254 389 z "},"ƒ":{"ha":774,"x_min":40,"x_max":725,"o":"m 235 -281 q 131 -263 181 -281 q 40 -211 81 -246 l 133 -60 q 167 -82 147 -75 q 207 -89 186 -89 q 260 -68 239 -89 q 281 -12 281 -47 l 281 476 l 188 476 l 188 644 l 281 644 l 281 729 q 299 853 281 797 q 350 947 317 908 q 431 1007 383 986 q 535 1028 478 1028 q 725 985 624 1028 l 685 818 q 635 834 663 828 q 585 840 608 840 q 503 738 503 840 l 503 644 l 672 644 l 672 476 l 503 476 l 503 -7 q 482 -118 503 -68 q 425 -204 461 -168 q 340 -260 389 -240 q 235 -281 290 -281 z "},"₄":{"ha":583,"x_min":28,"x_max":546,"o":"m 331 1 l 331 124 l 28 124 l 28 250 l 371 599 l 460 599 l 460 250 l 546 250 l 546 124 l 460 124 l 460 1 l 331 1 m 150 250 l 336 250 l 336 442 l 150 250 z "},"⁴":{"ha":583,"x_min":28,"x_max":546,"o":"m 331 418 l 331 540 l 28 540 l 28 667 l 371 1015 l 460 1015 l 460 667 l 546 667 l 546 540 l 460 540 l 460 418 l 331 418 m 150 667 l 336 667 l 336 858 l 150 667 z "},"g":{"ha":888,"x_min":36,"x_max":813,"o":"m 358 -3 q 227 26 286 -3 q 126 106 168 56 q 60 222 83 156 q 36 365 36 289 q 61 515 36 446 q 131 634 86 583 q 238 714 175 685 q 375 743 300 743 q 519 708 457 743 q 619 610 582 672 l 619 729 l 813 729 l 813 50 q 781 -100 813 -33 q 694 -213 750 -167 q 561 -285 639 -260 q 390 -310 483 -310 q 189 -272 272 -310 q 43 -164 106 -235 l 161 -43 q 262 -116 201 -89 q 390 -143 322 -143 q 467 -132 431 -143 q 531 -98 503 -121 q 574 -38 558 -75 q 590 50 590 -1 l 590 121 q 494 28 557 60 q 358 -3 431 -3 m 436 174 q 527 202 488 174 q 590 275 567 231 l 590 428 q 522 520 568 486 q 425 554 476 554 q 359 538 389 554 q 308 495 329 522 q 274 433 286 468 q 263 360 263 397 q 276 285 263 319 q 312 226 289 251 q 367 188 335 201 q 436 174 399 174 z "},"ğ":{"ha":888,"x_min":36,"x_max":813,"o":"m 358 -3 q 227 26 286 -3 q 126 106 168 56 q 60 222 83 156 q 36 365 36 289 q 61 515 36 446 q 131 634 86 583 q 238 714 175 685 q 375 743 300 743 q 519 708 457 743 q 619 610 582 672 l 619 729 l 813 729 l 813 50 q 781 -100 813 -33 q 694 -213 750 -167 q 561 -285 639 -260 q 390 -310 483 -310 q 189 -272 272 -310 q 43 -164 106 -235 l 161 -43 q 262 -116 201 -89 q 390 -143 322 -143 q 467 -132 431 -143 q 531 -98 503 -121 q 574 -38 558 -75 q 590 50 590 -1 l 590 121 q 494 28 557 60 q 358 -3 431 -3 m 436 174 q 527 202 488 174 q 590 275 567 231 l 590 428 q 522 520 568 486 q 425 554 476 554 q 359 538 389 554 q 308 495 329 522 q 274 433 286 468 q 263 360 263 397 q 276 285 263 319 q 312 226 289 251 q 367 188 335 201 q 436 174 399 174 m 481 907 q 537 937 513 907 q 565 1014 561 967 l 681 1014 q 666 932 681 969 q 625 867 651 894 q 562 825 599 840 q 481 810 525 810 q 400 825 436 810 q 337 867 364 840 q 295 932 310 894 q 281 1014 281 969 l 399 1014 q 423 938 399 969 q 481 907 447 907 z "},"ĝ":{"ha":888,"x_min":36,"x_max":813,"o":"m 249 864 l 401 1014 l 561 1014 l 713 864 l 599 814 l 481 901 l 363 814 l 249 864 m 358 -3 q 227 26 286 -3 q 126 106 168 56 q 60 222 83 156 q 36 365 36 289 q 61 515 36 446 q 131 634 86 583 q 238 714 175 685 q 375 743 300 743 q 519 708 457 743 q 619 610 582 672 l 619 729 l 813 729 l 813 50 q 781 -100 813 -33 q 694 -213 750 -167 q 561 -285 639 -260 q 390 -310 483 -310 q 189 -272 272 -310 q 43 -164 106 -235 l 161 -43 q 262 -116 201 -89 q 390 -143 322 -143 q 467 -132 431 -143 q 531 -98 503 -121 q 574 -38 558 -75 q 590 50 590 -1 l 590 121 q 494 28 557 60 q 358 -3 431 -3 m 436 174 q 527 202 488 174 q 590 275 567 231 l 590 428 q 522 520 568 486 q 425 554 476 554 q 359 538 389 554 q 308 495 329 522 q 274 433 286 468 q 263 360 263 397 q 276 285 263 319 q 312 226 289 251 q 367 188 335 201 q 436 174 399 174 z "},"ģ":{"ha":888,"x_min":36,"x_max":813,"o":"m 544 794 l 403 833 l 475 1014 l 676 1014 l 544 794 m 358 -3 q 227 26 286 -3 q 126 106 168 56 q 60 222 83 156 q 36 365 36 289 q 61 515 36 446 q 131 634 86 583 q 238 714 175 685 q 375 743 300 743 q 519 708 457 743 q 619 610 582 672 l 619 729 l 813 729 l 813 50 q 781 -100 813 -33 q 694 -213 750 -167 q 561 -285 639 -260 q 390 -310 483 -310 q 189 -272 272 -310 q 43 -164 106 -235 l 161 -43 q 262 -116 201 -89 q 390 -143 322 -143 q 467 -132 431 -143 q 531 -98 503 -121 q 574 -38 558 -75 q 590 50 590 -1 l 590 121 q 494 28 557 60 q 358 -3 431 -3 m 436 174 q 527 202 488 174 q 590 275 567 231 l 590 428 q 522 520 568 486 q 425 554 476 554 q 359 538 389 554 q 308 495 329 522 q 274 433 286 468 q 263 360 263 397 q 276 285 263 319 q 312 226 289 251 q 367 188 335 201 q 436 174 399 174 z "},"ġ":{"ha":888,"x_min":36,"x_max":813,"o":"m 358 -3 q 227 26 286 -3 q 126 106 168 56 q 60 222 83 156 q 36 365 36 289 q 61 515 36 446 q 131 634 86 583 q 238 714 175 685 q 375 743 300 743 q 519 708 457 743 q 619 610 582 672 l 619 729 l 813 729 l 813 50 q 781 -100 813 -33 q 694 -213 750 -167 q 561 -285 639 -260 q 390 -310 483 -310 q 189 -272 272 -310 q 43 -164 106 -235 l 161 -43 q 262 -116 201 -89 q 390 -143 322 -143 q 467 -132 431 -143 q 531 -98 503 -121 q 574 -38 558 -75 q 590 50 590 -1 l 590 121 q 494 28 557 60 q 358 -3 431 -3 m 436 174 q 527 202 488 174 q 590 275 567 231 l 590 428 q 522 520 568 486 q 425 554 476 554 q 359 538 389 554 q 308 495 329 522 q 274 433 286 468 q 263 360 263 397 q 276 285 263 319 q 312 226 289 251 q 367 188 335 201 q 436 174 399 174 m 381 824 l 381 1014 l 581 1014 l 581 824 l 381 824 z "},"ß":{"ha":778,"x_min":75,"x_max":744,"o":"m 347 196 q 464 226 417 196 q 511 321 511 257 q 499 374 511 351 q 469 413 488 397 q 427 435 450 428 q 382 443 404 443 l 351 443 l 351 642 l 379 642 q 440 664 419 642 q 461 722 461 686 q 451 765 461 749 q 428 790 442 781 q 399 801 414 799 q 375 804 385 804 q 330 792 347 804 q 303 763 313 781 q 290 726 293 746 q 286 690 286 706 l 286 0 l 75 0 l 75 729 q 99 834 75 786 q 167 917 124 882 q 268 972 210 953 q 394 992 326 992 q 505 976 454 992 q 593 931 556 960 q 651 858 631 901 q 672 761 672 815 q 663 693 672 725 q 639 635 654 661 q 604 589 624 608 q 563 560 585 569 q 695 463 646 532 q 744 294 744 394 q 710 152 744 210 q 620 59 676 94 q 492 8 564 24 q 347 -8 421 -8 l 347 196 z "},">":{"ha":710,"x_min":78,"x_max":665,"o":"m 665 301 l 78 -46 l 78 203 l 342 360 l 78 526 l 78 763 l 665 407 l 665 301 z "},"«":{"ha":940,"x_min":47,"x_max":864,"o":"m 47 407 l 421 675 l 421 496 l 222 360 l 421 233 l 421 54 l 47 301 l 47 407 m 489 407 l 864 675 l 864 496 l 665 360 l 864 233 l 864 54 l 489 301 l 489 407 z "},"»":{"ha":940,"x_min":75,"x_max":893,"o":"m 893 301 l 518 54 l 518 233 l 718 360 l 518 496 l 518 675 l 893 407 l 893 301 m 450 301 l 75 54 l 75 233 l 275 360 l 75 496 l 75 675 l 450 407 l 450 301 z "},"‹":{"ha":497,"x_min":47,"x_max":421,"o":"m 47 407 l 421 675 l 421 496 l 222 360 l 421 233 l 421 54 l 47 301 l 47 407 z "},"›":{"ha":497,"x_min":75,"x_max":450,"o":"m 450 301 l 75 54 l 75 233 l 275 360 l 75 496 l 75 675 l 450 407 l 450 301 z "},"h":{"ha":849,"x_min":75,"x_max":779,"o":"m 779 0 l 557 0 l 557 410 q 528 514 557 481 q 451 547 500 547 q 409 538 432 547 q 365 512 386 529 q 325 471 343 494 q 297 418 307 447 l 297 0 l 75 0 l 75 1014 l 297 1014 l 297 607 q 403 708 338 672 q 550 743 469 743 q 669 717 624 743 q 738 652 714 692 q 771 563 763 613 q 779 467 779 514 l 779 0 z "},"ħ":{"ha":849,"x_min":24,"x_max":779,"o":"m 779 0 l 557 0 l 557 410 q 528 514 557 481 q 451 547 500 547 q 409 538 432 547 q 365 512 386 529 q 325 471 343 494 q 297 418 307 447 l 297 0 l 75 0 l 75 817 l 24 817 l 24 947 l 75 947 l 75 1014 l 297 1014 l 297 947 l 460 947 l 460 817 l 297 817 l 297 607 q 403 708 338 672 q 550 743 469 743 q 669 717 624 743 q 738 652 714 692 q 771 563 763 613 q 779 467 779 514 l 779 0 z "},"ĥ":{"ha":849,"x_min":75,"x_max":779,"o":"m 351 867 l 482 1013 l 617 1013 l 746 867 l 649 818 l 549 903 l 449 818 l 351 867 m 779 0 l 557 0 l 557 410 q 528 514 557 481 q 451 547 500 547 q 409 538 432 547 q 365 512 386 529 q 325 471 343 494 q 297 418 307 447 l 297 0 l 75 0 l 75 1014 l 297 1014 l 297 607 q 403 708 338 672 q 550 743 469 743 q 669 717 624 743 q 738 652 714 692 q 771 563 763 613 q 779 467 779 514 l 779 0 z "},"-":{"ha":576,"x_min":75,"x_max":503,"o":"m 75 282 l 75 482 l 503 482 l 503 282 l 75 282 z "},"i":{"ha":372,"x_min":75,"x_max":297,"o":"m 75 0 l 75 729 l 297 729 l 297 0 l 75 0 m 75 813 l 75 1014 l 297 1014 l 297 813 l 75 813 z "},"í":{"ha":372,"x_min":75,"x_max":382,"o":"m 250 794 l 108 833 l 181 1014 l 382 1014 l 250 794 m 75 0 l 75 729 l 297 729 l 297 0 l 75 0 z "},"ĭ":{"ha":372,"x_min":-14,"x_max":386,"o":"m 75 0 l 75 729 l 297 729 l 297 0 l 75 0 m 186 907 q 242 937 218 907 q 271 1014 267 967 l 386 1014 q 372 932 386 969 q 331 867 357 894 q 267 825 304 840 q 186 810 231 810 q 106 825 142 810 q 42 867 69 840 q 1 932 15 894 q -14 1014 -14 969 l 104 1014 q 128 938 104 969 q 186 907 153 907 z "},"î":{"ha":372,"x_min":-46,"x_max":418,"o":"m -46 864 l 107 1014 l 267 1014 l 418 864 l 304 814 l 186 901 l 68 814 l -46 864 m 75 0 l 75 729 l 297 729 l 297 0 l 75 0 z "},"ï":{"ha":372,"x_min":-51,"x_max":424,"o":"m -51 825 l -51 1004 l 132 1004 l 132 825 l -51 825 m 240 825 l 240 1004 l 424 1004 l 424 825 l 240 825 m 75 0 l 75 729 l 297 729 l 297 0 l 75 0 z "},"ì":{"ha":372,"x_min":-10,"x_max":297,"o":"m 75 0 l 75 729 l 297 729 l 297 0 l 75 0 m -10 1015 l 192 1015 l 264 835 l 124 796 l -10 1015 z "},"ĳ":{"ha":746,"x_min":75,"x_max":669,"o":"m 75 0 l 75 729 l 297 729 l 297 0 l 75 0 m 75 813 l 75 1014 l 297 1014 l 297 813 l 75 813 m 401 -281 q 297 -263 347 -281 q 207 -211 247 -246 l 300 -60 q 333 -82 314 -75 q 374 -89 353 -89 q 426 -68 406 -89 q 447 -12 447 -47 l 447 729 l 669 729 l 669 4 q 649 -111 669 -58 q 593 -201 629 -164 q 508 -260 557 -239 q 401 -281 460 -281 m 447 813 l 447 1014 l 669 1014 l 669 813 l 447 813 z "},"j":{"ha":372,"x_min":-165,"x_max":297,"o":"m 29 -281 q -75 -263 -25 -281 q -165 -211 -125 -246 l -72 -60 q -39 -82 -58 -75 q 1 -89 -19 -89 q 54 -68 33 -89 q 75 -12 75 -47 l 75 729 l 297 729 l 297 4 q 277 -111 297 -58 q 221 -201 257 -164 q 136 -260 185 -239 q 29 -281 88 -281 m 75 813 l 75 1014 l 297 1014 l 297 813 l 75 813 z "},"ī":{"ha":372,"x_min":-24,"x_max":399,"o":"m 75 0 l 75 729 l 297 729 l 297 0 l 75 0 m -24 863 l -24 997 l 399 997 l 399 863 l -24 863 z "},"į":{"ha":374,"x_min":67,"x_max":297,"o":"m 231 -285 q 107 -237 147 -274 q 67 -156 67 -201 q 96 -76 67 -115 q 183 0 125 -36 l 75 0 l 75 729 l 297 729 l 297 0 q 183 -124 183 -67 q 206 -162 183 -147 q 274 -178 228 -176 l 231 -285 m 75 813 l 75 1014 l 297 1014 l 297 813 l 75 813 z "},"ĩ":{"ha":372,"x_min":-94,"x_max":458,"o":"m 75 0 l 75 729 l 297 729 l 297 0 l 75 0 m 275 817 q 219 826 243 817 q 174 849 194 836 q 133 871 153 861 q 90 881 114 881 q 54 871 67 881 q 35 849 42 861 q 26 826 28 836 q 25 814 25 815 l -94 814 q -85 862 -94 829 q -56 928 -76 894 q -1 986 -35 961 q 82 1011 33 1011 q 139 1001 115 1011 q 183 978 163 990 q 222 955 203 965 q 267 944 242 944 q 305 955 290 944 q 327 978 319 965 q 337 1001 335 990 q 339 1014 339 1013 l 458 1014 q 449 971 458 1003 q 417 904 439 939 q 361 843 396 869 q 275 817 326 817 z "},"ĵ":{"ha":372,"x_min":-165,"x_max":418,"o":"m 29 -281 q -75 -263 -25 -281 q -165 -211 -125 -246 l -72 -60 q -39 -82 -58 -75 q 1 -89 -19 -89 q 54 -68 33 -89 q 75 -12 75 -47 l 75 729 l 297 729 l 297 4 q 277 -111 297 -58 q 221 -201 257 -164 q 136 -260 185 -239 q 29 -281 88 -281 m -46 864 l 107 1014 l 267 1014 l 418 864 l 304 814 l 186 901 l 68 814 l -46 864 z "},"k":{"ha":789,"x_min":75,"x_max":801,"o":"m 565 0 l 375 293 l 297 213 l 297 0 l 75 0 l 75 1014 l 297 1014 l 297 426 l 544 729 l 781 729 l 518 415 l 801 0 l 565 0 z "},"ķ":{"ha":789,"x_min":75,"x_max":801,"o":"m 263 -192 q 315 -154 315 -192 l 315 -65 l 496 -65 l 496 -162 q 478 -226 496 -203 q 428 -260 460 -249 q 355 -276 397 -272 q 263 -279 313 -279 l 263 -192 m 565 0 l 375 293 l 297 213 l 297 0 l 75 0 l 75 1014 l 297 1014 l 297 426 l 544 729 l 781 729 l 518 415 l 801 0 l 565 0 z "},"ĸ":{"ha":789,"x_min":75,"x_max":801,"o":"m 565 0 l 375 293 l 297 213 l 297 0 l 75 0 l 75 729 l 297 729 l 297 426 l 544 729 l 781 729 l 518 415 l 801 0 l 565 0 z "},"l":{"ha":471,"x_min":74,"x_max":469,"o":"m 74 1014 l 296 1014 l 296 272 q 368 189 296 189 q 403 194 383 189 q 440 208 424 200 l 469 29 q 374 -1 428 10 q 274 -12 319 -12 q 126 38 178 -12 q 74 182 74 88 l 74 1014 z "},"ĺ":{"ha":471,"x_min":74,"x_max":469,"o":"m 246 1058 l 104 1097 l 176 1278 l 378 1278 l 246 1058 m 74 1014 l 296 1014 l 296 272 q 368 189 296 189 q 403 194 383 189 q 440 208 424 200 l 469 29 q 374 -1 428 10 q 274 -12 319 -12 q 126 38 178 -12 q 74 182 74 88 l 74 1014 z "},"ľ":{"ha":471,"x_min":74,"x_max":621,"o":"m 489 793 l 347 832 l 419 1013 l 621 1013 l 489 793 m 74 1014 l 296 1014 l 296 272 q 368 189 296 189 q 403 194 383 189 q 440 208 424 200 l 469 29 q 374 -1 428 10 q 274 -12 319 -12 q 126 38 178 -12 q 74 182 74 88 l 74 1014 z "},"ļ":{"ha":471,"x_min":74,"x_max":469,"o":"m 126 -192 q 179 -154 179 -192 l 179 -65 l 360 -65 l 360 -162 q 342 -226 360 -203 q 292 -260 324 -249 q 219 -276 261 -272 q 126 -279 176 -279 l 126 -192 m 74 1014 l 296 1014 l 296 272 q 368 189 296 189 q 403 194 383 189 q 440 208 424 200 l 469 29 q 374 -1 428 10 q 274 -12 319 -12 q 126 38 178 -12 q 74 182 74 88 l 74 1014 z "},"ŀ":{"ha":594,"x_min":74,"x_max":572,"o":"m 74 1014 l 296 1014 l 296 272 q 368 189 296 189 q 403 194 383 189 q 440 208 424 200 l 469 29 q 374 -1 428 10 q 274 -12 319 -12 q 126 38 178 -12 q 74 182 74 88 l 74 1014 m 392 403 l 392 633 l 572 633 l 572 403 l 392 403 z "},"<":{"ha":710,"x_min":44,"x_max":631,"o":"m 44 407 l 631 763 l 631 526 l 367 360 l 631 203 l 631 -46 l 44 301 l 44 407 z "},"¬":{"ha":868,"x_min":78,"x_max":782,"o":"m 782 576 l 782 136 l 594 136 l 594 376 l 78 376 l 78 576 l 782 576 z "},"ł":{"ha":510,"x_min":-11,"x_max":503,"o":"m 107 397 l 42 363 l -11 482 l 107 546 l 107 1014 l 329 1014 l 329 667 l 446 731 l 499 611 l 329 518 l 329 272 q 401 189 329 189 q 437 194 417 189 q 474 208 457 200 l 503 29 q 407 -1 461 10 q 307 -12 353 -12 q 159 38 211 -12 q 107 182 107 88 l 107 397 z "},"m":{"ha":1297,"x_min":75,"x_max":1228,"o":"m 1228 0 l 1006 0 l 1006 410 q 980 515 1006 482 q 911 547 954 547 q 824 511 867 547 q 763 418 782 475 l 763 0 l 540 0 l 540 410 q 515 515 540 482 q 446 547 489 547 q 359 512 401 547 q 297 418 317 476 l 297 0 l 75 0 l 75 729 l 275 729 l 275 607 q 385 708 315 674 q 546 743 454 743 q 625 732 590 743 q 684 701 660 721 q 724 656 708 682 q 747 601 740 631 q 856 706 788 669 q 1011 743 924 743 q 1123 717 1081 743 q 1189 651 1165 692 q 1220 561 1213 610 q 1228 467 1228 513 l 1228 0 z "},"−":{"ha":724,"x_min":82,"x_max":643,"o":"m 82 385 l 82 561 l 643 561 l 643 385 l 82 385 z "},"µ":{"ha":906,"x_min":92,"x_max":854,"o":"m 92 729 l 314 729 l 314 311 q 340 209 314 244 q 421 174 367 174 q 501 197 460 174 q 575 279 543 221 l 575 729 l 797 729 l 797 250 q 810 203 797 217 q 854 188 822 190 l 854 0 q 794 -9 819 -7 q 747 -11 768 -11 q 614 82 631 -8 l 610 126 q 581 81 601 106 q 533 36 560 57 q 473 1 506 15 q 407 -14 440 -14 q 363 -6 382 -14 q 330 12 343 1 q 309 34 317 22 q 300 53 301 46 l 314 -296 l 92 -296 l 92 729 z "},"×":{"ha":672,"x_min":65,"x_max":607,"o":"m 607 251 l 468 114 l 335 246 l 203 114 l 65 251 l 197 383 l 72 510 l 211 647 l 336 522 l 461 647 l 599 510 l 474 385 l 607 251 z "},"n":{"ha":849,"x_min":75,"x_max":779,"o":"m 779 0 l 557 0 l 557 410 q 530 515 557 482 q 458 547 503 547 q 410 538 435 547 q 365 510 386 528 q 325 469 343 493 q 297 418 307 446 l 297 0 l 75 0 l 75 729 l 275 729 l 275 607 q 389 708 315 672 q 558 743 463 743 q 673 717 629 743 q 740 651 717 692 q 772 561 764 610 q 779 467 779 513 l 779 0 z "},"ń":{"ha":849,"x_min":75,"x_max":779,"o":"m 513 794 l 371 833 l 443 1014 l 644 1014 l 513 794 m 779 0 l 557 0 l 557 410 q 530 515 557 482 q 458 547 503 547 q 410 538 435 547 q 365 510 386 528 q 325 469 343 493 q 297 418 307 446 l 297 0 l 75 0 l 75 729 l 275 729 l 275 607 q 389 708 315 672 q 558 743 463 743 q 673 717 629 743 q 740 651 717 692 q 772 561 764 610 q 779 467 779 513 l 779 0 z "},"ŉ":{"ha":849,"x_min":-46,"x_max":779,"o":"m 96 794 l -46 833 l 0 944 l -11 1014 l 229 1014 l 96 794 m 779 0 l 557 0 l 557 410 q 530 515 557 482 q 458 547 503 547 q 410 538 435 547 q 365 510 386 528 q 325 469 343 493 q 297 418 307 446 l 297 0 l 75 0 l 75 729 l 275 729 l 275 607 q 389 708 315 672 q 558 743 463 743 q 673 717 629 743 q 740 651 717 692 q 772 561 764 610 q 779 467 779 513 l 779 0 z "},"ň":{"ha":849,"x_min":75,"x_max":779,"o":"m 331 1014 l 449 926 l 567 1014 l 681 963 l 529 814 l 369 814 l 217 963 l 331 1014 m 779 0 l 557 0 l 557 410 q 530 515 557 482 q 458 547 503 547 q 410 538 435 547 q 365 510 386 528 q 325 469 343 493 q 297 418 307 446 l 297 0 l 75 0 l 75 729 l 275 729 l 275 607 q 389 708 315 672 q 558 743 463 743 q 673 717 629 743 q 740 651 717 692 q 772 561 764 610 q 779 467 779 513 l 779 0 z "},"ņ":{"ha":849,"x_min":75,"x_max":779,"o":"m 279 -192 q 332 -154 332 -192 l 332 -65 l 513 -65 l 513 -162 q 494 -226 513 -203 q 445 -260 476 -249 q 372 -276 414 -272 q 279 -279 329 -279 l 279 -192 m 779 0 l 557 0 l 557 410 q 530 515 557 482 q 458 547 503 547 q 410 538 435 547 q 365 510 386 528 q 325 469 343 493 q 297 418 307 446 l 297 0 l 75 0 l 75 729 l 275 729 l 275 607 q 389 708 315 672 q 558 743 463 743 q 673 717 629 743 q 740 651 717 692 q 772 561 764 610 q 779 467 779 513 l 779 0 z "},"ṅ":{"ha":849,"x_min":75,"x_max":779,"o":"m 350 824 l 350 1014 l 550 1014 l 550 824 l 350 824 m 779 0 l 557 0 l 557 410 q 530 515 557 482 q 458 547 503 547 q 410 538 435 547 q 365 510 386 528 q 325 469 343 493 q 297 418 307 446 l 297 0 l 75 0 l 75 729 l 275 729 l 275 607 q 389 708 315 672 q 558 743 463 743 q 673 717 629 743 q 740 651 717 692 q 772 561 764 610 q 779 467 779 513 l 779 0 z "},"₉":{"ha":601,"x_min":39,"x_max":557,"o":"m 39 393 q 58 475 39 436 q 113 542 78 514 q 195 586 147 569 q 299 603 243 603 q 488 528 418 603 q 557 314 557 453 q 484 76 557 161 q 282 -8 411 -8 q 160 14 217 -8 q 67 78 104 36 l 140 168 q 203 128 164 143 q 286 114 242 114 q 395 147 354 114 q 438 239 436 179 q 374 206 417 217 q 290 194 331 194 q 189 210 235 194 q 110 251 143 225 q 58 315 76 278 q 39 393 39 351 m 296 483 q 244 476 268 483 q 202 457 221 469 q 173 428 183 444 q 163 393 163 411 q 202 333 163 357 q 297 308 242 308 q 392 333 353 308 q 432 393 432 357 q 421 428 432 411 q 391 457 410 444 q 348 476 372 469 q 296 483 324 483 z "},"⁹":{"ha":601,"x_min":39,"x_max":557,"o":"m 39 804 q 58 887 39 849 q 113 953 78 925 q 195 998 147 982 q 299 1014 243 1014 q 488 939 418 1014 q 557 726 557 864 q 484 488 557 572 q 282 403 411 403 q 160 425 217 403 q 67 490 104 447 l 140 579 q 203 540 164 554 q 286 525 242 525 q 395 558 354 525 q 438 650 436 592 q 374 618 417 629 q 290 607 331 607 q 189 622 235 607 q 110 664 143 638 q 58 726 76 690 q 39 804 39 763 m 296 894 q 244 888 268 894 q 202 868 221 881 q 173 839 183 856 q 163 804 163 822 q 202 744 163 769 q 297 719 242 719 q 392 744 353 719 q 432 804 432 769 q 421 839 432 822 q 391 868 410 856 q 348 888 372 881 q 296 894 324 894 z "},"ñ":{"ha":849,"x_min":75,"x_max":779,"o":"m 779 0 l 557 0 l 557 410 q 530 515 557 482 q 458 547 503 547 q 410 538 435 547 q 365 510 386 528 q 325 469 343 493 q 297 418 307 446 l 297 0 l 75 0 l 75 729 l 275 729 l 275 607 q 389 708 315 672 q 558 743 463 743 q 673 717 629 743 q 740 651 717 692 q 772 561 764 610 q 779 467 779 513 l 779 0 m 538 817 q 481 826 506 817 q 436 849 457 836 q 396 871 415 861 q 353 881 376 881 q 317 871 329 881 q 297 849 304 861 q 289 826 290 836 q 288 814 288 815 l 168 814 q 177 862 168 829 q 207 928 186 894 q 262 986 228 961 q 344 1011 296 1011 q 401 1001 378 1011 q 445 978 425 990 q 485 955 465 965 q 529 944 504 944 q 567 955 553 944 q 590 978 582 965 q 599 1001 597 990 q 601 1014 601 1013 l 721 1014 q 711 971 721 1003 q 680 904 701 939 q 624 843 658 869 q 538 817 589 817 z "},"#":{"ha":1026,"x_min":51,"x_max":975,"o":"m 975 572 l 765 572 l 728 414 l 907 414 l 907 249 l 688 249 l 628 0 l 450 0 l 511 249 l 383 249 l 324 0 l 146 0 l 207 249 l 51 249 l 51 414 l 247 414 l 285 572 l 119 572 l 119 725 l 322 725 l 386 986 l 564 986 l 499 725 l 626 725 l 690 986 l 868 986 l 803 725 l 975 725 l 975 572 m 551 414 l 588 572 l 461 572 l 424 414 l 551 414 z "},"o":{"ha":846,"x_min":33,"x_max":814,"o":"m 424 -14 q 258 17 331 -14 q 135 99 185 47 q 59 220 85 151 q 33 364 33 289 q 59 508 33 439 q 135 628 85 576 q 258 712 185 681 q 424 743 331 743 q 589 712 517 743 q 711 628 661 681 q 788 508 761 576 q 814 364 814 439 q 788 220 814 289 q 713 99 763 151 q 590 17 663 47 q 424 -14 517 -14 m 261 364 q 307 226 261 278 q 424 174 353 174 q 488 188 458 174 q 538 226 517 201 q 572 287 560 251 q 585 364 585 322 q 539 502 585 450 q 424 554 493 554 q 359 540 389 554 q 308 501 329 526 q 274 441 286 476 q 261 364 261 406 z "},"ó":{"ha":846,"x_min":33,"x_max":814,"o":"m 486 794 l 344 833 l 417 1014 l 618 1014 l 486 794 m 424 -14 q 258 17 331 -14 q 135 99 185 47 q 59 220 85 151 q 33 364 33 289 q 59 508 33 439 q 135 628 85 576 q 258 712 185 681 q 424 743 331 743 q 589 712 517 743 q 711 628 661 681 q 788 508 761 576 q 814 364 814 439 q 788 220 814 289 q 713 99 763 151 q 590 17 663 47 q 424 -14 517 -14 m 261 364 q 307 226 261 278 q 424 174 353 174 q 488 188 458 174 q 538 226 517 201 q 572 287 560 251 q 585 364 585 322 q 539 502 585 450 q 424 554 493 554 q 359 540 389 554 q 308 501 329 526 q 274 441 286 476 q 261 364 261 406 z "},"ŏ":{"ha":846,"x_min":33,"x_max":814,"o":"m 424 -14 q 258 17 331 -14 q 135 99 185 47 q 59 220 85 151 q 33 364 33 289 q 59 508 33 439 q 135 628 85 576 q 258 712 185 681 q 424 743 331 743 q 589 712 517 743 q 711 628 661 681 q 788 508 761 576 q 814 364 814 439 q 788 220 814 289 q 713 99 763 151 q 590 17 663 47 q 424 -14 517 -14 m 261 364 q 307 226 261 278 q 424 174 353 174 q 488 188 458 174 q 538 226 517 201 q 572 287 560 251 q 585 364 585 322 q 539 502 585 450 q 424 554 493 554 q 359 540 389 554 q 308 501 329 526 q 274 441 286 476 q 261 364 261 406 m 422 907 q 478 937 454 907 q 507 1014 503 967 l 622 1014 q 608 932 622 969 q 567 867 593 894 q 503 825 540 840 q 422 810 467 810 q 342 825 378 810 q 278 867 306 840 q 237 932 251 894 q 222 1014 222 969 l 340 1014 q 365 938 340 969 q 422 907 389 907 z "},"ô":{"ha":846,"x_min":33,"x_max":814,"o":"m 190 864 l 343 1014 l 503 1014 l 654 864 l 540 814 l 422 901 l 304 814 l 190 864 m 424 -14 q 258 17 331 -14 q 135 99 185 47 q 59 220 85 151 q 33 364 33 289 q 59 508 33 439 q 135 628 85 576 q 258 712 185 681 q 424 743 331 743 q 589 712 517 743 q 711 628 661 681 q 788 508 761 576 q 814 364 814 439 q 788 220 814 289 q 713 99 763 151 q 590 17 663 47 q 424 -14 517 -14 m 261 364 q 307 226 261 278 q 424 174 353 174 q 488 188 458 174 q 538 226 517 201 q 572 287 560 251 q 585 364 585 322 q 539 502 585 450 q 424 554 493 554 q 359 540 389 554 q 308 501 329 526 q 274 441 286 476 q 261 364 261 406 z "},"ö":{"ha":846,"x_min":33,"x_max":814,"o":"m 186 825 l 186 1004 l 369 1004 l 369 825 l 186 825 m 478 825 l 478 1004 l 661 1004 l 661 825 l 478 825 m 424 -14 q 258 17 331 -14 q 135 99 185 47 q 59 220 85 151 q 33 364 33 289 q 59 508 33 439 q 135 628 85 576 q 258 712 185 681 q 424 743 331 743 q 589 712 517 743 q 711 628 661 681 q 788 508 761 576 q 814 364 814 439 q 788 220 814 289 q 713 99 763 151 q 590 17 663 47 q 424 -14 517 -14 m 261 364 q 307 226 261 278 q 424 174 353 174 q 488 188 458 174 q 538 226 517 201 q 572 287 560 251 q 585 364 585 322 q 539 502 585 450 q 424 554 493 554 q 359 540 389 554 q 308 501 329 526 q 274 441 286 476 q 261 364 261 406 z "},"œ":{"ha":1393,"x_min":33,"x_max":1367,"o":"m 421 -14 q 265 15 336 -14 q 143 93 194 43 q 63 213 92 143 q 33 364 33 282 q 63 515 33 446 q 143 635 92 585 q 265 715 194 686 q 419 743 336 743 q 577 706 508 743 q 699 596 646 668 q 825 707 757 671 q 981 743 893 743 q 1134 715 1064 743 q 1256 637 1204 688 q 1336 517 1307 586 q 1367 364 1365 447 q 1365 328 1367 347 q 1361 296 1364 310 l 822 296 q 839 235 825 263 q 875 186 853 207 q 927 153 897 165 q 990 142 957 142 q 1088 167 1043 142 q 1147 233 1132 193 l 1329 181 q 1272 100 1307 136 q 1191 39 1236 64 q 1093 0 1146 14 q 983 -14 1040 -14 q 835 20 901 -14 q 699 125 769 54 q 565 19 629 51 q 421 -14 501 -14 m 424 174 q 540 227 494 174 q 585 364 585 281 q 540 501 585 447 q 424 554 494 554 q 358 540 388 554 q 307 501 329 526 q 273 440 285 475 q 261 364 261 406 q 307 226 261 279 q 424 174 353 174 m 1136 431 q 1084 542 1129 500 q 974 583 1039 583 q 865 541 907 583 q 815 431 822 499 l 1136 431 z "},"ò":{"ha":846,"x_min":33,"x_max":814,"o":"m 424 -14 q 258 17 331 -14 q 135 99 185 47 q 59 220 85 151 q 33 364 33 289 q 59 508 33 439 q 135 628 85 576 q 258 712 185 681 q 424 743 331 743 q 589 712 517 743 q 711 628 661 681 q 788 508 761 576 q 814 364 814 439 q 788 220 814 289 q 713 99 763 151 q 590 17 663 47 q 424 -14 517 -14 m 261 364 q 307 226 261 278 q 424 174 353 174 q 488 188 458 174 q 538 226 517 201 q 572 287 560 251 q 585 364 585 322 q 539 502 585 450 q 424 554 493 554 q 359 540 389 554 q 308 501 329 526 q 274 441 286 476 q 261 364 261 406 m 228 1015 l 429 1015 l 501 835 l 361 796 l 228 1015 z "},"ő":{"ha":846,"x_min":33,"x_max":814,"o":"m 335 796 l 228 835 l 290 1015 l 457 1015 l 335 796 m 578 796 l 471 835 l 532 1015 l 699 1015 l 578 796 m 424 -14 q 258 17 331 -14 q 135 99 185 47 q 59 220 85 151 q 33 364 33 289 q 59 508 33 439 q 135 628 85 576 q 258 712 185 681 q 424 743 331 743 q 589 712 517 743 q 711 628 661 681 q 788 508 761 576 q 814 364 814 439 q 788 220 814 289 q 713 99 763 151 q 590 17 663 47 q 424 -14 517 -14 m 261 364 q 307 226 261 278 q 424 174 353 174 q 488 188 458 174 q 538 226 517 201 q 572 287 560 251 q 585 364 585 322 q 539 502 585 450 q 424 554 493 554 q 359 540 389 554 q 308 501 329 526 q 274 441 286 476 q 261 364 261 406 z "},"ō":{"ha":846,"x_min":33,"x_max":814,"o":"m 214 863 l 214 997 l 636 997 l 636 863 l 214 863 m 424 -14 q 258 17 331 -14 q 135 99 185 47 q 59 220 85 151 q 33 364 33 289 q 59 508 33 439 q 135 628 85 576 q 258 712 185 681 q 424 743 331 743 q 589 712 517 743 q 711 628 661 681 q 788 508 761 576 q 814 364 814 439 q 788 220 814 289 q 713 99 763 151 q 590 17 663 47 q 424 -14 517 -14 m 261 364 q 307 226 261 278 q 424 174 353 174 q 488 188 458 174 q 538 226 517 201 q 572 287 560 251 q 585 364 585 322 q 539 502 585 450 q 424 554 493 554 q 359 540 389 554 q 308 501 329 526 q 274 441 286 476 q 261 364 261 406 z "},"⅛":{"ha":1376,"x_min":60,"x_max":1326,"o":"m 1326 178 q 1306 103 1326 138 q 1250 44 1285 69 q 1168 6 1215 19 q 1069 -8 1121 -8 q 970 6 1017 -8 q 889 46 924 21 q 834 106 854 71 q 814 181 814 140 q 848 266 814 235 q 928 319 882 297 q 864 362 892 335 q 836 432 836 389 q 857 499 836 468 q 911 551 878 529 q 986 585 944 572 q 1069 597 1028 597 q 1153 585 1111 597 q 1228 552 1194 574 q 1283 500 1263 531 q 1304 433 1304 469 q 1278 364 1304 393 q 1213 319 1251 335 q 1294 263 1261 296 q 1326 178 1326 229 m 1196 192 q 1185 221 1196 208 q 1156 242 1174 233 q 1116 256 1139 251 q 1069 261 1093 261 q 982 242 1019 261 q 944 192 944 224 q 956 163 944 175 q 985 140 967 150 q 1025 126 1003 131 q 1071 121 1047 121 q 1117 126 1094 121 q 1158 140 1140 131 q 1185 163 1175 150 q 1196 192 1196 176 m 965 419 q 999 381 965 394 q 1069 367 1032 367 q 1141 381 1107 367 q 1175 419 1175 394 q 1143 458 1175 443 q 1069 472 1111 472 q 997 458 1028 472 q 965 419 965 443 m 417 540 l 417 413 l 82 413 l 82 540 l 189 540 l 189 878 q 167 856 182 868 q 133 832 151 843 q 96 813 115 821 q 60 806 76 806 l 60 935 q 103 947 81 935 q 145 974 126 960 q 176 1001 164 989 q 189 1015 189 1014 l 321 1015 l 321 540 l 417 540 m 219 78 l 611 528 l 967 999 l 1067 910 l 688 471 l 318 -12 l 219 78 z "},"¹":{"ha":429,"x_min":43,"x_max":400,"o":"m 400 540 l 400 413 l 65 413 l 65 540 l 172 540 l 172 878 q 150 856 165 868 q 117 832 135 843 q 79 813 99 821 q 43 806 60 806 l 43 935 q 87 947 64 935 q 128 974 110 960 q 160 1001 147 989 q 172 1015 172 1014 l 304 1015 l 304 540 l 400 540 z "},"½":{"ha":1379,"x_min":56,"x_max":1325,"o":"m 851 0 q 860 101 851 58 q 888 177 868 144 q 940 235 907 210 q 1022 283 974 261 q 1083 310 1053 297 q 1136 337 1113 322 q 1174 369 1160 351 q 1189 413 1189 388 q 1162 463 1189 447 q 1086 478 1135 478 q 994 457 1033 478 q 931 413 954 436 l 856 508 q 890 542 868 525 q 944 573 913 560 q 1017 595 976 586 q 1106 604 1057 604 q 1269 554 1213 604 q 1325 411 1325 504 q 1308 333 1325 365 q 1267 278 1292 300 q 1214 242 1243 256 q 1160 221 1185 229 q 1049 126 1049 186 l 1325 126 l 1325 0 l 851 0 m 413 540 l 413 413 l 78 413 l 78 540 l 185 540 l 185 878 q 163 856 178 868 q 129 832 147 843 q 92 813 111 821 q 56 806 72 806 l 56 935 q 99 947 76 935 q 141 974 122 960 q 172 1001 160 989 q 185 1015 185 1014 l 317 1015 l 317 540 l 413 540 m 213 78 l 604 528 l 960 999 l 1060 910 l 681 471 l 311 -12 l 213 78 z "},"₂":{"ha":603,"x_min":39,"x_max":551,"o":"m 39 0 q 48 101 39 58 q 78 177 57 144 q 135 235 100 210 q 224 283 171 261 q 289 310 257 297 q 347 337 321 322 q 388 369 372 351 q 404 413 404 388 q 375 463 404 447 q 293 478 346 478 q 192 457 235 478 q 125 413 150 436 l 43 508 q 139 573 69 542 q 314 604 208 604 q 490 554 429 604 q 550 411 550 504 q 533 333 550 365 q 488 278 515 300 q 430 242 461 256 q 372 221 399 229 q 253 126 253 186 l 551 126 l 551 0 l 39 0 z "},"₁":{"ha":486,"x_min":43,"x_max":461,"o":"m 461 126 l 461 0 l 65 0 l 65 126 l 204 126 l 204 464 q 177 442 196 454 q 135 418 158 429 q 88 399 113 407 q 43 392 64 392 l 43 521 q 97 533 69 521 q 149 560 125 546 q 188 588 172 575 q 204 603 204 601 l 335 603 l 335 126 l 461 126 z "},"¼":{"ha":1349,"x_min":57,"x_max":1299,"o":"m 1083 1 l 1083 124 l 781 124 l 781 250 l 1124 599 l 1213 599 l 1213 250 l 1299 250 l 1299 124 l 1213 124 l 1213 1 l 1083 1 m 903 250 l 1089 250 l 1089 442 l 903 250 m 414 540 l 414 413 l 79 413 l 79 540 l 186 540 l 186 878 q 164 856 179 868 q 131 832 149 843 q 93 813 113 821 q 57 806 74 806 l 57 935 q 101 947 78 935 q 142 974 124 960 q 174 1001 161 989 q 186 1015 186 1014 l 318 1015 l 318 540 l 414 540 m 265 78 l 657 528 l 1013 999 l 1113 910 l 733 471 l 364 -12 l 265 78 z "},"⅓":{"ha":1383,"x_min":60,"x_max":1332,"o":"m 1068 -8 q 920 18 981 -8 q 836 97 860 44 l 906 194 q 919 177 908 189 q 951 153 931 165 q 1000 131 971 140 q 1067 122 1029 122 q 1160 137 1121 122 q 1200 183 1200 151 q 1145 235 1200 219 q 994 251 1090 251 l 960 251 l 960 369 l 993 369 q 1128 384 1076 369 q 1179 433 1179 399 q 1169 458 1179 447 q 1143 474 1158 468 q 1109 482 1128 479 q 1074 485 1090 485 q 982 467 1018 485 q 918 419 946 449 l 836 525 q 878 560 853 544 q 935 585 904 575 q 1002 601 967 596 q 1072 606 1038 606 q 1170 593 1125 606 q 1248 558 1215 581 q 1299 506 1281 536 q 1318 442 1318 476 q 1282 361 1318 393 q 1183 318 1246 329 q 1292 265 1253 308 q 1332 164 1332 221 q 1309 85 1332 118 q 1249 32 1286 53 q 1165 1 1213 11 q 1068 -8 1118 -8 m 417 540 l 417 413 l 82 413 l 82 540 l 189 540 l 189 878 q 167 856 182 868 q 133 832 151 843 q 96 813 115 821 q 60 806 76 806 l 60 935 q 103 947 81 935 q 145 974 126 960 q 176 1001 164 989 q 189 1015 189 1014 l 321 1015 l 321 540 l 417 540 m 203 78 l 594 528 l 950 999 l 1050 910 l 671 471 l 301 -12 l 203 78 z "},"₃":{"ha":576,"x_min":36,"x_max":532,"o":"m 268 -8 q 120 18 181 -8 q 36 97 60 44 l 106 194 q 119 177 108 189 q 151 153 131 165 q 200 131 171 140 q 267 122 229 122 q 360 137 321 122 q 400 183 400 151 q 345 235 400 219 q 194 251 290 251 l 160 251 l 160 369 l 193 369 q 328 384 276 369 q 379 433 379 399 q 369 458 379 447 q 343 474 358 468 q 309 482 328 479 q 274 485 290 485 q 182 467 218 485 q 118 419 146 449 l 36 525 q 78 560 53 544 q 135 585 104 575 q 202 601 167 596 q 272 606 238 606 q 370 593 325 606 q 448 558 415 581 q 499 506 481 536 q 518 442 518 476 q 482 361 518 393 q 383 318 446 329 q 492 265 453 308 q 532 164 532 221 q 509 85 532 118 q 449 32 486 53 q 365 1 413 11 q 268 -8 318 -8 z "},"ǫ":{"ha":849,"x_min":35,"x_max":815,"o":"m 458 -285 q 335 -237 375 -274 q 294 -156 294 -201 q 392 -12 294 -79 q 240 26 306 -7 q 128 110 174 58 q 58 226 82 161 q 35 364 35 292 q 60 508 35 439 q 136 628 86 576 q 259 712 186 681 q 425 743 332 743 q 590 712 518 743 q 713 628 663 681 q 789 508 763 576 q 815 364 815 439 q 796 238 815 299 q 738 128 776 178 q 644 44 700 79 q 517 -4 589 10 q 411 -124 411 -68 q 433 -162 411 -147 q 501 -178 456 -176 l 458 -285 m 263 364 q 308 226 263 278 q 425 174 354 174 q 489 188 460 174 q 540 226 518 201 q 574 287 561 251 q 586 364 586 322 q 540 502 586 450 q 425 554 494 554 q 360 540 390 554 q 309 501 331 526 q 275 441 288 476 q 263 364 263 406 z "},"ª":{"ha":622,"x_min":51,"x_max":561,"o":"m 219 467 q 153 479 183 467 q 99 513 122 492 q 64 564 76 535 q 51 628 51 593 q 67 697 51 665 q 110 750 82 728 q 176 785 138 772 q 260 797 214 797 q 318 792 290 797 q 365 776 346 788 l 365 797 q 272 883 365 883 q 197 869 232 883 q 121 828 161 856 l 75 926 q 288 992 171 992 q 461 938 400 992 q 522 779 522 883 l 522 656 q 531 622 522 632 q 561 611 539 613 l 561 476 q 521 470 540 472 q 488 468 501 468 q 394 535 406 469 l 390 557 q 314 490 358 513 q 219 467 269 467 m 267 582 q 309 590 288 582 q 344 611 331 599 q 365 647 365 625 l 365 693 q 327 706 349 701 q 288 710 306 710 q 224 691 249 710 q 199 642 199 672 q 218 599 199 617 q 267 582 238 582 z "},"º":{"ha":613,"x_min":44,"x_max":568,"o":"m 306 467 q 194 488 243 467 q 113 546 146 510 q 62 629 79 582 q 44 729 44 676 q 62 829 44 782 q 113 913 79 876 q 194 970 146 949 q 306 992 243 992 q 417 970 368 992 q 500 913 467 949 q 551 829 533 876 q 568 729 568 782 q 551 629 568 676 q 500 546 533 582 q 417 488 467 510 q 306 467 368 467 m 204 729 q 233 636 204 671 q 306 601 261 601 q 378 636 350 601 q 407 729 407 671 q 378 822 407 788 q 306 857 350 857 q 233 822 261 857 q 204 729 204 788 z "},"ø":{"ha":846,"x_min":33,"x_max":814,"o":"m 136 97 q 60 219 86 150 q 33 364 33 288 q 59 508 33 439 q 135 628 85 576 q 258 712 185 681 q 424 743 331 743 q 536 729 485 743 q 631 692 588 715 l 668 736 l 790 736 l 704 636 q 785 513 757 583 q 814 364 814 443 q 788 220 814 289 q 713 99 763 151 q 590 17 663 47 q 424 -14 517 -14 q 208 42 299 -14 l 167 -7 l 46 -7 l 136 97 m 424 174 q 488 188 458 174 q 538 226 517 201 q 572 287 560 251 q 585 364 585 322 q 558 471 585 425 l 338 199 q 424 174 372 174 m 261 364 q 283 261 261 304 l 503 532 q 424 554 465 554 q 359 540 389 554 q 308 501 329 526 q 274 441 286 476 q 261 364 261 406 z "},"ǿ":{"ha":846,"x_min":33,"x_max":814,"o":"m 136 97 q 60 219 86 150 q 33 364 33 288 q 59 508 33 439 q 135 628 85 576 q 258 712 185 681 q 424 743 331 743 q 536 729 485 743 q 631 692 588 715 l 668 736 l 790 736 l 704 636 q 785 513 757 583 q 814 364 814 443 q 788 220 814 289 q 713 99 763 151 q 590 17 663 47 q 424 -14 517 -14 q 208 42 299 -14 l 167 -7 l 46 -7 l 136 97 m 486 794 l 344 833 l 417 1014 l 618 1014 l 486 794 m 424 174 q 488 188 458 174 q 538 226 517 201 q 572 287 560 251 q 585 364 585 322 q 558 471 585 425 l 338 199 q 424 174 372 174 m 261 364 q 283 261 261 304 l 503 532 q 424 554 465 554 q 359 540 389 554 q 308 501 329 526 q 274 441 286 476 q 261 364 261 406 z "},"õ":{"ha":846,"x_min":33,"x_max":814,"o":"m 424 -14 q 258 17 331 -14 q 135 99 185 47 q 59 220 85 151 q 33 364 33 289 q 59 508 33 439 q 135 628 85 576 q 258 712 185 681 q 424 743 331 743 q 589 712 517 743 q 711 628 661 681 q 788 508 761 576 q 814 364 814 439 q 788 220 814 289 q 713 99 763 151 q 590 17 663 47 q 424 -14 517 -14 m 261 364 q 307 226 261 278 q 424 174 353 174 q 488 188 458 174 q 538 226 517 201 q 572 287 560 251 q 585 364 585 322 q 539 502 585 450 q 424 554 493 554 q 359 540 389 554 q 308 501 329 526 q 274 441 286 476 q 261 364 261 406 m 511 817 q 455 826 479 817 q 410 849 431 836 q 369 871 389 861 q 326 881 350 881 q 290 871 303 881 q 271 849 278 861 q 263 826 264 836 q 261 814 261 815 l 142 814 q 151 862 142 829 q 181 928 160 894 q 235 986 201 961 q 318 1011 269 1011 q 375 1001 351 1011 q 419 978 399 990 q 458 955 439 965 q 503 944 478 944 q 541 955 526 944 q 563 978 556 965 q 573 1001 571 990 q 575 1014 575 1013 l 694 1014 q 685 971 694 1003 q 653 904 675 939 q 597 843 632 869 q 511 817 563 817 z "},"p":{"ha":886,"x_min":75,"x_max":853,"o":"m 538 -14 q 393 21 454 -14 q 297 118 332 56 l 297 -296 l 75 -296 l 75 729 l 269 729 l 269 611 q 369 708 310 674 q 513 743 429 743 q 649 714 586 743 q 756 634 711 685 q 827 515 801 583 q 853 367 853 446 q 829 215 853 285 q 763 95 806 146 q 663 15 721 44 q 538 -14 606 -14 m 461 174 q 527 190 497 174 q 579 232 557 206 q 613 294 601 258 q 625 368 625 329 q 612 442 625 408 q 576 501 599 476 q 521 540 553 526 q 450 554 489 554 q 363 527 404 554 q 297 454 321 500 l 297 304 q 365 211 319 249 q 461 174 410 174 z "},"¶":{"ha":936,"x_min":49,"x_max":879,"o":"m 49 626 q 151 892 49 799 q 440 986 253 986 l 879 986 l 879 821 l 782 821 l 782 -111 l 594 -111 l 594 276 l 536 276 l 536 -111 l 349 -111 l 349 276 q 226 301 281 276 q 131 372 171 326 q 70 483 92 418 q 49 626 49 547 m 232 632 q 266 498 232 549 q 349 440 300 447 l 349 821 q 263 765 294 817 q 232 632 232 713 m 594 821 l 536 821 l 536 440 l 594 440 l 594 821 z "},"(":{"ha":450,"x_min":42,"x_max":422,"o":"m 42 482 q 58 624 42 553 q 102 767 74 694 q 169 913 131 839 q 253 1061 208 986 l 422 992 q 374 905 403 961 q 317 778 344 849 q 269 629 289 707 q 249 478 249 551 q 296 247 249 365 q 417 -3 343 128 l 254 -82 q 173 51 211 -18 q 106 192 135 121 q 59 337 76 264 q 42 482 42 410 z "},")":{"ha":450,"x_min":28,"x_max":408,"o":"m 408 482 q 391 337 408 410 q 344 192 374 264 q 276 51 315 121 q 194 -82 238 -18 l 33 -3 q 154 247 107 128 q 201 478 201 365 q 181 629 201 551 q 133 778 161 707 q 76 905 106 849 q 28 992 47 961 l 197 1061 q 281 913 242 986 q 348 767 319 839 q 392 624 376 694 q 408 482 408 553 z "},"%":{"ha":1139,"x_min":50,"x_max":1089,"o":"m 288 571 q 194 588 238 571 q 119 633 151 604 q 68 702 86 663 q 50 786 50 742 q 68 869 50 831 q 119 938 86 908 q 194 983 151 967 q 288 1000 238 1000 q 381 983 338 1000 q 456 938 424 967 q 507 869 489 908 q 525 786 525 831 q 507 702 525 742 q 456 633 489 663 q 381 588 424 604 q 288 571 338 571 m 288 679 q 347 710 322 679 q 371 786 371 742 q 346 861 371 831 q 288 892 321 892 q 228 860 253 892 q 204 786 204 829 q 228 710 204 742 q 288 679 253 679 m 851 -14 q 758 3 801 -14 q 683 49 715 19 q 632 117 650 78 q 614 200 614 156 q 632 284 614 244 q 683 353 650 324 q 758 399 715 382 q 851 415 801 415 q 944 399 901 415 q 1020 353 988 382 q 1071 284 1053 324 q 1089 200 1089 244 q 1071 117 1089 156 q 1020 49 1053 78 q 944 3 988 19 q 851 -14 901 -14 m 851 94 q 910 126 886 94 q 935 200 935 157 q 910 276 935 244 q 851 307 885 307 q 792 276 817 307 q 768 200 768 244 q 792 125 768 156 q 851 94 817 94 m 146 78 l 538 528 l 893 999 l 993 910 l 614 471 l 244 -12 l 146 78 z "},".":{"ha":331,"x_min":75,"x_max":256,"o":"m 75 0 l 75 226 l 256 226 l 256 0 l 75 0 z "},"‰":{"ha":1683,"x_min":54,"x_max":1639,"o":"m 292 571 q 199 588 242 571 q 124 633 156 604 q 73 702 92 663 q 54 786 54 742 q 73 869 54 831 q 124 938 92 908 q 199 983 156 967 q 292 1000 242 1000 q 385 983 342 1000 q 460 938 428 967 q 511 869 493 908 q 529 786 529 831 q 511 702 529 742 q 460 633 493 663 q 385 588 428 604 q 292 571 342 571 m 292 679 q 351 710 326 679 q 376 786 376 742 q 351 861 376 831 q 292 892 326 892 q 233 860 257 892 q 208 786 208 829 q 233 710 208 742 q 292 679 258 679 m 856 -14 q 763 3 806 -14 q 688 49 719 19 q 637 117 656 78 q 618 200 618 156 q 637 284 618 244 q 688 353 656 324 q 763 399 719 382 q 856 415 806 415 q 949 399 906 415 q 1024 353 992 382 q 1075 284 1057 324 q 1093 200 1093 244 q 1075 117 1093 156 q 1024 49 1057 78 q 949 3 992 19 q 856 -14 906 -14 m 856 94 q 915 126 890 94 q 940 200 940 157 q 915 276 940 244 q 856 307 890 307 q 797 276 821 307 q 772 200 772 244 q 797 125 772 156 q 856 94 821 94 m 1401 -14 q 1308 3 1351 -14 q 1233 49 1265 19 q 1182 117 1200 78 q 1164 200 1164 156 q 1182 284 1164 244 q 1233 353 1200 324 q 1308 399 1265 382 q 1401 415 1351 415 q 1494 399 1451 415 q 1570 353 1538 382 q 1621 284 1603 324 q 1639 200 1639 244 q 1621 117 1639 156 q 1570 49 1603 78 q 1494 3 1538 19 q 1401 -14 1451 -14 m 1401 94 q 1460 126 1436 94 q 1485 200 1485 157 q 1460 276 1485 244 q 1401 307 1435 307 q 1342 276 1367 307 q 1318 200 1318 244 q 1342 125 1318 156 q 1401 94 1367 94 m 150 78 l 542 528 l 897 999 l 997 910 l 618 471 l 249 -12 l 150 78 z "},"+":{"ha":592,"x_min":64,"x_max":526,"o":"m 526 582 l 526 404 l 396 404 l 396 260 l 196 260 l 196 404 l 64 404 l 64 582 l 196 582 l 196 726 l 396 726 l 396 582 l 526 582 z "},"±":{"ha":661,"x_min":76,"x_max":585,"o":"m 76 22 l 76 199 l 585 199 l 585 22 l 76 22 m 585 618 l 585 442 l 431 442 l 431 274 l 232 274 l 232 442 l 76 442 l 76 618 l 232 618 l 232 786 l 431 786 l 431 618 l 585 618 z "},"q":{"ha":886,"x_min":35,"x_max":868,"o":"m 350 -14 q 223 15 281 -14 q 124 96 165 44 q 58 217 82 147 q 35 367 35 286 q 60 515 35 446 q 131 634 86 583 q 238 714 176 685 q 374 743 300 743 q 517 707 457 743 q 618 610 578 671 l 618 729 l 811 729 l 811 -35 q 824 -81 811 -68 q 868 -96 836 -94 l 868 -285 q 805 -293 839 -290 q 744 -296 771 -296 q 684 -285 713 -296 q 635 -256 656 -275 q 601 -211 614 -237 q 589 -153 589 -185 l 589 118 q 350 -14 514 -14 m 435 174 q 522 201 483 174 q 589 272 561 228 l 589 426 q 564 476 581 453 q 525 517 547 500 q 478 544 503 535 q 428 554 453 554 q 361 538 392 554 q 308 496 331 522 q 274 435 286 469 q 261 361 261 400 q 309 226 261 279 q 435 174 357 174 z "},"?":{"ha":686,"x_min":50,"x_max":638,"o":"m 156 340 q 160 401 156 372 q 176 458 164 431 q 209 508 188 485 q 267 551 231 532 q 315 577 285 561 q 374 614 346 593 q 422 662 401 635 q 443 722 443 689 q 410 794 443 768 q 335 819 378 819 q 285 809 307 819 q 246 784 263 799 q 216 751 229 769 q 193 719 203 733 l 50 819 q 165 951 86 904 q 342 999 243 999 q 447 983 394 999 q 542 935 500 968 q 611 849 585 901 q 638 721 638 796 q 604 588 638 642 q 507 494 571 535 q 448 460 478 475 q 394 428 418 444 q 353 390 369 411 q 338 340 338 369 l 156 340 m 160 0 l 160 208 l 342 208 l 342 0 l 160 0 z "},"¿":{"ha":676,"x_min":44,"x_max":632,"o":"m 526 363 q 522 301 526 331 q 506 245 518 272 q 473 194 494 218 q 415 151 451 171 q 366 125 396 140 q 308 89 336 110 q 260 41 281 68 q 239 -19 239 14 q 272 -91 239 -65 q 347 -117 304 -117 q 397 -106 375 -117 q 436 -81 419 -96 q 466 -49 453 -67 q 489 -17 479 -32 l 632 -117 q 517 -249 596 -201 q 340 -296 439 -296 q 235 -281 288 -296 q 140 -232 182 -265 q 71 -146 97 -199 q 44 -18 44 -93 q 78 115 44 61 q 175 208 111 168 q 234 242 204 226 q 288 275 264 258 q 328 313 313 292 q 344 363 344 333 l 526 363 m 522 703 l 522 494 l 340 494 l 340 703 l 522 703 z "},"\"":{"ha":594,"x_min":76,"x_max":517,"o":"m 76 721 l 76 1008 l 265 1008 l 265 721 l 76 721 m 329 721 l 329 1008 l 517 1008 l 517 721 l 329 721 z "},"„":{"ha":633,"x_min":32,"x_max":554,"o":"m 32 -26 q 45 -25 36 -26 q 63 -18 54 -24 q 77 -3 71 -12 q 85 22 83 6 l 85 226 l 265 226 l 265 -19 q 242 -99 265 -68 q 185 -149 219 -131 q 110 -176 151 -168 q 32 -183 69 -183 l 32 -26 m 321 -26 q 334 -25 325 -26 q 351 -18 343 -24 q 366 -3 360 -12 q 374 22 372 6 l 374 226 l 554 226 l 554 -19 q 531 -99 554 -68 q 474 -149 508 -131 q 399 -176 440 -168 q 321 -183 358 -183 l 321 -26 z "},"‚":{"ha":346,"x_min":32,"x_max":265,"o":"m 32 -26 q 45 -25 36 -26 q 63 -18 54 -24 q 77 -3 71 -12 q 85 22 83 6 l 85 226 l 265 226 l 265 -19 q 242 -99 265 -68 q 185 -149 219 -131 q 110 -176 151 -168 q 32 -183 69 -183 l 32 -26 z "},"“":{"ha":665,"x_min":58,"x_max":596,"o":"m 292 661 q 213 669 254 661 q 138 694 172 676 q 81 744 104 713 q 58 824 58 775 l 58 1014 l 239 1014 l 239 867 q 247 841 240 850 q 263 826 254 832 q 279 819 271 821 q 292 818 288 818 l 292 661 m 596 661 q 517 669 558 661 q 442 694 476 676 q 385 744 408 713 q 363 824 363 775 l 363 1014 l 543 1014 l 543 867 q 551 841 544 850 q 567 826 558 832 q 583 819 575 821 q 596 818 592 818 l 596 661 z "},"‘":{"ha":361,"x_min":58,"x_max":292,"o":"m 292 661 q 213 669 254 661 q 138 694 172 676 q 81 744 104 713 q 58 824 58 775 l 58 1014 l 239 1014 l 239 867 q 247 841 240 850 q 263 826 254 832 q 279 819 271 821 q 292 818 288 818 l 292 661 z "},"”":{"ha":669,"x_min":57,"x_max":594,"o":"m 57 1014 q 135 1006 94 1014 q 210 981 176 999 q 267 931 244 963 q 290 851 290 899 l 290 661 l 110 661 l 110 808 q 101 834 108 825 q 86 849 94 843 q 69 856 78 854 q 57 857 61 857 l 57 1014 m 361 1014 q 440 1006 399 1014 q 515 981 481 999 q 572 931 549 963 q 594 851 594 899 l 594 661 l 414 661 l 414 808 q 406 834 413 825 q 390 849 399 843 q 374 856 382 854 q 361 857 365 857 l 361 1014 z "},"’":{"ha":365,"x_min":57,"x_max":290,"o":"m 57 1014 q 135 1006 94 1014 q 210 981 176 999 q 267 931 244 963 q 290 851 290 899 l 290 661 l 110 661 l 110 808 q 101 834 108 825 q 86 849 94 843 q 69 856 78 854 q 57 857 61 857 l 57 1014 z "},"'":{"ha":336,"x_min":75,"x_max":263,"o":"m 75 725 l 75 1008 l 263 1008 l 263 725 l 75 725 z "},"r":{"ha":557,"x_min":75,"x_max":538,"o":"m 538 539 q 392 513 457 538 q 297 438 328 488 l 297 0 l 75 0 l 75 729 l 279 729 l 279 582 q 377 697 318 656 q 503 740 436 738 q 538 739 531 740 l 538 539 z "},"ŕ":{"ha":557,"x_min":75,"x_max":538,"o":"m 403 794 l 261 833 l 333 1014 l 535 1014 l 403 794 m 538 539 q 392 513 457 538 q 297 438 328 488 l 297 0 l 75 0 l 75 729 l 279 729 l 279 582 q 377 697 318 656 q 503 740 436 738 q 538 739 531 740 l 538 539 z "},"ř":{"ha":557,"x_min":75,"x_max":571,"o":"m 221 1014 l 339 926 l 457 1014 l 571 963 l 419 814 l 260 814 l 107 963 l 221 1014 m 538 539 q 392 513 457 538 q 297 438 328 488 l 297 0 l 75 0 l 75 729 l 279 729 l 279 582 q 377 697 318 656 q 503 740 436 738 q 538 739 531 740 l 538 539 z "},"ŗ":{"ha":557,"x_min":33,"x_max":538,"o":"m 33 -192 q 86 -154 86 -192 l 86 -65 l 267 -65 l 267 -162 q 249 -226 267 -203 q 199 -260 231 -249 q 126 -276 168 -272 q 33 -279 83 -279 l 33 -192 m 538 539 q 392 513 457 538 q 297 438 328 488 l 297 0 l 75 0 l 75 729 l 279 729 l 279 582 q 377 697 318 656 q 503 740 436 738 q 538 739 531 740 l 538 539 z "},"®":{"ha":1174,"x_min":57,"x_max":1117,"o":"m 583 -10 q 373 28 469 -10 q 206 134 276 67 q 97 293 136 201 q 57 493 57 385 q 97 692 57 600 q 206 850 136 783 q 373 955 276 917 q 583 993 469 993 q 795 955 697 993 q 965 850 893 917 q 1076 692 1036 783 q 1117 493 1117 600 q 1076 293 1117 385 q 965 134 1036 201 q 795 28 893 67 q 583 -10 697 -10 m 585 67 q 759 99 678 67 q 900 187 840 131 q 994 321 960 243 q 1028 490 1028 399 q 994 657 1028 579 q 902 792 961 735 q 762 882 843 849 q 585 915 681 915 q 408 882 489 915 q 270 792 328 849 q 180 658 213 735 q 147 492 147 581 q 180 326 147 403 q 270 191 213 249 q 408 100 328 133 q 585 67 489 67 m 354 797 l 628 797 q 707 779 671 797 q 769 732 743 761 q 810 666 796 703 q 825 592 825 629 q 797 490 825 538 q 725 418 769 442 l 864 194 l 690 194 l 569 389 l 510 389 l 510 194 l 354 194 l 354 797 m 613 522 q 656 539 639 522 q 672 592 672 556 q 653 646 672 631 q 610 661 633 661 l 510 661 l 510 522 l 613 522 z "},"s":{"ha":718,"x_min":17,"x_max":689,"o":"m 381 -14 q 285 -7 335 -14 q 188 12 236 0 q 94 41 139 24 q 17 79 50 58 l 104 229 q 244 165 176 188 q 375 143 313 143 q 449 158 424 143 q 475 203 475 174 q 440 248 475 232 q 321 286 406 264 q 196 325 247 306 q 113 369 144 344 q 68 424 82 393 q 54 496 54 454 q 77 597 54 551 q 140 675 100 643 q 235 725 181 707 q 356 743 290 743 q 512 720 432 743 q 668 657 592 697 l 581 517 q 459 572 513 554 q 356 589 406 589 q 287 574 314 589 q 260 528 260 560 q 267 502 260 513 q 290 483 274 492 q 332 466 306 474 q 397 449 358 458 q 533 407 478 428 q 624 360 589 386 q 674 301 658 335 q 689 222 689 268 q 667 124 689 168 q 606 50 646 81 q 508 3 565 19 q 381 -14 451 -14 z "},"ﬆ":{"ha":1231,"x_min":22,"x_max":1221,"o":"m 1221 39 q 1116 3 1175 19 q 997 -14 1057 -14 q 919 -3 956 -14 q 854 30 882 7 q 810 90 826 53 q 794 181 794 128 l 794 561 l 701 561 l 701 729 l 794 729 q 790 820 794 783 q 776 880 786 857 q 746 913 765 903 q 696 924 726 924 q 603 890 633 924 q 574 810 574 857 q 593 724 574 765 q 633 660 613 683 l 550 519 q 435 574 485 558 q 344 589 385 589 q 276 574 304 589 q 249 526 249 560 q 285 474 249 488 q 385 447 322 460 q 513 413 460 432 q 599 369 565 394 q 647 308 632 343 q 663 228 663 274 q 641 123 663 168 q 580 47 619 78 q 486 1 540 17 q 368 -14 432 -14 q 276 -7 324 -14 q 182 13 228 0 q 94 42 136 25 q 22 78 53 58 l 104 229 q 239 165 174 188 q 363 143 304 143 q 433 157 406 143 q 460 203 460 171 q 449 233 460 221 q 420 253 439 244 q 374 268 401 261 q 313 283 347 275 q 197 318 246 300 q 115 360 147 336 q 68 415 83 383 q 53 493 53 447 q 76 599 53 553 q 138 678 99 646 q 226 726 176 710 q 329 743 276 743 q 368 741 346 743 q 415 734 390 739 q 465 721 440 729 q 513 700 490 713 q 490 753 497 726 q 482 815 482 781 q 497 895 482 858 q 545 960 513 932 q 628 1003 578 988 q 751 1019 679 1019 q 896 1000 843 1019 q 976 944 949 981 q 1010 853 1003 907 q 1017 729 1017 799 l 1165 729 l 1165 561 l 1017 561 l 1017 257 q 1035 205 1017 221 q 1081 189 1053 189 q 1131 197 1104 189 q 1179 215 1158 206 l 1221 39 z "},"ś":{"ha":718,"x_min":17,"x_max":689,"o":"m 418 794 l 276 833 l 349 1014 l 550 1014 l 418 794 m 381 -14 q 285 -7 335 -14 q 188 12 236 0 q 94 41 139 24 q 17 79 50 58 l 104 229 q 244 165 176 188 q 375 143 313 143 q 449 158 424 143 q 475 203 475 174 q 440 248 475 232 q 321 286 406 264 q 196 325 247 306 q 113 369 144 344 q 68 424 82 393 q 54 496 54 454 q 77 597 54 551 q 140 675 100 643 q 235 725 181 707 q 356 743 290 743 q 512 720 432 743 q 668 657 592 697 l 581 517 q 459 572 513 554 q 356 589 406 589 q 287 574 314 589 q 260 528 260 560 q 267 502 260 513 q 290 483 274 492 q 332 466 306 474 q 397 449 358 458 q 533 407 478 428 q 624 360 589 386 q 674 301 658 335 q 689 222 689 268 q 667 124 689 168 q 606 50 646 81 q 508 3 565 19 q 381 -14 451 -14 z "},"š":{"ha":718,"x_min":17,"x_max":689,"o":"m 238 1014 l 356 926 l 474 1014 l 588 963 l 436 814 l 276 814 l 124 963 l 238 1014 m 381 -14 q 285 -7 335 -14 q 188 12 236 0 q 94 41 139 24 q 17 79 50 58 l 104 229 q 244 165 176 188 q 375 143 313 143 q 449 158 424 143 q 475 203 475 174 q 440 248 475 232 q 321 286 406 264 q 196 325 247 306 q 113 369 144 344 q 68 424 82 393 q 54 496 54 454 q 77 597 54 551 q 140 675 100 643 q 235 725 181 707 q 356 743 290 743 q 512 720 432 743 q 668 657 592 697 l 581 517 q 459 572 513 554 q 356 589 406 589 q 287 574 314 589 q 260 528 260 560 q 267 502 260 513 q 290 483 274 492 q 332 466 306 474 q 397 449 358 458 q 533 407 478 428 q 624 360 589 386 q 674 301 658 335 q 689 222 689 268 q 667 124 689 168 q 606 50 646 81 q 508 3 565 19 q 381 -14 451 -14 z "},"ə":{"ha":840,"x_min":26,"x_max":807,"o":"m 417 -14 q 251 17 324 -14 q 129 99 179 47 q 53 220 79 151 q 26 364 26 289 q 28 401 26 382 q 32 433 29 419 l 571 433 q 517 544 565 507 q 408 582 469 582 q 315 558 360 582 q 256 494 271 535 l 67 549 q 199 688 108 633 q 417 743 289 743 q 581 713 508 743 q 703 631 653 682 q 781 513 754 581 q 807 369 807 444 q 781 222 807 292 q 706 99 756 151 q 583 17 656 47 q 417 -14 510 -14 m 421 146 q 527 187 485 146 q 576 297 569 228 l 261 297 q 313 187 268 228 q 421 146 357 146 z "},"ŝ":{"ha":718,"x_min":17,"x_max":689,"o":"m 124 864 l 276 1014 l 436 1014 l 588 864 l 474 814 l 356 901 l 238 814 l 124 864 m 381 -14 q 285 -7 335 -14 q 188 12 236 0 q 94 41 139 24 q 17 79 50 58 l 104 229 q 244 165 176 188 q 375 143 313 143 q 449 158 424 143 q 475 203 475 174 q 440 248 475 232 q 321 286 406 264 q 196 325 247 306 q 113 369 144 344 q 68 424 82 393 q 54 496 54 454 q 77 597 54 551 q 140 675 100 643 q 235 725 181 707 q 356 743 290 743 q 512 720 432 743 q 668 657 592 697 l 581 517 q 459 572 513 554 q 356 589 406 589 q 287 574 314 589 q 260 528 260 560 q 267 502 260 513 q 290 483 274 492 q 332 466 306 474 q 397 449 358 458 q 533 407 478 428 q 624 360 589 386 q 674 301 658 335 q 689 222 689 268 q 667 124 689 168 q 606 50 646 81 q 508 3 565 19 q 381 -14 451 -14 z "},"§":{"ha":751,"x_min":57,"x_max":696,"o":"m 654 310 q 684 256 672 290 q 696 169 696 222 q 665 33 696 89 q 585 -57 633 -22 q 481 -107 538 -92 q 376 -122 425 -122 q 269 -106 319 -122 q 180 -65 219 -89 q 112 -16 140 -42 q 67 29 83 10 l 208 165 q 287 106 249 124 q 365 89 325 89 q 435 107 406 89 q 465 161 465 125 q 458 190 465 179 q 438 207 450 201 q 410 215 425 213 q 381 218 394 217 q 160 299 233 229 q 86 474 86 368 q 94 537 86 514 q 107 571 103 560 q 74 627 92 588 q 57 719 57 667 q 80 823 57 774 q 143 910 103 872 q 238 970 183 947 q 358 993 293 993 q 472 974 422 993 q 559 926 521 954 q 624 865 597 897 q 668 807 650 832 l 499 726 q 449 776 481 757 q 372 796 417 796 q 305 776 329 796 q 281 724 281 756 q 288 690 281 703 q 307 671 294 678 q 336 661 319 664 q 371 658 353 658 q 478 644 424 657 q 576 604 532 632 q 649 531 621 576 q 678 418 678 485 q 669 349 678 378 q 654 310 661 321 m 301 443 q 318 399 301 413 q 358 378 335 385 q 406 371 381 372 q 449 364 432 369 q 463 385 458 371 q 468 411 468 399 q 460 444 468 431 q 438 465 451 457 q 410 477 425 474 q 381 481 394 481 q 343 484 361 481 q 319 490 325 488 q 301 443 301 475 z "},";":{"ha":368,"x_min":42,"x_max":275,"o":"m 94 494 l 94 721 l 275 721 l 275 494 l 94 494 m 42 -26 q 54 -25 46 -26 q 71 -18 63 -24 q 86 -3 79 -12 q 94 22 93 6 l 94 226 l 275 226 l 275 -19 q 252 -99 275 -68 q 195 -149 229 -131 q 120 -176 161 -168 q 42 -183 79 -183 l 42 -26 z "},"⅞":{"ha":1333,"x_min":57,"x_max":1285,"o":"m 1285 178 q 1264 103 1285 138 q 1208 44 1243 69 q 1126 6 1174 19 q 1028 -8 1079 -8 q 928 6 975 -8 q 847 46 882 21 q 792 106 813 71 q 772 181 772 140 q 806 266 772 235 q 886 319 840 297 q 822 362 850 335 q 794 432 794 389 q 815 499 794 468 q 869 551 836 529 q 944 585 903 572 q 1028 597 986 597 q 1111 585 1069 597 q 1187 552 1153 574 q 1242 500 1221 531 q 1263 433 1263 469 q 1236 364 1263 393 q 1171 319 1210 335 q 1252 263 1219 296 q 1285 178 1285 229 m 1154 192 q 1143 221 1154 208 q 1115 242 1132 233 q 1074 256 1097 251 q 1028 261 1051 261 q 940 242 978 261 q 903 192 903 224 q 914 163 903 175 q 943 140 925 150 q 983 126 961 131 q 1029 121 1006 121 q 1076 126 1053 121 q 1116 140 1099 131 q 1144 163 1133 150 q 1154 192 1154 176 m 924 419 q 957 381 924 394 q 1028 367 990 367 q 1099 381 1065 367 q 1133 419 1133 394 q 1101 458 1133 443 q 1028 472 1069 472 q 955 458 986 472 q 924 419 924 443 m 146 78 l 538 528 l 893 999 l 993 910 l 614 471 l 244 -12 l 146 78 m 383 886 l 57 886 l 57 1015 l 586 1015 l 235 418 l 88 418 l 383 886 z "},"⁷":{"ha":554,"x_min":32,"x_max":561,"o":"m 358 886 l 32 886 l 32 1015 l 561 1015 l 210 418 l 63 418 l 358 886 z "},"₇":{"ha":556,"x_min":33,"x_max":561,"o":"m 360 469 l 33 469 l 33 599 l 561 599 l 210 1 l 64 1 l 360 469 z "},"₆":{"ha":601,"x_min":44,"x_max":563,"o":"m 563 200 q 543 119 563 157 q 489 53 524 81 q 406 8 454 25 q 303 -8 358 -8 q 114 66 183 -8 q 44 279 44 140 q 118 518 44 433 q 321 603 192 603 q 442 581 386 603 q 535 517 497 558 l 461 426 q 399 465 438 451 q 315 479 360 479 q 207 447 247 479 q 164 356 167 415 q 228 388 186 378 q 310 399 271 399 q 412 383 365 399 q 492 342 458 368 q 544 278 525 315 q 563 200 563 242 m 306 111 q 358 118 333 111 q 401 138 382 125 q 430 166 419 150 q 440 200 440 182 q 401 261 440 236 q 306 286 361 286 q 253 279 278 286 q 209 261 228 272 q 180 234 190 250 q 169 200 169 218 q 181 166 169 182 q 210 138 192 150 q 253 118 229 125 q 306 111 278 111 z "},"⁶":{"ha":601,"x_min":44,"x_max":563,"o":"m 563 611 q 543 530 563 568 q 489 464 524 492 q 406 419 454 436 q 303 403 358 403 q 114 478 183 403 q 44 690 44 553 q 118 929 44 844 q 321 1014 192 1014 q 442 992 386 1014 q 535 928 497 971 l 461 838 q 399 876 438 863 q 315 890 360 890 q 207 858 247 890 q 164 767 167 826 q 228 799 186 789 q 310 810 271 810 q 412 794 365 810 q 492 753 458 779 q 544 690 525 726 q 563 611 563 653 m 306 522 q 401 549 361 522 q 440 611 440 575 q 401 672 440 647 q 306 697 361 697 q 253 690 278 697 q 209 672 228 683 q 180 645 190 661 q 169 611 169 629 q 181 577 169 593 q 210 549 192 561 q 253 529 229 536 q 306 522 278 522 z "},"Æ":{"ha":1357,"x_min":-25,"x_max":1311,"o":"m 582 986 l 1299 986 l 1299 786 l 868 786 l 868 601 l 1224 601 l 1224 403 l 868 403 l 868 200 l 1311 200 l 1311 0 l 642 0 l 642 221 l 343 221 l 217 0 l -25 0 l 582 986 m 625 421 l 625 732 l 440 421 l 625 421 z "},"£":{"ha":783,"x_min":67,"x_max":731,"o":"m 79 533 l 168 533 q 123 635 144 585 q 101 742 101 686 q 125 840 101 794 q 189 920 149 886 q 284 974 229 954 q 401 993 339 993 q 569 955 489 993 q 704 847 649 917 l 590 711 q 501 785 554 756 q 400 814 449 814 q 327 788 356 814 q 299 718 299 761 q 322 631 299 675 q 367 533 346 586 l 626 533 l 626 368 l 394 368 q 364 270 389 317 q 289 171 339 224 q 347 186 321 182 q 396 190 372 190 q 488 179 443 190 q 581 168 533 168 q 626 173 604 168 q 676 188 649 178 l 731 24 q 653 -8 699 4 q 568 -21 608 -21 q 503 -14 536 -21 q 437 1 471 -7 q 369 15 403 8 q 301 22 335 22 q 213 13 263 22 q 114 -12 163 3 l 67 146 q 163 248 126 189 q 204 368 199 307 l 79 368 l 79 533 z "},"t":{"ha":557,"x_min":28,"x_max":547,"o":"m 547 39 q 443 3 501 19 q 324 -14 385 -14 q 245 -3 282 -14 q 181 30 208 7 q 137 90 153 53 q 121 181 121 128 l 121 561 l 28 561 l 28 729 l 121 729 l 121 961 l 343 961 l 343 729 l 492 729 l 492 561 l 343 561 l 343 257 q 362 205 343 221 q 408 189 381 189 q 458 197 432 189 q 506 215 485 206 l 547 39 z "},"ŧ":{"ha":558,"x_min":29,"x_max":549,"o":"m 549 39 q 444 3 503 19 q 325 -14 386 -14 q 247 -3 283 -14 q 182 30 210 7 q 138 90 154 53 q 122 181 122 128 l 122 343 l 29 343 l 29 472 l 122 472 l 122 561 l 29 561 l 29 729 l 122 729 l 122 961 l 344 961 l 344 729 l 493 729 l 493 561 l 344 561 l 344 472 l 493 472 l 493 343 l 344 343 l 344 257 q 363 205 344 221 q 410 189 382 189 q 460 197 433 189 q 507 215 486 206 l 549 39 z "},"ť":{"ha":557,"x_min":28,"x_max":671,"o":"m 539 794 l 397 833 l 469 1014 l 671 1014 l 539 794 m 547 39 q 443 3 501 19 q 324 -14 385 -14 q 245 -3 282 -14 q 181 30 208 7 q 137 90 153 53 q 121 181 121 128 l 121 561 l 28 561 l 28 729 l 121 729 l 121 961 l 343 961 l 343 729 l 492 729 l 492 561 l 343 561 l 343 257 q 362 205 343 221 q 408 189 381 189 q 458 197 432 189 q 506 215 485 206 l 547 39 z "},"þ":{"ha":833,"x_min":75,"x_max":801,"o":"m 801 356 q 772 206 801 278 q 691 81 742 135 q 574 -6 640 26 q 432 -37 507 -37 q 342 -20 374 -37 q 303 11 311 -3 l 303 -296 l 75 -296 l 75 986 l 303 986 l 303 699 q 344 732 313 713 q 442 751 376 751 q 590 716 524 751 q 703 624 657 681 q 776 497 750 568 q 801 356 801 426 m 572 360 q 563 434 572 399 q 534 496 553 469 q 489 538 515 522 q 428 553 463 553 q 353 527 383 553 q 303 461 324 501 l 303 246 q 313 218 303 233 q 341 190 324 203 q 380 169 358 178 q 424 161 401 161 q 484 176 457 161 q 531 218 511 192 q 561 281 550 244 q 572 360 572 318 z "},"⅜":{"ha":1396,"x_min":56,"x_max":1347,"o":"m 288 401 q 140 428 200 401 q 56 507 79 454 l 125 604 q 139 587 128 599 q 170 563 150 575 q 219 541 190 550 q 286 532 249 532 q 380 547 340 532 q 419 593 419 561 q 365 645 419 629 q 214 661 310 661 l 179 661 l 179 779 l 213 779 q 347 794 296 779 q 399 844 399 808 q 388 868 399 858 q 363 884 378 878 q 328 893 347 890 q 293 896 310 896 q 201 878 238 896 q 138 831 165 860 l 56 935 q 98 969 72 954 q 155 995 124 985 q 222 1010 186 1006 q 292 1015 257 1015 q 390 1003 344 1015 q 467 968 435 990 q 519 916 500 946 q 538 851 538 886 q 501 771 538 803 q 403 728 465 739 q 512 675 472 718 q 551 574 551 632 q 528 495 551 528 q 469 442 506 463 q 385 411 432 421 q 288 401 338 401 m 1347 178 q 1326 103 1347 138 q 1271 44 1306 69 q 1189 6 1236 19 q 1090 -8 1142 -8 q 991 6 1038 -8 q 910 46 944 21 q 855 106 875 71 q 835 181 835 140 q 869 266 835 235 q 949 319 903 297 q 885 362 913 335 q 857 432 857 389 q 878 499 857 468 q 932 551 899 529 q 1007 585 965 572 q 1090 597 1049 597 q 1174 585 1132 597 q 1249 552 1215 574 q 1304 500 1283 531 q 1325 433 1325 469 q 1299 364 1325 393 q 1233 319 1272 335 q 1315 263 1282 296 q 1347 178 1347 229 m 1217 192 q 1206 221 1217 208 q 1177 242 1194 233 q 1137 256 1160 251 q 1090 261 1114 261 q 1003 242 1040 261 q 965 192 965 224 q 976 163 965 175 q 1006 140 988 150 q 1046 126 1024 131 q 1092 121 1068 121 q 1138 126 1115 121 q 1178 140 1161 131 q 1206 163 1196 150 q 1217 192 1217 176 m 986 419 q 1019 381 986 394 q 1090 367 1053 367 q 1162 381 1128 367 q 1196 419 1196 394 q 1164 458 1196 443 q 1090 472 1132 472 q 1017 458 1049 472 q 986 419 986 443 m 275 78 l 667 528 l 1022 999 l 1122 910 l 743 471 l 374 -12 l 275 78 z "},"³":{"ha":576,"x_min":36,"x_max":532,"o":"m 268 401 q 120 428 181 401 q 36 507 60 454 l 106 604 q 119 587 108 599 q 151 563 131 575 q 200 541 171 550 q 267 532 229 532 q 360 547 321 532 q 400 593 400 561 q 345 645 400 629 q 194 661 290 661 l 160 661 l 160 779 l 193 779 q 328 794 276 779 q 379 844 379 808 q 369 868 379 858 q 343 884 358 878 q 309 893 328 890 q 274 896 290 896 q 182 878 218 896 q 118 831 146 860 l 36 935 q 78 969 53 954 q 135 995 104 985 q 202 1010 167 1006 q 272 1015 238 1015 q 370 1003 325 1015 q 448 968 415 990 q 499 916 481 946 q 518 851 518 886 q 482 771 518 803 q 383 728 446 739 q 492 675 453 718 q 532 574 532 632 q 509 495 532 528 q 449 442 486 463 q 365 411 413 421 q 268 401 318 401 z "},"¾":{"ha":1365,"x_min":53,"x_max":1311,"o":"m 285 401 q 137 428 197 401 q 53 507 76 454 l 122 604 q 136 587 125 599 q 167 563 147 575 q 217 541 188 550 q 283 532 246 532 q 377 547 338 532 q 417 593 417 561 q 362 645 417 629 q 211 661 307 661 l 176 661 l 176 779 l 210 779 q 344 794 293 779 q 396 844 396 808 q 385 868 396 858 q 360 884 375 878 q 326 893 344 890 q 290 896 307 896 q 199 878 235 896 q 135 831 163 860 l 53 935 q 95 969 69 954 q 152 995 121 985 q 219 1010 183 1006 q 289 1015 254 1015 q 387 1003 342 1015 q 465 968 432 990 q 516 916 497 946 q 535 851 535 886 q 499 771 535 803 q 400 728 463 739 q 509 675 469 718 q 549 574 549 632 q 526 495 549 528 q 466 442 503 463 q 382 411 429 421 q 285 401 335 401 m 1096 1 l 1096 124 l 793 124 l 793 250 l 1136 599 l 1225 599 l 1225 250 l 1311 250 l 1311 124 l 1225 124 l 1225 1 l 1096 1 m 915 250 l 1101 250 l 1101 442 l 915 250 m 310 78 l 701 528 l 1057 999 l 1157 910 l 778 471 l 408 -12 l 310 78 z "},"™":{"ha":1203,"x_min":83,"x_max":1110,"o":"m 489 847 l 357 847 l 357 565 l 215 565 l 215 847 l 83 847 l 83 989 l 489 989 l 489 847 m 897 986 l 1110 986 l 1110 565 l 968 565 l 968 807 l 889 624 l 774 624 l 694 807 l 694 565 l 553 565 l 553 986 l 765 986 l 831 785 l 897 986 z "},"²":{"ha":594,"x_min":40,"x_max":551,"o":"m 40 411 q 49 513 40 469 q 79 588 58 556 q 135 647 100 621 q 224 694 171 672 q 289 721 257 708 q 347 748 321 733 q 388 781 372 763 q 404 824 404 799 q 375 874 404 858 q 294 889 346 889 q 193 869 236 889 q 125 825 150 849 l 43 919 q 139 984 69 953 q 313 1015 208 1015 q 490 965 429 1015 q 551 822 551 915 q 533 744 551 776 q 489 689 515 711 q 431 653 463 667 q 372 632 399 640 q 253 538 253 597 l 531 538 l 531 411 l 40 411 z "},"⅔":{"ha":1406,"x_min":58,"x_max":1354,"o":"m 1090 -8 q 942 18 1003 -8 q 858 97 882 44 l 928 194 q 942 177 931 189 q 973 153 953 165 q 1022 131 993 140 q 1089 122 1051 122 q 1183 137 1143 122 q 1222 183 1222 151 q 1167 235 1222 219 q 1017 251 1113 251 l 982 251 l 982 369 l 1015 369 q 1150 384 1099 369 q 1201 433 1201 399 q 1191 458 1201 447 q 1165 474 1181 468 q 1131 482 1150 479 q 1096 485 1113 485 q 1004 467 1040 485 q 940 419 968 449 l 858 525 q 901 560 875 544 q 958 585 926 575 q 1024 601 989 596 q 1094 606 1060 606 q 1192 593 1147 606 q 1270 558 1238 581 q 1322 506 1303 536 q 1340 442 1340 476 q 1304 361 1340 393 q 1206 318 1268 329 q 1315 265 1275 308 q 1354 164 1354 221 q 1331 85 1354 118 q 1272 32 1308 53 q 1188 1 1235 11 q 1090 -8 1140 -8 m 58 410 q 67 511 58 468 q 94 587 75 554 q 147 645 114 619 q 229 693 179 671 q 290 719 260 707 q 343 747 319 732 q 381 779 367 761 q 396 822 396 797 q 369 872 396 857 q 294 888 342 888 q 201 867 242 888 q 138 824 161 847 l 61 918 q 96 952 74 935 q 150 983 118 969 q 222 1005 182 996 q 311 1014 263 1014 q 476 964 419 1014 q 533 821 533 914 q 517 742 533 775 q 475 688 500 710 q 421 652 450 665 q 367 631 392 639 q 256 536 256 596 l 514 536 l 514 410 l 58 410 m 279 78 l 671 528 l 1026 999 l 1126 910 l 747 471 l 378 -12 l 279 78 z "},"u":{"ha":879,"x_min":69,"x_max":832,"o":"m 297 -14 q 128 56 186 -14 q 69 263 69 126 l 69 729 l 292 729 l 292 311 q 318 209 292 244 q 393 174 344 174 q 479 197 438 174 q 553 279 521 221 l 553 729 l 775 729 l 775 250 q 788 203 775 217 q 832 188 800 190 l 832 0 q 772 -9 797 -7 q 726 -11 746 -11 q 592 82 610 -10 l 588 126 q 463 20 538 54 q 297 -14 389 -14 z "},"ú":{"ha":879,"x_min":69,"x_max":832,"o":"m 486 794 l 344 833 l 417 1014 l 618 1014 l 486 794 m 297 -14 q 128 56 186 -14 q 69 263 69 126 l 69 729 l 292 729 l 292 311 q 318 209 292 244 q 393 174 344 174 q 479 197 438 174 q 553 279 521 221 l 553 729 l 775 729 l 775 250 q 788 203 775 217 q 832 188 800 190 l 832 0 q 772 -9 797 -7 q 726 -11 746 -11 q 592 82 610 -10 l 588 126 q 463 20 538 54 q 297 -14 389 -14 z "},"ŭ":{"ha":879,"x_min":69,"x_max":832,"o":"m 297 -14 q 128 56 186 -14 q 69 263 69 126 l 69 729 l 292 729 l 292 311 q 318 209 292 244 q 393 174 344 174 q 479 197 438 174 q 553 279 521 221 l 553 729 l 775 729 l 775 250 q 788 203 775 217 q 832 188 800 190 l 832 0 q 772 -9 797 -7 q 726 -11 746 -11 q 592 82 610 -10 l 588 126 q 463 20 538 54 q 297 -14 389 -14 m 422 907 q 478 937 454 907 q 507 1014 503 967 l 622 1014 q 608 932 622 969 q 567 867 593 894 q 503 825 540 840 q 422 810 467 810 q 342 825 378 810 q 278 867 306 840 q 237 932 251 894 q 222 1014 222 969 l 340 1014 q 365 938 340 969 q 422 907 389 907 z "},"û":{"ha":879,"x_min":69,"x_max":832,"o":"m 190 864 l 343 1014 l 503 1014 l 654 864 l 540 814 l 422 901 l 304 814 l 190 864 m 297 -14 q 128 56 186 -14 q 69 263 69 126 l 69 729 l 292 729 l 292 311 q 318 209 292 244 q 393 174 344 174 q 479 197 438 174 q 553 279 521 221 l 553 729 l 775 729 l 775 250 q 788 203 775 217 q 832 188 800 190 l 832 0 q 772 -9 797 -7 q 726 -11 746 -11 q 592 82 610 -10 l 588 126 q 463 20 538 54 q 297 -14 389 -14 z "},"ü":{"ha":879,"x_min":69,"x_max":832,"o":"m 185 825 l 185 1004 l 368 1004 l 368 825 l 185 825 m 476 825 l 476 1004 l 660 1004 l 660 825 l 476 825 m 297 -14 q 128 56 186 -14 q 69 263 69 126 l 69 729 l 292 729 l 292 311 q 318 209 292 244 q 393 174 344 174 q 479 197 438 174 q 553 279 521 221 l 553 729 l 775 729 l 775 250 q 788 203 775 217 q 832 188 800 190 l 832 0 q 772 -9 797 -7 q 726 -11 746 -11 q 592 82 610 -10 l 588 126 q 463 20 538 54 q 297 -14 389 -14 z "},"ù":{"ha":879,"x_min":69,"x_max":832,"o":"m 297 -14 q 128 56 186 -14 q 69 263 69 126 l 69 729 l 292 729 l 292 311 q 318 209 292 244 q 393 174 344 174 q 479 197 438 174 q 553 279 521 221 l 553 729 l 775 729 l 775 250 q 788 203 775 217 q 832 188 800 190 l 832 0 q 772 -9 797 -7 q 726 -11 746 -11 q 592 82 610 -10 l 588 126 q 463 20 538 54 q 297 -14 389 -14 m 226 1015 l 428 1015 l 500 835 l 360 796 l 226 1015 z "},"ű":{"ha":879,"x_min":69,"x_max":832,"o":"m 297 -14 q 128 56 186 -14 q 69 263 69 126 l 69 729 l 292 729 l 292 311 q 318 209 292 244 q 393 174 344 174 q 479 197 438 174 q 553 279 521 221 l 553 729 l 775 729 l 775 250 q 788 203 775 217 q 832 188 800 190 l 832 0 q 772 -9 797 -7 q 726 -11 746 -11 q 592 82 610 -10 l 588 126 q 463 20 538 54 q 297 -14 389 -14 m 335 796 l 228 835 l 290 1015 l 457 1015 l 335 796 m 578 796 l 471 835 l 532 1015 l 699 1015 l 578 796 z "},"ū":{"ha":879,"x_min":69,"x_max":832,"o":"m 297 -14 q 128 56 186 -14 q 69 263 69 126 l 69 729 l 292 729 l 292 311 q 318 209 292 244 q 393 174 344 174 q 479 197 438 174 q 553 279 521 221 l 553 729 l 775 729 l 775 250 q 788 203 775 217 q 832 188 800 190 l 832 0 q 772 -9 797 -7 q 726 -11 746 -11 q 592 82 610 -10 l 588 126 q 463 20 538 54 q 297 -14 389 -14 m 213 863 l 213 997 l 635 997 l 635 863 l 213 863 z "},"_":{"ha":514,"x_min":7,"x_max":507,"o":"m 7 -200 l 7 0 l 507 0 l 507 -200 l 7 -200 z "}," ":{"ha":324,"x_min":0,"x_max":0,"o":""},"­":{"ha":854,"x_min":75,"x_max":779,"o":"m 75 282 l 75 482 l 779 482 l 779 282 l 75 282 z "},"Ş":{"ha":856,"x_min":25,"x_max":817,"o":"m 328 -176 q 379 -195 343 -186 q 453 -204 415 -204 q 508 -194 486 -204 q 531 -160 531 -185 q 510 -126 531 -136 q 456 -115 489 -115 q 394 -121 426 -115 q 346 -131 361 -126 l 404 -10 q 204 28 304 -3 q 25 111 104 58 l 125 310 q 163 283 132 303 q 238 244 193 264 q 338 210 282 225 q 450 194 393 194 q 571 268 571 194 q 553 314 571 296 q 503 347 535 332 q 428 374 471 361 q 333 401 385 386 q 215 447 265 422 q 132 503 165 471 q 83 576 99 535 q 67 674 67 618 q 96 811 67 751 q 175 912 125 871 q 291 974 225 953 q 431 994 357 994 q 533 985 483 994 q 628 960 583 975 q 714 925 674 944 q 786 886 754 906 l 688 697 q 657 718 682 703 q 594 750 632 733 q 513 779 557 767 q 424 792 468 792 q 334 771 365 792 q 303 710 303 750 q 317 668 303 685 q 356 638 331 651 q 420 614 382 625 q 508 589 458 603 q 636 547 579 569 q 733 490 693 524 q 795 407 774 456 q 817 290 817 358 q 790 159 817 214 q 719 68 764 104 q 617 13 675 32 q 494 -10 558 -6 l 465 -53 q 507 -49 483 -49 q 594 -73 557 -49 q 632 -151 632 -97 q 585 -245 632 -207 q 438 -283 538 -283 q 351 -274 389 -283 q 286 -254 314 -265 l 328 -176 z "},"ş":{"ha":719,"x_min":17,"x_max":689,"o":"m 268 -176 q 319 -195 283 -186 q 393 -204 356 -204 q 449 -194 426 -204 q 471 -160 471 -185 q 450 -126 471 -136 q 396 -115 429 -115 q 334 -121 367 -115 q 286 -131 301 -126 l 343 -12 q 167 17 257 -8 q 17 79 78 42 l 104 229 q 244 165 176 188 q 375 143 313 143 q 449 158 424 143 q 475 203 475 174 q 440 248 475 232 q 321 286 406 264 q 196 325 247 306 q 113 369 144 344 q 68 424 82 393 q 54 496 54 454 q 77 597 54 551 q 140 675 100 643 q 235 725 181 707 q 356 743 290 743 q 512 720 432 743 q 668 657 592 697 l 581 517 q 459 572 513 554 q 356 589 406 589 q 287 574 314 589 q 260 528 260 560 q 267 502 260 513 q 290 483 274 492 q 332 466 306 474 q 397 449 358 458 q 533 407 478 428 q 624 360 589 386 q 674 301 658 335 q 689 222 689 268 q 621 62 689 124 q 433 -11 553 0 l 406 -53 q 447 -49 424 -49 q 535 -73 497 -49 q 572 -151 572 -97 q 525 -245 572 -207 q 378 -283 478 -283 q 292 -274 329 -283 q 226 -254 254 -265 l 268 -176 z "},"Ţ":{"ha":864,"x_min":17,"x_max":846,"o":"m 328 -176 q 379 -195 343 -186 q 453 -204 415 -204 q 508 -194 486 -204 q 531 -160 531 -185 q 510 -126 531 -136 q 456 -115 489 -115 q 394 -121 426 -115 q 346 -131 361 -126 l 410 0 l 318 0 l 318 786 l 17 786 l 17 986 l 846 986 l 846 786 l 546 786 l 546 0 l 501 0 l 465 -53 q 507 -49 483 -49 q 594 -73 557 -49 q 632 -151 632 -97 q 585 -245 632 -207 q 438 -283 538 -283 q 351 -274 389 -283 q 286 -254 314 -265 l 328 -176 z "},"ţ":{"ha":558,"x_min":29,"x_max":549,"o":"m 213 -176 q 264 -195 228 -186 q 338 -204 300 -204 q 393 -194 371 -204 q 415 -160 415 -185 q 394 -126 415 -136 q 340 -115 374 -115 q 278 -121 311 -115 q 231 -131 246 -126 l 289 -11 q 224 6 254 -7 q 171 41 193 18 q 135 99 149 64 q 122 181 122 133 l 122 561 l 29 561 l 29 729 l 122 729 l 122 961 l 344 961 l 344 729 l 493 729 l 493 561 l 344 561 l 344 257 q 363 205 344 221 q 410 189 382 189 q 460 197 433 189 q 507 215 486 206 l 549 39 q 469 10 513 24 q 379 -10 425 -3 l 350 -53 q 392 -49 368 -49 q 479 -73 442 -49 q 517 -151 517 -97 q 469 -245 517 -207 q 322 -283 422 -283 q 236 -274 274 -283 q 171 -254 199 -265 l 213 -176 z "},"Ș":{"ha":856,"x_min":25,"x_max":817,"o":"m 307 -192 q 360 -154 360 -192 l 360 -65 l 540 -65 l 540 -162 q 522 -226 540 -203 q 473 -260 504 -249 q 399 -276 442 -272 q 307 -279 357 -279 l 307 -192 m 688 697 q 657 718 682 703 q 594 750 632 733 q 513 779 557 767 q 424 792 468 792 q 334 771 365 792 q 303 710 303 750 q 317 668 303 685 q 356 638 331 651 q 420 614 382 625 q 508 589 458 603 q 636 547 579 569 q 733 490 693 524 q 795 407 774 456 q 817 290 817 358 q 785 149 817 207 q 703 56 754 92 q 584 5 651 21 q 446 -11 517 -11 q 335 -3 392 -11 q 225 22 279 6 q 119 60 171 38 q 25 111 68 82 l 125 310 q 163 283 132 303 q 238 244 193 264 q 338 210 282 225 q 450 194 393 194 q 571 268 571 194 q 553 314 571 296 q 503 347 535 332 q 428 374 471 361 q 333 401 385 386 q 215 447 265 422 q 132 503 165 471 q 83 576 99 535 q 67 674 67 618 q 96 811 67 751 q 175 912 125 871 q 291 974 225 953 q 431 994 357 994 q 533 985 483 994 q 628 960 583 975 q 714 925 674 944 q 786 886 754 906 l 688 697 z "},"ș":{"ha":718,"x_min":17,"x_max":689,"o":"m 235 -192 q 288 -154 288 -192 l 288 -65 l 468 -65 l 468 -162 q 450 -226 468 -203 q 401 -260 432 -249 q 327 -276 369 -272 q 235 -279 285 -279 l 235 -192 m 381 -14 q 285 -7 335 -14 q 188 12 236 0 q 94 41 139 24 q 17 79 50 58 l 104 229 q 244 165 176 188 q 375 143 313 143 q 449 158 424 143 q 475 203 475 174 q 440 248 475 232 q 321 286 406 264 q 196 325 247 306 q 113 369 144 344 q 68 424 82 393 q 54 496 54 454 q 77 597 54 551 q 140 675 100 643 q 235 725 181 707 q 356 743 290 743 q 512 720 432 743 q 668 657 592 697 l 581 517 q 459 572 513 554 q 356 589 406 589 q 287 574 314 589 q 260 528 260 560 q 267 502 260 513 q 290 483 274 492 q 332 466 306 474 q 397 449 358 458 q 533 407 478 428 q 624 360 589 386 q 674 301 658 335 q 689 222 689 268 q 667 124 689 168 q 606 50 646 81 q 508 3 565 19 q 381 -14 451 -14 z "},"Ț":{"ha":864,"x_min":17,"x_max":846,"o":"m 296 -192 q 349 -154 349 -192 l 349 -65 l 529 -65 l 529 -162 q 511 -226 529 -203 q 462 -260 493 -249 q 388 -276 431 -272 q 296 -279 346 -279 l 296 -192 m 846 786 l 546 786 l 546 0 l 318 0 l 318 786 l 17 786 l 17 986 l 846 986 l 846 786 z "},"ț":{"ha":557,"x_min":28,"x_max":547,"o":"m 179 -192 q 232 -154 232 -192 l 232 -65 l 413 -65 l 413 -162 q 394 -226 413 -203 q 345 -260 376 -249 q 272 -276 314 -272 q 179 -279 229 -279 l 179 -192 m 547 39 q 443 3 501 19 q 324 -14 385 -14 q 245 -3 282 -14 q 181 30 208 7 q 137 90 153 53 q 121 181 121 128 l 121 561 l 28 561 l 28 729 l 121 729 l 121 961 l 343 961 l 343 729 l 492 729 l 492 561 l 343 561 l 343 257 q 362 205 343 221 q 408 189 381 189 q 458 197 432 189 q 506 215 485 206 l 547 39 z "},"μ":{"ha":889,"x_min":75,"x_max":838,"o":"m 75 729 l 297 729 l 297 311 q 324 209 297 244 q 404 174 350 174 q 486 197 444 174 q 560 279 528 221 l 560 729 l 782 729 l 782 250 q 794 203 782 217 q 838 188 806 190 l 838 0 q 778 -9 804 -7 q 732 -11 751 -11 q 599 82 615 -8 l 593 126 q 564 81 585 106 q 516 36 543 57 q 456 1 489 15 q 390 -14 424 -14 q 347 -6 365 -14 q 315 12 328 1 q 294 34 301 22 q 283 53 286 46 l 297 -296 l 75 -296 l 75 729 z "},"∕":{"ha":875,"x_min":-25,"x_max":899,"o":"m -25 93 l 774 999 l 899 894 l 101 -12 l -25 93 z "},"∙":{"ha":331,"x_min":75,"x_max":256,"o":"m 75 333 l 75 564 l 256 564 l 256 333 l 75 333 z "},"ų":{"ha":879,"x_min":69,"x_max":832,"o":"m 297 -14 q 128 56 186 -14 q 69 263 69 126 l 69 729 l 292 729 l 292 311 q 318 209 292 244 q 393 174 344 174 q 479 197 438 174 q 553 279 521 221 l 553 729 l 775 729 l 775 250 q 788 203 775 217 q 832 188 800 190 l 832 0 q 718 -124 718 -67 q 740 -162 718 -147 q 808 -178 763 -176 l 765 -285 q 642 -237 682 -274 q 601 -156 601 -201 q 626 -82 601 -119 q 703 -10 651 -44 q 592 82 608 0 l 588 126 q 463 20 538 54 q 297 -14 389 -14 z "},"ů":{"ha":879,"x_min":69,"x_max":832,"o":"m 274 900 q 315 985 274 957 q 422 1014 356 1014 q 529 985 489 1014 q 569 900 569 957 q 529 816 569 844 q 422 788 489 788 q 315 816 356 788 q 274 900 274 844 m 422 949 q 383 935 399 949 q 367 901 367 922 q 383 867 367 881 q 422 853 399 853 q 461 866 444 853 q 478 901 478 879 q 462 935 478 922 q 422 949 446 949 m 297 -14 q 128 56 186 -14 q 69 263 69 126 l 69 729 l 292 729 l 292 311 q 318 209 292 244 q 393 174 344 174 q 479 197 438 174 q 553 279 521 221 l 553 729 l 775 729 l 775 250 q 788 203 775 217 q 832 188 800 190 l 832 0 q 772 -9 797 -7 q 726 -11 746 -11 q 592 82 610 -10 l 588 126 q 463 20 538 54 q 297 -14 389 -14 z "},"ũ":{"ha":879,"x_min":69,"x_max":832,"o":"m 297 -14 q 128 56 186 -14 q 69 263 69 126 l 69 729 l 292 729 l 292 311 q 318 209 292 244 q 393 174 344 174 q 479 197 438 174 q 553 279 521 221 l 553 729 l 775 729 l 775 250 q 788 203 775 217 q 832 188 800 190 l 832 0 q 772 -9 797 -7 q 726 -11 746 -11 q 592 82 610 -10 l 588 126 q 463 20 538 54 q 297 -14 389 -14 m 511 817 q 455 826 479 817 q 410 849 431 836 q 369 871 389 861 q 326 881 350 881 q 290 871 303 881 q 271 849 278 861 q 263 826 264 836 q 261 814 261 815 l 142 814 q 151 862 142 829 q 181 928 160 894 q 235 986 201 961 q 318 1011 269 1011 q 375 1001 351 1011 q 419 978 399 990 q 458 955 439 965 q 503 944 478 944 q 541 955 526 944 q 563 978 556 965 q 573 1001 571 990 q 575 1014 575 1013 l 694 1014 q 685 971 694 1003 q 653 904 675 939 q 597 843 632 869 q 511 817 563 817 z "},"v":{"ha":763,"x_min":3,"x_max":760,"o":"m 261 0 l 3 729 l 231 729 l 390 178 l 551 729 l 760 729 l 501 0 l 261 0 z "},"w":{"ha":1189,"x_min":0,"x_max":1190,"o":"m 981 729 l 1190 729 l 889 0 l 707 0 l 594 300 l 483 0 l 301 0 l 0 729 l 210 729 l 407 206 l 475 404 l 347 729 l 525 729 l 594 510 l 665 729 l 843 729 l 714 404 l 783 206 l 981 729 z "},"ẃ":{"ha":1189,"x_min":0,"x_max":1190,"o":"m 658 794 l 517 833 l 589 1014 l 790 1014 l 658 794 m 981 729 l 1190 729 l 889 0 l 707 0 l 594 300 l 483 0 l 301 0 l 0 729 l 210 729 l 407 206 l 475 404 l 347 729 l 525 729 l 594 510 l 665 729 l 843 729 l 714 404 l 783 206 l 981 729 z "},"ŵ":{"ha":1189,"x_min":0,"x_max":1190,"o":"m 363 864 l 515 1014 l 675 1014 l 826 864 l 713 814 l 594 901 l 476 814 l 363 864 m 981 729 l 1190 729 l 889 0 l 707 0 l 594 300 l 483 0 l 301 0 l 0 729 l 210 729 l 407 206 l 475 404 l 347 729 l 525 729 l 594 510 l 665 729 l 843 729 l 714 404 l 783 206 l 981 729 z "},"ẅ":{"ha":1189,"x_min":0,"x_max":1190,"o":"m 357 825 l 357 1004 l 540 1004 l 540 825 l 357 825 m 649 825 l 649 1004 l 832 1004 l 832 825 l 649 825 m 981 729 l 1190 729 l 889 0 l 707 0 l 594 300 l 483 0 l 301 0 l 0 729 l 210 729 l 407 206 l 475 404 l 347 729 l 525 729 l 594 510 l 665 729 l 843 729 l 714 404 l 783 206 l 981 729 z "},"ẁ":{"ha":1189,"x_min":0,"x_max":1190,"o":"m 981 729 l 1190 729 l 889 0 l 707 0 l 594 300 l 483 0 l 301 0 l 0 729 l 210 729 l 407 206 l 475 404 l 347 729 l 525 729 l 594 510 l 665 729 l 843 729 l 714 404 l 783 206 l 981 729 m 399 1015 l 600 1015 l 672 835 l 532 796 l 399 1015 z "},"x":{"ha":749,"x_min":-3,"x_max":751,"o":"m 229 729 l 361 524 l 375 497 l 388 524 l 519 729 l 747 729 l 494 364 l 751 0 l 525 0 l 388 204 l 375 231 l 363 204 l 225 0 l -3 0 l 254 364 l 3 729 l 229 729 z "},"y":{"ha":757,"x_min":-6,"x_max":746,"o":"m 72 -110 q 128 -124 103 -119 q 174 -128 154 -128 q 233 -99 210 -128 q 271 0 256 -71 l -6 729 l 222 729 l 393 190 l 539 729 l 746 729 l 467 -118 q 363 -265 436 -210 q 194 -321 290 -319 q 133 -316 164 -321 q 72 -300 103 -311 l 72 -110 z "},"ý":{"ha":757,"x_min":-6,"x_max":746,"o":"m 72 -110 q 128 -124 103 -119 q 174 -128 154 -128 q 233 -99 210 -128 q 271 0 256 -71 l -6 729 l 222 729 l 393 190 l 539 729 l 746 729 l 467 -118 q 363 -265 436 -210 q 194 -321 290 -319 q 133 -316 164 -321 q 72 -300 103 -311 l 72 -110 m 457 794 l 315 833 l 388 1014 l 589 1014 l 457 794 z "},"ŷ":{"ha":757,"x_min":-6,"x_max":746,"o":"m 72 -110 q 128 -124 103 -119 q 174 -128 154 -128 q 233 -99 210 -128 q 271 0 256 -71 l -6 729 l 222 729 l 393 190 l 539 729 l 746 729 l 467 -118 q 363 -265 436 -210 q 194 -321 290 -319 q 133 -316 164 -321 q 72 -300 103 -311 l 72 -110 m 161 864 l 314 1014 l 474 1014 l 625 864 l 511 814 l 393 901 l 275 814 l 161 864 z "},"ÿ":{"ha":757,"x_min":-6,"x_max":746,"o":"m 72 -110 q 128 -124 103 -119 q 174 -128 154 -128 q 233 -99 210 -128 q 271 0 256 -71 l -6 729 l 222 729 l 393 190 l 539 729 l 746 729 l 467 -118 q 363 -265 436 -210 q 194 -321 290 -319 q 133 -316 164 -321 q 72 -300 103 -311 l 72 -110 m 156 825 l 156 1004 l 339 1004 l 339 825 l 156 825 m 447 825 l 447 1004 l 631 1004 l 631 825 l 447 825 z "},"¥":{"ha":1008,"x_min":43,"x_max":967,"o":"m 742 578 l 838 578 l 838 435 l 668 435 l 615 336 l 615 293 l 839 293 l 839 150 l 615 150 l 615 0 l 389 0 l 389 150 l 167 150 l 167 293 l 389 293 l 389 339 l 338 435 l 168 435 l 168 578 l 265 578 l 43 986 l 289 986 l 501 533 l 718 986 l 967 986 l 742 578 z "},"ỳ":{"ha":757,"x_min":-6,"x_max":746,"o":"m 72 -110 q 128 -124 103 -119 q 174 -128 154 -128 q 233 -99 210 -128 q 271 0 256 -71 l -6 729 l 222 729 l 393 190 l 539 729 l 746 729 l 467 -118 q 363 -265 436 -210 q 194 -321 290 -319 q 133 -316 164 -321 q 72 -300 103 -311 l 72 -110 m 197 1015 l 399 1015 l 471 835 l 331 796 l 197 1015 z "},"ỹ":{"ha":757,"x_min":-6,"x_max":746,"o":"m 72 -110 q 128 -124 103 -119 q 174 -128 154 -128 q 233 -99 210 -128 q 271 0 256 -71 l -6 729 l 222 729 l 393 190 l 539 729 l 746 729 l 467 -118 q 363 -265 436 -210 q 194 -321 290 -319 q 133 -316 164 -321 q 72 -300 103 -311 l 72 -110 m 481 817 q 424 826 449 817 q 379 849 400 836 q 339 871 358 861 q 296 881 319 881 q 260 871 272 881 q 240 849 247 861 q 232 826 233 836 q 231 814 231 815 l 111 814 q 120 862 111 829 q 150 928 129 894 q 205 986 171 961 q 288 1011 239 1011 q 344 1001 321 1011 q 388 978 368 990 q 428 955 408 965 q 472 944 447 944 q 510 955 496 944 q 533 978 525 965 q 542 1001 540 990 q 544 1014 544 1013 l 664 1014 q 654 971 664 1003 q 623 904 644 939 q 567 843 601 869 q 481 817 532 817 z "},"z":{"ha":683,"x_min":32,"x_max":646,"o":"m 32 133 l 404 575 l 51 575 l 51 729 l 638 729 l 638 596 l 267 154 l 646 154 l 646 0 l 32 0 l 32 133 z "},"ź":{"ha":683,"x_min":32,"x_max":646,"o":"m 404 794 l 263 833 l 335 1014 l 536 1014 l 404 794 m 32 133 l 404 575 l 51 575 l 51 729 l 638 729 l 638 596 l 267 154 l 646 154 l 646 0 l 32 0 l 32 133 z "},"ž":{"ha":683,"x_min":32,"x_max":646,"o":"m 222 1014 l 340 926 l 458 1014 l 572 963 l 421 814 l 261 814 l 108 963 l 222 1014 m 32 133 l 404 575 l 51 575 l 51 729 l 638 729 l 638 596 l 267 154 l 646 154 l 646 0 l 32 0 l 32 133 z "},"ż":{"ha":683,"x_min":32,"x_max":646,"o":"m 32 133 l 404 575 l 51 575 l 51 729 l 638 729 l 638 596 l 267 154 l 646 154 l 646 0 l 32 0 l 32 133 m 242 824 l 242 1014 l 442 1014 l 442 824 l 242 824 z "},"₀":{"ha":693,"x_min":42,"x_max":653,"o":"m 347 -8 q 214 20 271 -8 q 119 92 157 49 q 61 190 81 136 q 42 294 42 244 q 63 403 42 349 q 123 500 83 457 q 219 570 163 543 q 347 597 276 597 q 480 568 422 597 q 576 494 538 539 q 633 397 614 450 q 653 294 653 343 q 631 186 653 240 q 570 89 610 132 q 474 19 531 46 q 347 -8 418 -8 m 174 294 q 184 233 174 264 q 217 178 194 203 q 271 137 239 153 q 347 121 303 121 q 426 138 393 121 q 479 181 458 154 q 510 237 500 207 q 519 294 519 267 q 508 356 519 325 q 476 411 497 386 q 422 452 454 436 q 347 468 390 468 q 269 451 301 468 q 215 409 236 435 q 184 353 194 383 q 174 294 174 322 z "},"⁰":{"ha":693,"x_min":42,"x_max":653,"o":"m 347 408 q 214 437 271 408 q 119 509 157 465 q 61 607 81 553 q 42 711 42 661 q 63 819 42 765 q 123 917 83 874 q 219 987 163 960 q 347 1014 276 1014 q 480 985 422 1014 q 576 911 538 956 q 633 813 614 867 q 653 711 653 760 q 631 603 653 657 q 570 506 610 549 q 474 435 531 463 q 347 408 418 408 m 174 711 q 184 650 174 681 q 217 594 194 619 q 271 553 239 569 q 347 538 303 538 q 426 554 393 538 q 479 597 458 571 q 510 653 500 624 q 519 711 519 683 q 508 772 519 742 q 476 828 497 803 q 422 869 454 853 q 347 885 390 885 q 269 868 301 885 q 215 826 236 851 q 184 769 194 800 q 174 711 174 739 z "}}}
